<svg width="425" height="117" viewBox="0 0 425 117" fill="none" xmlns="http://www.w3.org/2000/svg">
<path d="M365.145 57.6147L315.915 57.8673L316.181 115.107L365.411 114.854L365.145 57.6147Z" fill="#EBEBEB"/>
<path d="M390.562 57.4842L365.144 57.6146L365.41 114.861L390.828 114.731L390.562 57.4842Z" fill="#DBDBDB"/>
<path d="M344.748 70.1171L343.706 70.1239L342.922 70.1307L342.469 69.1787L341.847 70.1307L340.986 68.1791L340.189 70.1443L337.89 70.1511L336.835 70.1579L336.452 68.8523L336.096 70.1646H335.416L335.358 57.7959L344.69 57.7483L344.748 70.1171Z" fill="white"/>
<path d="M389.044 110.827C387.14 106.747 385.255 102.668 383.39 98.5877L377.815 86.3005L372.316 73.9589C370.49 69.8383 368.683 65.704 366.896 61.5562C368.8 65.636 370.684 69.7159 372.55 73.7957L378.119 86.0829L383.623 98.4177C385.45 102.543 387.256 106.679 389.044 110.827Z" fill="#EBEBEB"/>
<path d="M388.817 61.4678C387.06 65.6338 385.29 69.7861 383.507 73.9249L378.125 86.3209L372.666 98.6625C370.836 102.77 368.988 106.861 367.123 110.936C368.871 106.775 370.639 102.624 372.426 98.4857L377.814 86.0897L383.274 73.7617C385.1 69.6456 386.948 65.5476 388.817 61.4678Z" fill="#EBEBEB"/>
<path d="M370.719 0.312329L321.489 0.564941L321.756 57.8047L370.986 57.5521L370.719 0.312329Z" fill="#EBEBEB"/>
<path d="M396.136 0.188665L370.718 0.319092L370.985 57.5656L396.403 57.4352L396.136 0.188665Z" fill="#DBDBDB"/>
<path d="M350.324 12.8223L349.281 12.8291H348.498L348.044 11.8839L347.423 12.8359L346.568 10.8775L345.765 12.8495L343.466 12.8563L342.41 12.8631L342.028 11.5575L341.672 12.8631L340.992 12.8699L340.934 0.501095L350.266 0.453491L350.324 12.8223Z" fill="white"/>
<path d="M394.62 53.5325C392.716 49.4527 390.831 45.3728 388.966 41.2929L383.39 29.0126L377.892 16.671C376.066 12.5503 374.259 8.41605 372.472 4.26819C374.376 8.34805 376.26 12.4279 378.125 16.5078L383.695 28.7881L389.199 41.1297C391.026 45.2504 392.832 49.3847 394.62 53.5325Z" fill="#EBEBEB"/>
<path d="M394.393 4.17297C392.636 8.33443 390.866 12.4868 389.083 16.6302L383.701 29.0261L378.242 41.3609C376.411 45.468 374.564 49.5614 372.698 53.6413C374.425 49.4798 376.193 45.3274 378.002 41.1841L383.39 28.7949L388.85 16.4534C390.667 12.3463 392.515 8.25283 394.393 4.17297Z" fill="#EBEBEB"/>
<path d="M313.359 13.0195L362.583 12.7679L370.697 0.344727L321.474 0.596315L313.359 13.0195Z" fill="#DBDBDB"/>
<path d="M378.928 12.6931L404.275 12.5639L396.044 0.22229L370.697 0.351487L378.928 12.6931Z" fill="#EBEBEB"/>
<path d="M77.9763 61.5361L32.0882 61.7716L32.3365 115.122L78.2246 114.886L77.9763 61.5361Z" fill="#EBEBEB"/>
<path d="M101.664 61.4145L77.969 61.5361L78.2174 114.893L101.913 114.772L101.664 61.4145Z" fill="#DBDBDB"/>
<path d="M58.9572 73.1702L57.9859 73.177H57.2605L56.8396 72.293L56.2568 73.1838L55.4537 71.3615L54.7155 73.1906L52.5655 73.2042L51.5876 73.211L51.2249 71.9871L50.9011 73.211H50.26L50.2082 61.6854L58.9054 61.6378L58.9572 73.1702Z" fill="white"/>
<path d="M100.242 111.113C98.4585 107.328 96.7035 103.531 94.9765 99.7232L89.7958 88.2724L84.6668 76.7672C82.9658 72.9322 81.282 69.079 79.6155 65.2076C81.39 68.9883 83.1471 72.7848 84.887 76.5972L90.0678 88.0481L95.1902 99.5465C96.8956 103.395 98.5793 107.251 100.242 111.113Z" fill="#EBEBEB"/>
<path d="M100.034 65.1057C98.4023 68.9906 96.7531 72.862 95.0866 76.7197L90.0677 88.2793L84.9776 99.7845C83.2766 103.611 81.5497 107.425 79.7969 111.229C81.4288 107.348 83.0759 103.479 84.738 99.6213L89.7958 88.0413L94.8794 76.5361C96.5761 72.7237 98.2944 68.9136 100.034 65.1057Z" fill="#EBEBEB"/>
<path d="M24.5051 73.3538L70.3873 73.1226L77.9513 61.5426L32.069 61.7738L24.5051 73.3538Z" fill="#DBDBDB"/>
<path d="M85.6188 73.0478L109.243 72.9254L101.576 61.427L77.9512 61.5426L85.6188 73.0478Z" fill="#EBEBEB"/>
<path d="M0 115.138C133.036 114.724 282.281 114.717 415.317 115.138C282.275 115.553 133.036 115.553 0 115.138Z" fill="#263238"/>
<g opacity="0.8">
<path d="M167.974 115.323L168.201 87.8447L137.634 87.6543C137.586 88.2469 137.441 88.8264 137.207 89.3678C137.171 89.4536 137.112 89.5266 137.037 89.5779C136.962 89.6291 136.875 89.6564 136.786 89.6564C136.696 89.6564 136.609 89.6291 136.534 89.5779C136.46 89.5266 136.401 89.4536 136.365 89.3678C136.126 88.8161 135.961 88.2327 135.873 87.6339H134.234C134.179 88.2274 134.034 88.808 133.807 89.3542C133.768 89.4408 133.707 89.514 133.63 89.5653C133.553 89.6166 133.464 89.6438 133.373 89.6438C133.282 89.6438 133.193 89.6166 133.116 89.5653C133.039 89.514 132.978 89.4408 132.939 89.3542C132.718 88.8001 132.562 88.2203 132.473 87.6271H130.828C130.779 88.2219 130.635 88.8036 130.4 89.3474C130.36 89.4319 130.298 89.5028 130.221 89.5524C130.145 89.602 130.056 89.6282 129.966 89.6282C129.876 89.6282 129.788 89.602 129.712 89.5524C129.635 89.5028 129.573 89.4319 129.533 89.3474C129.313 88.7906 129.156 88.2087 129.066 87.6135H127.402C127.344 88.2064 127.206 88.7879 126.994 89.3406C126.954 89.4251 126.892 89.496 126.815 89.5456C126.738 89.5952 126.65 89.6214 126.56 89.6214C126.47 89.6214 126.382 89.5952 126.305 89.5456C126.229 89.496 126.167 89.4251 126.126 89.3406C125.918 88.7804 125.756 88.2026 125.64 87.6135L118.731 87.5523C116.289 87.4503 107.158 97.276 107.158 97.276H105.274L105.209 104.933H107.093C107.093 104.933 115.868 114.955 118.498 114.955L125.407 115.017C125.528 114.426 125.704 113.85 125.932 113.296C125.964 113.217 126.018 113.151 126.087 113.106C126.178 113.04 126.288 113.009 126.398 113.019C126.508 113.029 126.611 113.079 126.69 113.16C126.739 113.193 126.776 113.244 126.793 113.303C126.994 113.858 127.12 114.439 127.169 115.03H128.833C128.934 114.462 129.095 113.908 129.312 113.378V113.31C129.353 113.225 129.415 113.154 129.491 113.105C129.568 113.055 129.656 113.029 129.746 113.029C129.836 113.029 129.924 113.055 130.001 113.105C130.078 113.154 130.14 113.225 130.18 113.31C130.18 113.357 130.18 113.398 130.225 113.446C130.42 113.956 130.538 114.495 130.575 115.044H132.22C132.304 114.568 132.43 114.101 132.596 113.65C132.641 113.527 132.686 113.425 132.719 113.323C132.759 113.239 132.821 113.168 132.898 113.118C132.974 113.069 133.063 113.043 133.153 113.043C133.243 113.043 133.331 113.069 133.407 113.118C133.484 113.168 133.546 113.239 133.587 113.323C133.644 113.453 133.692 113.587 133.729 113.725C133.865 114.154 133.95 114.599 133.982 115.051H135.62C135.687 114.655 135.786 114.266 135.918 113.888C135.996 113.684 136.073 113.493 136.145 113.337C136.18 113.251 136.239 113.178 136.314 113.127C136.389 113.076 136.476 113.048 136.565 113.048C136.655 113.048 136.742 113.076 136.817 113.127C136.892 113.178 136.95 113.251 136.986 113.337C137.079 113.556 137.152 113.784 137.207 114.017C137.3 114.37 137.359 114.732 137.381 115.098L153.235 115.241L167.974 115.323Z" fill="white"/>
<path d="M167.974 115.323C167.974 115.384 168.026 87.4435 168.2 87.9331L137.66 87.7563L137.783 87.6407C137.747 88.0423 137.671 88.4388 137.556 88.8239C137.433 89.2114 137.291 89.803 136.792 89.7554C136.675 89.7506 136.562 89.7092 136.467 89.6365C136.373 89.5638 136.301 89.4632 136.261 89.3474C136.027 88.799 135.864 88.2205 135.775 87.6271L135.898 87.7427H134.26L134.383 87.6203C134.273 88.2459 134.189 89.735 133.379 89.7418C133.262 89.7322 133.149 89.6891 133.053 89.6172C132.957 89.5453 132.882 89.4474 132.835 89.3338C132.616 88.7792 132.46 88.1995 132.369 87.6067L132.492 87.7223H130.854L130.983 87.5931C130.932 88.1983 130.788 88.7908 130.556 89.3474C130.5 89.4537 130.418 89.5423 130.318 89.604C130.218 89.6657 130.105 89.6982 129.989 89.6982C129.873 89.6982 129.76 89.6657 129.66 89.604C129.56 89.5423 129.478 89.4537 129.422 89.3474L129.228 88.783C129.102 88.4033 129.011 88.0116 128.956 87.6135L129.092 87.7427H127.421L127.564 87.6135C127.509 88.218 127.371 88.8111 127.156 89.3746C127.097 89.4824 127.012 89.5714 126.909 89.632C126.806 89.6925 126.689 89.7223 126.571 89.7181C126.453 89.7139 126.338 89.6758 126.239 89.6081C126.14 89.5404 126.061 89.4455 126.01 89.3338C125.8 88.7765 125.637 88.2008 125.524 87.6135L125.66 87.7359L118.821 87.6815C117.526 87.8379 116.419 88.9122 115.363 89.7214C112.509 92.1154 109.791 94.6834 107.223 97.412H107.158H105.28L105.429 97.2556L105.358 104.905L105.215 104.756H107.1C107.171 104.756 107.158 104.756 107.203 104.803C108.44 106.204 109.716 107.584 111.024 108.924C112.967 110.889 114.968 112.943 117.319 114.364C117.693 114.607 118.117 114.754 118.556 114.792H119.929L125.414 114.847L125.297 114.942C125.428 114.347 125.606 113.765 125.828 113.201C125.87 113.112 125.931 113.035 126.006 112.976C126.082 112.917 126.169 112.878 126.262 112.861C126.91 112.766 127 113.473 127.13 113.99C127.208 114.313 127.26 114.643 127.285 114.976L127.175 114.867H128.84L128.729 114.962C128.833 114.388 128.996 113.827 129.215 113.289C129.254 113.174 129.324 113.073 129.418 112.999C129.511 112.926 129.623 112.883 129.74 112.877C129.856 112.87 129.972 112.9 130.072 112.963C130.173 113.025 130.253 113.118 130.303 113.228C130.527 113.789 130.663 114.383 130.705 114.989L130.601 114.894H132.246L132.142 114.983C132.256 114.388 132.427 113.807 132.654 113.249C132.699 113.149 132.77 113.064 132.859 113.003C132.947 112.942 133.05 112.908 133.156 112.905C133.261 112.901 133.366 112.928 133.458 112.983C133.55 113.038 133.626 113.118 133.677 113.215C133.917 113.785 134.06 114.395 134.098 115.017L134.007 114.921H135.646L135.555 115.003L135.853 113.847L136.073 113.303C136.112 113.194 136.182 113.099 136.274 113.033C136.365 112.966 136.474 112.93 136.585 112.929C137.077 112.929 137.168 113.5 137.291 113.861C137.405 114.242 137.475 114.637 137.498 115.037L137.414 114.949C145.017 115.051 160.371 115.2 167.98 115.234L167.974 115.323ZM167.974 115.323C160.345 115.323 145.029 115.323 137.401 115.227H137.323C137.3 114.814 137.228 114.405 137.109 114.01C136.993 113.731 136.967 113.194 136.585 113.215C136.203 113.235 136.144 113.772 136.021 114.01L135.736 115.132V115.214H133.936C133.901 114.588 133.763 113.974 133.528 113.398C133.484 113.313 133.409 113.25 133.321 113.221C133.234 113.19 133.138 113.192 133.053 113.228C132.967 113.264 132.897 113.332 132.855 113.419C132.621 113.99 132.452 114.588 132.35 115.2H130.523C130.489 114.585 130.355 113.98 130.128 113.412C130.098 113.341 130.048 113.281 129.984 113.241C129.92 113.201 129.846 113.182 129.772 113.187C129.697 113.189 129.625 113.215 129.565 113.263C129.506 113.311 129.463 113.377 129.442 113.453C129.211 114.007 129.045 114.59 128.95 115.187H128.859H127.195H127.091C127.068 114.531 126.916 113.887 126.644 113.296C126.604 113.252 126.554 113.218 126.498 113.198C126.443 113.178 126.384 113.172 126.326 113.182C126.268 113.191 126.213 113.215 126.166 113.252C126.119 113.288 126.081 113.336 126.055 113.391C125.825 113.969 125.647 114.567 125.524 115.18H125.427L118.575 115.125C117.15 114.969 116.05 113.867 114.949 113.024C113.517 111.821 112.17 110.508 110.856 109.169C109.677 107.931 107.883 106.156 107.113 105.089H105.235H105.092V104.939L105.15 97.2828V97.1264H107.158L107.048 97.1808C110.286 93.8421 113.524 90.3062 117.409 87.8039C117.822 87.5419 118.288 87.388 118.769 87.3551H120.142L125.615 87.4095H125.731C125.841 88.0229 126.005 88.624 126.223 89.2046C126.247 89.2751 126.291 89.336 126.349 89.3792C126.407 89.4223 126.476 89.4455 126.547 89.4455C126.618 89.4455 126.687 89.4223 126.745 89.3792C126.803 89.336 126.847 89.2751 126.871 89.2046C127.088 88.6279 127.223 88.0208 127.272 87.4027H127.402H129.066H129.183V87.5251C129.271 88.0965 129.421 88.6554 129.63 89.191C130.329 90.177 130.666 87.8991 130.685 87.4299H130.808H132.453H132.563C132.649 88.0416 132.805 88.6399 133.03 89.2114C133.742 90.2042 134.072 87.9331 134.098 87.4571H135.963V87.5727C136.044 88.1459 136.201 88.7043 136.429 89.2318C136.45 89.3037 136.492 89.3668 136.549 89.4121C136.606 89.4573 136.675 89.4823 136.747 89.4834C136.816 89.4882 136.884 89.4697 136.943 89.4305C137.001 89.3914 137.046 89.3337 137.071 89.2658C137.312 88.703 137.456 88.0999 137.498 87.4843H137.66L168.22 87.7223C168.472 87.6203 167.909 115.2 167.993 115.282L167.974 115.323Z" fill="#263238"/>
</g>
<path opacity="0.8" d="M121.904 112.589L150.515 112.848L165.662 112.922L165.843 90.2927L122.402 89.9663C123.05 91.8838 122.085 109.006 121.755 112.569C121.802 112.587 121.853 112.594 121.904 112.589Z" fill="#EBEBEB"/>
<path d="M105.194 106.087L105.281 95.7854C105.283 95.5939 105.136 95.4372 104.954 95.4355L100.233 95.3914C100.051 95.3897 99.9015 95.5436 99.8999 95.7351L99.8125 106.036C99.8109 106.228 99.9574 106.384 100.14 106.386L104.861 106.43C105.043 106.432 105.192 106.278 105.194 106.087Z" fill="#B3D74C"/>
<path d="M140.134 87.668L139.862 115.153H137.401C137.382 114.786 137.324 114.424 137.226 114.071C137.171 113.84 137.099 113.612 137.012 113.391C136.975 113.306 136.915 113.234 136.84 113.183C136.765 113.132 136.677 113.105 136.588 113.105C136.499 113.105 136.411 113.132 136.336 113.183C136.261 113.234 136.201 113.306 136.164 113.391C136.093 113.548 136.015 113.738 135.937 113.942C135.805 114.319 135.707 114.709 135.646 115.105H134.001C133.972 114.653 133.887 114.208 133.748 113.779C133.711 113.642 133.663 113.507 133.606 113.378C133.565 113.293 133.503 113.223 133.427 113.173C133.35 113.123 133.262 113.097 133.172 113.097C133.082 113.097 132.994 113.123 132.917 113.173C132.841 113.223 132.779 113.293 132.738 113.378C132.699 113.48 132.66 113.582 132.622 113.704C132.451 114.155 132.323 114.621 132.239 115.098H130.595C130.557 114.552 130.439 114.015 130.245 113.507C130.245 113.453 130.245 113.419 130.2 113.371C130.159 113.287 130.097 113.216 130.02 113.166C129.944 113.117 129.856 113.09 129.766 113.09C129.676 113.09 129.587 113.117 129.511 113.166C129.434 113.216 129.372 113.287 129.332 113.371V113.432C129.112 113.964 128.951 114.521 128.853 115.091H127.188C127.141 114.502 127.014 113.923 126.813 113.371C126.805 113.34 126.791 113.31 126.772 113.284C126.753 113.259 126.73 113.237 126.702 113.222C126.625 113.141 126.524 113.09 126.415 113.079C126.306 113.068 126.197 113.097 126.107 113.16C126.039 113.21 125.985 113.278 125.951 113.357C125.723 113.912 125.546 114.488 125.42 115.078H122.83L123.095 87.6H125.686C125.8 88.1893 125.962 88.7672 126.171 89.3271C126.212 89.4115 126.274 89.4825 126.351 89.5321C126.427 89.5817 126.515 89.6079 126.605 89.6079C126.695 89.6079 126.784 89.5817 126.86 89.5321C126.937 89.4825 126.999 89.4115 127.039 89.3271C127.25 88.7738 127.388 88.1926 127.447 87.6H129.112C129.208 88.1937 129.364 88.775 129.578 89.3339C129.618 89.4183 129.68 89.4893 129.757 89.5389C129.833 89.5885 129.922 89.6147 130.012 89.6147C130.102 89.6147 130.19 89.5885 130.267 89.5389C130.343 89.4893 130.405 89.4183 130.446 89.3339C130.678 88.7893 130.822 88.2079 130.873 87.6136H132.511C132.606 88.2062 132.765 88.7856 132.984 89.3407C133.024 89.4254 133.085 89.4968 133.161 89.5468C133.237 89.5967 133.325 89.6232 133.415 89.6232C133.505 89.6232 133.593 89.5967 133.669 89.5468C133.745 89.4968 133.806 89.4254 133.845 89.3407C134.082 88.7977 134.227 88.2156 134.273 87.6204H135.918C136.007 88.2168 136.172 88.7978 136.41 89.3475C136.448 89.431 136.508 89.5016 136.582 89.5509C136.656 89.6003 136.743 89.6265 136.831 89.6265C136.919 89.6265 137.005 89.6003 137.08 89.5509C137.154 89.5016 137.214 89.431 137.252 89.3475C137.485 88.8034 137.63 88.2218 137.679 87.6272L140.134 87.668Z" fill="#B3D74C"/>
<path opacity="0.6" d="M140.134 87.668L139.862 115.153H137.401C137.382 114.786 137.324 114.424 137.226 114.071C137.171 113.84 137.099 113.612 137.012 113.391C136.975 113.306 136.915 113.234 136.84 113.183C136.765 113.132 136.677 113.105 136.588 113.105C136.499 113.105 136.411 113.132 136.336 113.183C136.261 113.234 136.201 113.306 136.164 113.391C136.093 113.548 136.015 113.738 135.937 113.942C135.805 114.319 135.707 114.709 135.646 115.105H134.001C133.972 114.653 133.887 114.208 133.748 113.779C133.711 113.642 133.663 113.507 133.606 113.378C133.565 113.293 133.503 113.223 133.427 113.173C133.35 113.123 133.262 113.097 133.172 113.097C133.082 113.097 132.994 113.123 132.917 113.173C132.841 113.223 132.779 113.293 132.738 113.378C132.699 113.48 132.66 113.582 132.622 113.704C132.451 114.155 132.323 114.621 132.239 115.098H130.595C130.557 114.552 130.439 114.015 130.245 113.507C130.245 113.453 130.245 113.419 130.2 113.371C130.159 113.287 130.097 113.216 130.02 113.166C129.944 113.117 129.856 113.09 129.766 113.09C129.676 113.09 129.587 113.117 129.511 113.166C129.434 113.216 129.372 113.287 129.332 113.371V113.432C129.112 113.964 128.951 114.521 128.853 115.091H127.188C127.141 114.502 127.014 113.923 126.813 113.371C126.805 113.34 126.791 113.31 126.772 113.284C126.753 113.259 126.73 113.237 126.702 113.222C126.625 113.141 126.524 113.09 126.415 113.079C126.306 113.068 126.197 113.097 126.107 113.16C126.039 113.21 125.985 113.278 125.951 113.357C125.723 113.912 125.546 114.488 125.42 115.078H122.83L123.095 87.6H125.686C125.8 88.1893 125.962 88.7672 126.171 89.3271C126.212 89.4115 126.274 89.4825 126.351 89.5321C126.427 89.5817 126.515 89.6079 126.605 89.6079C126.695 89.6079 126.784 89.5817 126.86 89.5321C126.937 89.4825 126.999 89.4115 127.039 89.3271C127.25 88.7738 127.388 88.1926 127.447 87.6H129.112C129.208 88.1937 129.364 88.775 129.578 89.3339C129.618 89.4183 129.68 89.4893 129.757 89.5389C129.833 89.5885 129.922 89.6147 130.012 89.6147C130.102 89.6147 130.19 89.5885 130.267 89.5389C130.343 89.4893 130.405 89.4183 130.446 89.3339C130.678 88.7893 130.822 88.2079 130.873 87.6136H132.511C132.606 88.2062 132.765 88.7856 132.984 89.3407C133.024 89.4254 133.085 89.4968 133.161 89.5468C133.237 89.5967 133.325 89.6232 133.415 89.6232C133.505 89.6232 133.593 89.5967 133.669 89.5468C133.745 89.4968 133.806 89.4254 133.845 89.3407C134.082 88.7977 134.227 88.2156 134.273 87.6204H135.918C136.007 88.2168 136.172 88.7978 136.41 89.3475C136.448 89.431 136.508 89.5016 136.582 89.5509C136.656 89.6003 136.743 89.6265 136.831 89.6265C136.919 89.6265 137.005 89.6003 137.08 89.5509C137.154 89.5016 137.214 89.431 137.252 89.3475C137.485 88.8034 137.63 88.2218 137.679 87.6272L140.134 87.668Z" fill="white"/>
<path d="M183.192 91.4078C173.271 99.1119 181.127 113.881 183.192 115.289C183.84 115.724 188.47 116.003 194.35 116.145C195.037 116.145 195.348 113.065 196.067 113.085C197.083 113.085 198.566 116.227 199.635 116.234C200.282 116.234 199.674 114.194 200.347 114.194C200.885 114.194 202.679 116.234 203.229 116.234H204.09C209.478 116.234 214.698 116.077 218.02 115.839C220.092 115.676 221.401 115.472 221.582 115.214C227.281 106.558 220.533 88.5655 218.111 87.9059C217.929 87.8583 213.888 88.1643 208.623 88.5859C207.561 88.6743 205.541 90.5646 204.395 90.6258C202.84 90.7686 202.135 89.1298 200.509 89.2658C199.162 89.3746 198.378 91.3058 197.083 91.435C196.526 91.4826 195.425 89.735 194.901 89.7894L193.133 89.9662C189.442 90.3538 186.32 90.7142 184.604 91.0134C184.118 91.0747 183.643 91.2075 183.192 91.4078Z" fill="#455A64"/>
<path d="M221.077 113.663C219.879 113.861 217.347 108.339 216.298 102.226C215.197 95.8345 215.65 88.8443 218.007 89.1571C219.406 89.3407 221.692 95.9093 222.378 102.077C223.026 107.979 222.132 113.487 221.077 113.663Z" fill="#EBEBEB"/>
<path opacity="0.1" d="M184.604 91.0542C194.603 95.3244 198.107 107.258 204.071 116.213C209.459 116.213 214.679 116.057 218.001 115.819C207.71 114.411 202.303 106.694 197.342 97.2488C196.086 94.7397 194.68 92.3164 193.133 89.9934C189.468 90.3946 186.32 90.755 184.604 91.0542Z" fill="black"/>
<path d="M178.089 115.506H155.838C154.782 115.506 155.838 80.2154 155.838 76.2851C155.838 72.3549 162.268 62.162 162.268 59.9657V41.8375H171.652V59.9385C171.652 62.162 178.089 72.3617 178.089 76.2579C178.089 80.1542 179.138 115.506 178.089 115.506Z" fill="white"/>
<path d="M178.089 115.506L160.494 115.554C159.438 115.554 156.945 115.554 155.909 115.554C155.663 115.554 155.637 115.248 155.592 115.057C155.369 112.755 155.27 110.442 155.294 108.128C155.249 101.968 155.346 95.8141 155.443 89.6535L155.663 77.3391C155.616 76.2964 155.737 75.2529 156.019 74.252C157.437 69.3426 160.481 65.086 162.009 60.2581L162.061 59.9181V59.5306C162.061 53.6624 162.022 47.6922 162.061 41.8512V41.6132H162.268H171.652H171.853V41.8172C171.853 45.0266 171.821 52.8396 171.814 55.9131V59.4354C171.814 61.3869 173.006 63.0596 173.757 64.814C175.177 67.5734 176.45 70.4133 177.571 73.3205C177.998 74.4242 178.218 75.604 178.219 76.7952C178.284 83.9825 178.672 99.1324 178.607 106.157C178.607 108.876 178.607 111.644 178.387 114.371C178.361 114.664 178.316 114.955 178.251 115.241C178.251 115.329 178.206 115.445 178.115 115.486L178.089 115.506ZM178.089 115.506C178.335 115.268 178.284 114.724 178.355 114.391C178.562 111.671 178.523 108.917 178.53 106.177C178.53 98.9012 178.089 83.6561 177.979 76.258C177.89 75.2946 177.672 74.3492 177.332 73.4497C176.195 70.5586 174.908 67.7348 173.478 64.9908C172.734 63.2432 171.536 61.4753 171.49 59.4829V58.3134C171.49 54.0091 171.451 46.2234 171.445 41.8647L171.646 42.0755H162.262L162.489 41.8376C162.489 45.9446 162.489 50.0517 162.489 54.1587C162.489 55.6275 162.489 58.1162 162.489 59.5441C162.489 60.9721 161.809 62.1009 161.323 63.2568C160.028 66.0243 158.59 68.6966 157.399 71.5185C156.621 73.3953 155.857 75.2856 155.993 77.3595C155.799 87.0424 155.436 98.534 155.462 108.142C155.54 110.549 155.346 113.038 155.818 115.397C155.818 115.465 155.993 115.397 156.103 115.438H160.501L178.096 115.493L178.089 115.506Z" fill="#263238"/>
<path d="M176.451 113.249H157.476C156.576 113.249 157.476 79.991 157.476 76.632C157.476 73.2729 163.719 63.0324 163.719 61.1081V52.8124H170.195V61.1081C170.195 63.012 176.438 73.2933 176.438 76.632C176.438 79.9706 177.345 113.249 176.451 113.249Z" fill="#B3D74C"/>
<g opacity="0.1">
<path d="M175.415 88.7288C175.268 88.5883 175.085 88.4966 174.889 88.4653C174.693 88.434 174.492 88.4646 174.312 88.553C174.132 88.6415 173.982 88.784 173.879 88.9624C173.776 89.1408 173.726 89.3472 173.735 89.5554C173.744 89.7636 173.812 89.9644 173.93 90.1322C174.048 90.3001 174.21 90.4275 174.397 90.4984C174.583 90.5693 174.786 90.5805 174.979 90.5306C175.171 90.4807 175.346 90.3719 175.479 90.2179C175.568 90.1157 175.637 89.9961 175.682 89.8659C175.727 89.7357 175.747 89.5975 175.741 89.4593C175.735 89.321 175.703 89.1853 175.647 89.06C175.591 88.9346 175.512 88.8221 175.415 88.7288Z" fill="black"/>
<path d="M169.8 64.8683C169.654 64.7269 169.471 64.6343 169.274 64.6023C169.078 64.5703 168.876 64.6003 168.696 64.6886C168.516 64.7769 168.365 64.9194 168.262 65.098C168.159 65.2767 168.108 65.4835 168.118 65.6921C168.127 65.9007 168.195 66.1018 168.313 66.2698C168.431 66.4379 168.594 66.5652 168.781 66.6358C168.968 66.7064 169.171 66.7169 169.364 66.6662C169.557 66.6154 169.731 66.5056 169.865 66.3507C170.042 66.1445 170.135 65.8731 170.123 65.5955C170.111 65.3179 169.995 65.0565 169.8 64.8683Z" fill="black"/>
<path d="M175.544 85.084C175.476 85.0176 175.396 84.966 175.309 84.9323C175.222 84.8987 175.129 84.8837 175.036 84.8881C174.943 84.8925 174.852 84.9163 174.768 84.9582C174.684 85 174.609 85.0589 174.547 85.1316C174.453 85.2399 174.391 85.375 174.37 85.52C174.349 85.6649 174.37 85.8131 174.429 85.9458C174.488 86.0785 174.584 86.1899 174.703 86.2657C174.823 86.3415 174.961 86.3784 175.1 86.3718C175.24 86.3651 175.374 86.3152 175.487 86.2283C175.599 86.1414 175.684 86.0215 175.732 85.8836C175.779 85.7458 175.787 85.5963 175.754 85.4539C175.72 85.3116 175.647 85.1829 175.544 85.084Z" fill="black"/>
<path d="M165.455 108.897C165.316 108.764 165.132 108.695 164.944 108.705C164.757 108.714 164.58 108.802 164.454 108.948C164.328 109.094 164.262 109.287 164.271 109.484C164.28 109.681 164.364 109.866 164.503 109.998C164.572 110.064 164.652 110.115 164.74 110.148C164.827 110.181 164.92 110.195 165.013 110.19C165.106 110.186 165.197 110.162 165.281 110.12C165.365 110.078 165.441 110.02 165.503 109.947C165.566 109.875 165.614 109.79 165.645 109.699C165.677 109.607 165.691 109.509 165.686 109.412C165.682 109.314 165.659 109.218 165.619 109.13C165.579 109.042 165.524 108.962 165.455 108.897Z" fill="black"/>
<path d="M160.695 78.1211C160.626 78.0555 160.546 78.0046 160.459 77.9715C160.372 77.9384 160.279 77.9236 160.187 77.928C160.094 77.9324 160.003 77.956 159.919 77.9973C159.835 78.0386 159.76 78.0968 159.698 78.1687C159.571 78.3148 159.506 78.5075 159.515 78.7046C159.524 78.9016 159.607 79.0867 159.746 79.2193C159.885 79.3518 160.069 79.4209 160.256 79.4114C160.444 79.4018 160.62 79.3143 160.747 79.1683C160.809 79.096 160.857 79.0115 160.888 78.9197C160.919 78.828 160.932 78.7307 160.927 78.6334C160.923 78.5362 160.9 78.4409 160.86 78.353C160.82 78.2651 160.764 78.1863 160.695 78.1211Z" fill="black"/>
<path d="M172.164 89.3135C172.09 89.2447 171.999 89.2003 171.901 89.1859C171.804 89.1715 171.704 89.1878 171.616 89.2327C171.527 89.2776 171.453 89.3491 171.403 89.4381C171.353 89.5272 171.329 89.6299 171.334 89.7331C171.34 89.8364 171.374 89.9357 171.433 90.0185C171.492 90.1012 171.573 90.1638 171.666 90.1982C171.759 90.2326 171.86 90.2373 171.955 90.2117C172.051 90.1862 172.137 90.1315 172.203 90.0547C172.247 90.0034 172.28 89.9435 172.302 89.8785C172.324 89.8134 172.334 89.7445 172.33 89.6756C172.326 89.6067 172.31 89.5393 172.281 89.4771C172.253 89.415 172.213 89.3594 172.164 89.3135Z" fill="black"/>
<path d="M163.441 107.19C163.367 107.119 163.275 107.073 163.176 107.057C163.077 107.041 162.976 107.056 162.886 107.101C162.795 107.145 162.719 107.217 162.667 107.307C162.615 107.396 162.59 107.5 162.595 107.605C162.599 107.71 162.633 107.811 162.693 107.896C162.752 107.98 162.834 108.044 162.928 108.08C163.022 108.116 163.124 108.121 163.221 108.096C163.318 108.071 163.406 108.016 163.473 107.938C163.518 107.887 163.554 107.827 163.577 107.762C163.599 107.696 163.61 107.627 163.607 107.557C163.604 107.487 163.587 107.419 163.559 107.356C163.53 107.293 163.49 107.237 163.441 107.19Z" fill="black"/>
</g>
<path d="M172.455 39.4304H161.472V41.8443H172.455V39.4304Z" fill="white"/>
<path d="M172.455 39.4303C168.79 39.5459 165.111 39.6547 161.446 39.6683L161.673 39.4303V41.8375L161.433 41.5859C164.671 41.5859 169.204 41.6335 172.442 41.7491L172.352 41.8375L172.442 39.4303H172.455ZM172.455 39.4303L172.539 41.8375V41.9259C170.681 41.9938 168.822 42.021 166.964 42.055L161.472 42.0958H161.226V41.8375C161.226 41.6947 161.226 39.2399 161.226 39.1855H161.453C165.047 39.1855 168.887 39.3011 172.462 39.4235L172.455 39.4303Z" fill="#263238"/>
<path d="M172.455 36.6289H161.472V39.0428H172.455V36.6289Z" fill="white"/>
<path d="M172.455 36.6289C168.79 36.7513 165.111 36.8601 161.446 36.8737L161.673 36.6289V39.0428L161.433 38.7912C164.671 38.7912 169.204 38.8388 172.442 38.9544L172.352 39.0428L172.442 36.6289H172.455ZM172.455 36.6289L172.539 39.0428V39.1312C170.681 39.1992 168.822 39.2196 166.964 39.2604H161.472H161.226V39.002C161.226 38.8592 161.226 36.4045 161.226 36.3501H161.453C165.047 36.3501 168.887 36.4725 172.462 36.5881L172.455 36.6289Z" fill="#263238"/>
<path d="M165.429 104.729C169.238 104.729 172.326 99.5866 172.326 93.2437C172.326 86.9008 169.238 81.7589 165.429 81.7589C161.62 81.7589 158.532 86.9008 158.532 93.2437C158.532 99.5866 161.62 104.729 165.429 104.729Z" fill="white"/>
<path d="M171.659 54.9203H162.268V59.5509H171.659V54.9203Z" fill="#455A64"/>
<path d="M178.407 89.5106H155.521V96.9768H178.407V89.5106Z" fill="#455A64"/>
<path d="M340.163 62.6102H367.026L374.997 70.7699H348.135L340.163 62.6102Z" fill="#B3D74C"/>
<path opacity="0.1" d="M340.163 62.6102H367.026L374.997 70.7699H348.135L340.163 62.6102Z" fill="black"/>
<path d="M368.308 111.296H352.196C351.431 111.296 352.196 85.7429 352.196 82.8938C352.196 80.0447 356.858 72.6942 356.858 71.0623V57.9591H363.652V71.0419C363.652 72.6534 368.308 80.0379 368.308 82.8734C368.308 85.7089 369.072 111.296 368.308 111.296Z" fill="white"/>
<path d="M368.308 111.297L353.413 111.358H352.215C352.189 111.364 352.163 111.364 352.137 111.358C352.008 111.303 352.001 111.099 351.969 110.991C351.49 104.871 351.826 98.751 351.846 92.5904L351.995 83.6759C351.997 82.1608 352.346 80.6683 353.012 79.3241C354.074 76.5294 355.874 73.9523 356.612 71.0624C356.612 70.5184 356.612 69.6548 356.612 69.1108C356.612 65.4186 356.612 61.6311 356.612 57.966V57.728H356.839H363.632H363.833V57.9388C363.833 61.1347 363.833 66.7173 363.788 69.8452V70.6952C363.788 72.0959 364.642 73.2927 365.18 74.5642C366.015 76.3866 367.31 78.8413 367.939 80.7316C368.321 81.8178 368.482 82.976 368.411 84.1315L368.625 97.731C368.625 101.131 368.69 104.531 368.625 107.931C368.616 108.922 368.556 109.911 368.444 110.895C368.444 111.031 368.444 111.201 368.301 111.283L368.308 111.297ZM368.308 111.297C368.424 111.215 368.418 111.038 368.45 110.909C368.554 109.925 368.606 108.935 368.606 107.944C368.657 104.544 368.606 101.145 368.541 97.7446C368.496 96.8131 368.237 82.8872 368.165 82.452C367.788 80.8106 367.202 79.2302 366.423 77.7533L364.947 74.7206C364.403 73.4627 363.509 72.1707 363.496 70.7224C363.496 70.124 363.496 68.764 363.496 68.1657C363.496 65.9489 363.496 60.2439 363.457 57.966L363.658 58.17H356.865L357.085 57.9388C357.085 60.9126 357.085 63.8841 357.085 66.8533C357.085 67.9209 357.085 69.7228 357.085 70.7564C357.085 71.7899 356.58 72.6331 356.23 73.4763C355.291 75.4754 354.248 77.4269 353.381 79.4533C352.817 80.8132 352.267 82.1732 352.364 83.6623C352.228 92.2912 351.716 101.825 352.073 110.399C352.088 110.669 352.133 110.936 352.209 111.195C352.209 111.229 352.319 111.195 352.396 111.195H355.582L368.321 111.249L368.308 111.297Z" fill="#263238"/>
<path d="M367.123 109.658H353.368C352.72 109.658 353.368 85.5798 353.368 83.1387C353.368 80.6976 357.901 73.2722 357.901 71.8987V65.8877H362.602V71.8987C362.602 73.2586 367.136 80.7384 367.136 83.1387C367.136 85.539 367.77 109.658 367.123 109.658Z" fill="#B3D74C"/>
<g opacity="0.1">
<path d="M366.371 91.9104C366.266 91.8115 366.134 91.7477 365.994 91.727C365.854 91.7062 365.711 91.7295 365.583 91.7938C365.455 91.8582 365.348 91.9607 365.276 92.0886C365.203 92.2165 365.169 92.364 365.176 92.5125C365.183 92.6611 365.232 92.8042 365.316 92.9237C365.401 93.0433 365.517 93.134 365.65 93.1844C365.783 93.2349 365.928 93.2429 366.065 93.2073C366.203 93.1718 366.327 93.0944 366.423 92.9848C366.552 92.835 366.619 92.6378 366.609 92.4364C366.599 92.235 366.514 92.0458 366.371 91.9104Z" fill="black"/>
<path d="M362.305 74.6322C362.199 74.5333 362.067 74.4695 361.927 74.4488C361.787 74.428 361.644 74.4513 361.516 74.5156C361.388 74.58 361.281 74.6825 361.209 74.8104C361.137 74.9383 361.102 75.0858 361.109 75.2343C361.116 75.3829 361.165 75.526 361.249 75.6455C361.334 75.7651 361.45 75.8558 361.583 75.9062C361.716 75.9567 361.861 75.9646 361.998 75.9291C362.136 75.8936 362.261 75.8162 362.356 75.7066C362.421 75.6328 362.471 75.5463 362.503 75.4522C362.535 75.358 362.55 75.258 362.545 75.158C362.54 75.058 362.516 74.96 362.475 74.8698C362.434 74.7795 362.376 74.6988 362.305 74.6322Z" fill="black"/>
<path d="M366.469 89.2653C366.397 89.1904 366.306 89.1395 366.207 89.119C366.107 89.0985 366.005 89.1093 365.911 89.15C365.818 89.1908 365.738 89.2596 365.682 89.3479C365.626 89.4362 365.596 89.5399 365.596 89.6461C365.596 89.7522 365.626 89.8559 365.682 89.9442C365.738 90.0325 365.818 90.1014 365.911 90.1421C366.005 90.1828 366.107 90.1936 366.207 90.1731C366.306 90.1526 366.397 90.1017 366.469 90.0269C366.516 89.9769 366.554 89.9176 366.58 89.8523C366.606 89.7869 366.619 89.7168 366.619 89.6461C366.619 89.5753 366.606 89.5052 366.58 89.4399C366.554 89.3745 366.516 89.3152 366.469 89.2653Z" fill="black"/>
<path d="M359.157 106.51C359.056 106.42 358.925 106.376 358.794 106.386C358.662 106.395 358.539 106.458 358.45 106.561C358.361 106.664 358.314 106.799 358.318 106.937C358.321 107.076 358.376 107.208 358.471 107.305C358.52 107.356 358.578 107.395 358.642 107.422C358.707 107.448 358.775 107.461 358.844 107.459C358.913 107.456 358.981 107.44 359.043 107.409C359.106 107.379 359.162 107.336 359.208 107.282C359.254 107.229 359.29 107.166 359.312 107.097C359.335 107.029 359.344 106.957 359.339 106.885C359.335 106.812 359.316 106.742 359.285 106.678C359.253 106.613 359.21 106.556 359.157 106.51Z" fill="black"/>
<path d="M355.718 84.2267C355.617 84.1314 355.485 84.0816 355.349 84.0879C355.214 84.0943 355.086 84.1563 354.993 84.2607C354.901 84.3662 354.853 84.5057 354.859 84.6485C354.865 84.7913 354.925 84.9257 355.026 85.0222C355.126 85.1187 355.259 85.1693 355.395 85.163C355.531 85.1566 355.659 85.0937 355.751 84.9882C355.842 84.8822 355.889 84.7429 355.883 84.6005C355.877 84.4581 355.818 84.3238 355.718 84.2267Z" fill="black"/>
<path d="M364.021 92.332C363.986 92.2956 363.944 92.267 363.899 92.248C363.853 92.2289 363.804 92.2197 363.755 92.2211C363.706 92.2224 363.658 92.2342 363.613 92.2558C363.568 92.2773 363.528 92.3082 363.496 92.3464C363.463 92.3847 363.437 92.4296 363.422 92.4784C363.406 92.5272 363.399 92.5789 363.403 92.6303C363.407 92.6817 363.42 92.7318 363.443 92.7776C363.466 92.8233 363.497 92.8638 363.535 92.8964C363.604 92.9658 363.695 93.0046 363.791 93.0046C363.886 93.0046 363.978 92.9658 364.047 92.8964C364.082 92.8589 364.111 92.8138 364.129 92.7642C364.147 92.7145 364.155 92.6614 364.153 92.6082C364.151 92.555 364.137 92.5029 364.115 92.4554C364.092 92.4078 364.06 92.3658 364.021 92.332Z" fill="black"/>
<path d="M357.707 105.279C357.635 105.21 357.541 105.174 357.444 105.179C357.348 105.183 357.257 105.228 357.192 105.303C357.127 105.377 357.092 105.476 357.096 105.578C357.101 105.679 357.143 105.775 357.214 105.843C357.286 105.912 357.38 105.948 357.477 105.943C357.573 105.939 357.664 105.894 357.729 105.819C357.795 105.745 357.829 105.646 357.825 105.544C357.82 105.443 357.778 105.347 357.707 105.279Z" fill="black"/>
</g>
<path d="M364.228 56.2117H356.275V57.9592H364.228V56.2117Z" fill="white"/>
<path d="M364.228 56.2116C361.56 56.3272 358.924 56.436 356.275 56.4496L356.502 56.2116V57.9591L356.256 57.7007C358.607 57.7007 361.897 57.7483 364.208 57.8639L364.124 57.9591L364.208 56.2116H364.228ZM364.228 56.2116L364.312 57.9591V58.0407C362.959 58.1087 361.599 58.1359 360.245 58.1699L356.269 58.2107H356.023C356.023 57.8639 356.023 56.3204 356.023 55.9668C358.691 55.9668 361.566 56.0824 364.195 56.2116H364.228Z" fill="#263238"/>
<path d="M364.228 54.1853H356.275V55.9328H364.228V54.1853Z" fill="white"/>
<path d="M364.228 54.1853C361.56 54.3009 358.924 54.4097 356.275 54.4233L356.502 54.1853V55.9328L356.256 55.6744C358.607 55.6744 361.897 55.722 364.208 55.8444L364.124 55.9328L364.208 54.1853H364.228ZM364.228 54.1853L364.312 55.9328V56.0144C362.959 56.0892 361.599 56.1096 360.245 56.1504H356.269H356.023C356.023 55.7968 356.023 54.2601 356.023 53.9065C358.691 53.9065 361.566 54.0153 364.195 54.1445L364.228 54.1853Z" fill="#263238"/>
<path d="M359.144 103.49C361.902 103.49 364.137 99.7671 364.137 95.1743C364.137 90.5814 361.902 86.8582 359.144 86.8582C356.387 86.8582 354.151 90.5814 354.151 95.1743C354.151 99.7671 356.387 103.49 359.144 103.49Z" fill="white"/>
<path d="M363.658 67.4244H356.858V70.7767H363.658V67.4244Z" fill="#455A64"/>
<path d="M368.541 92.4747H351.969V97.8806H368.541V92.4747Z" fill="#455A64"/>
<path d="M379.867 111.296H363.729C362.965 111.296 363.729 85.7429 363.729 82.8938C363.729 80.0447 368.385 72.6942 368.385 71.0623V57.9591H375.179V71.0419C375.179 72.6534 379.841 80.0379 379.841 82.8734C379.841 85.7089 380.625 111.296 379.867 111.296Z" fill="white"/>
<path d="M379.867 111.297C375.334 111.297 368.172 111.358 363.723 111.351C363.503 111.195 363.541 110.671 363.49 110.426C363.282 107.455 363.334 104.476 363.334 101.505C363.334 96.3575 363.509 88.8981 363.58 83.6691C363.583 82.154 363.931 80.6615 364.597 79.3173C365.666 76.5226 367.459 73.9454 368.198 71.0555C368.198 69.886 368.198 68.05 368.198 66.8737C368.198 63.9022 368.198 60.9307 368.198 57.9592V57.7212H368.424H375.218H375.386V57.932C375.386 61.1279 375.386 66.7105 375.341 69.8384V70.6884C375.341 72.0891 376.195 73.2859 376.726 74.5574C377.748 76.5612 378.669 78.6198 379.485 80.7248C379.869 81.8105 380.033 82.9687 379.964 84.1247L380.178 97.7242C380.211 101.124 380.243 104.524 380.178 107.924C380.172 108.915 380.113 109.904 380.003 110.889C380.003 111.025 380.003 111.195 379.861 111.276L379.867 111.297ZM379.867 111.297C379.977 111.215 379.971 111.038 380.003 110.909C380.109 109.925 380.163 108.935 380.165 107.944C380.211 104.544 380.165 101.144 380.094 97.7446C380.055 96.813 379.79 82.8871 379.718 82.4519C379.344 80.8109 378.76 79.2304 377.983 77.7533L376.506 74.7206C375.962 73.4627 375.069 72.1707 375.056 70.7223C375.056 70.124 375.056 68.764 375.056 68.1656C375.056 65.9489 375.056 60.2439 375.017 57.966L375.218 58.17H368.424L368.651 57.9388C368.651 60.9126 368.651 63.884 368.651 66.8533C368.651 67.9208 368.651 69.7228 368.651 70.7563C368.651 71.7899 368.146 72.6331 367.796 73.4762C366.864 75.4754 365.814 77.4269 364.953 79.4532C364.39 80.8132 363.839 82.1731 363.936 83.6623C363.8 92.2912 363.289 101.824 363.645 110.399C363.655 110.669 363.698 110.936 363.775 111.195C363.775 111.229 363.885 111.195 363.962 111.195H367.149L379.893 111.249L379.867 111.297Z" fill="#263238"/>
<path d="M378.676 109.658H364.94C364.293 109.658 364.94 85.5798 364.94 83.1387C364.94 80.6976 369.473 73.2722 369.473 71.8987V65.8877H374.175V71.8987C374.175 73.2586 378.708 80.7384 378.708 83.1387C378.708 85.539 379.33 109.658 378.676 109.658Z" fill="#B3D74C"/>
<g opacity="0.1">
<path d="M377.931 91.9104C377.825 91.8084 377.693 91.7418 377.551 91.7188C377.409 91.6958 377.264 91.7175 377.134 91.7812C377.004 91.8448 376.895 91.9476 376.82 92.0765C376.746 92.2054 376.71 92.3545 376.716 92.5051C376.722 92.6557 376.771 92.8009 376.856 92.9224C376.941 93.0438 377.058 93.1361 377.193 93.1874C377.328 93.2388 377.475 93.2469 377.614 93.2108C377.754 93.1748 377.88 93.0961 377.976 92.9847C378.106 92.8358 378.174 92.6391 378.165 92.4377C378.157 92.2363 378.072 92.0467 377.931 91.9104Z" fill="black"/>
<path d="M373.864 74.6322C373.758 74.5302 373.626 74.4636 373.484 74.4406C373.342 74.4176 373.197 74.4393 373.067 74.503C372.937 74.5666 372.828 74.6694 372.753 74.7983C372.679 74.9272 372.643 75.0763 372.649 75.2269C372.655 75.3775 372.704 75.5227 372.789 75.6442C372.874 75.7656 372.992 75.8579 373.127 75.9092C373.261 75.9606 373.408 75.9687 373.547 75.9326C373.687 75.8966 373.813 75.8179 373.909 75.7065C373.974 75.6332 374.025 75.5471 374.058 75.4531C374.09 75.3592 374.105 75.2594 374.101 75.1594C374.097 75.0594 374.074 74.9613 374.033 74.8708C373.992 74.7803 373.935 74.6992 373.864 74.6322Z" fill="black"/>
<path d="M378.022 89.2653C377.946 89.1947 377.853 89.1492 377.753 89.1344C377.653 89.1196 377.551 89.1362 377.46 89.1822C377.369 89.2282 377.293 89.3014 377.241 89.3927C377.19 89.4839 377.165 89.5892 377.17 89.6951C377.176 89.801 377.211 89.9028 377.271 89.9878C377.332 90.0728 377.415 90.1371 377.51 90.1726C377.605 90.208 377.708 90.2131 377.806 90.1872C377.904 90.1613 377.993 90.1055 378.061 90.0269C378.106 89.9743 378.141 89.9129 378.163 89.8461C378.186 89.7792 378.196 89.7084 378.192 89.6376C378.189 89.5668 378.172 89.4974 378.142 89.4335C378.113 89.3697 378.072 89.3125 378.022 89.2653Z" fill="black"/>
<path d="M370.717 106.51C370.642 106.438 370.549 106.392 370.449 106.376C370.349 106.36 370.247 106.376 370.155 106.421C370.064 106.466 369.987 106.539 369.935 106.629C369.883 106.72 369.857 106.825 369.862 106.931C369.866 107.037 369.901 107.139 369.96 107.225C370.02 107.31 370.103 107.375 370.197 107.412C370.292 107.448 370.395 107.454 370.494 107.429C370.592 107.404 370.681 107.349 370.749 107.271C370.795 107.219 370.83 107.158 370.853 107.091C370.877 107.025 370.887 106.954 370.884 106.883C370.881 106.812 370.865 106.743 370.836 106.679C370.807 106.615 370.767 106.557 370.717 106.51Z" fill="black"/>
<path d="M367.272 84.2267C367.171 84.1314 367.038 84.0816 366.902 84.0879C366.767 84.0943 366.639 84.1563 366.546 84.2607C366.476 84.3397 366.43 84.4389 366.414 84.5455C366.398 84.6522 366.412 84.7615 366.455 84.8595C366.498 84.9576 366.568 85.0399 366.656 85.0961C366.744 85.1522 366.846 85.1796 366.949 85.1748C367.051 85.17 367.15 85.1332 367.233 85.069C367.316 85.0049 367.379 84.9163 367.413 84.8146C367.448 84.7129 367.453 84.6027 367.428 84.498C367.402 84.3933 367.348 84.2988 367.272 84.2267Z" fill="black"/>
<path d="M375.574 92.3319C375.506 92.2609 375.414 92.2211 375.318 92.2211C375.222 92.2211 375.13 92.2609 375.062 92.3319C375.003 92.4076 374.974 92.5042 374.981 92.6017C374.988 92.6992 375.031 92.7901 375.1 92.8556C375.169 92.9212 375.259 92.9563 375.352 92.9538C375.445 92.9512 375.534 92.9112 375.6 92.8419C375.656 92.7687 375.685 92.6759 375.68 92.5817C375.675 92.4875 375.637 92.3985 375.574 92.3319Z" fill="black"/>
<path d="M369.26 105.279C369.188 105.217 369.096 105.186 369.003 105.194C368.91 105.201 368.823 105.246 368.761 105.318C368.699 105.391 368.665 105.486 368.667 105.583C368.67 105.681 368.708 105.774 368.774 105.843C368.843 105.913 368.934 105.951 369.03 105.951C369.125 105.951 369.217 105.913 369.286 105.843C369.322 105.806 369.35 105.76 369.368 105.711C369.386 105.661 369.394 105.608 369.392 105.555C369.39 105.502 369.377 105.45 369.354 105.402C369.331 105.355 369.299 105.312 369.26 105.279Z" fill="black"/>
</g>
<path d="M375.787 56.2117H367.835V57.9592H375.787V56.2117Z" fill="white"/>
<path d="M375.788 56.2116C373.113 56.3272 370.477 56.436 367.835 56.4496L368.062 56.2116V57.9591L367.822 57.7007C370.166 57.7007 373.463 57.7483 375.775 57.8639L375.684 57.9591L375.775 56.2116H375.788ZM375.788 56.2116L375.872 57.9591V58.0407C374.518 58.1087 373.165 58.1359 371.811 58.1699L367.835 58.2107H367.615C367.615 58.1223 367.615 56.3612 367.615 56.2116V55.9668H367.841C370.432 55.9668 373.242 56.0824 375.794 56.2048L375.788 56.2116Z" fill="#263238"/>
<path d="M375.787 54.1853H367.835V55.9328H375.787V54.1853Z" fill="white"/>
<path d="M375.787 54.1853C373.113 54.3009 370.477 54.4097 367.835 54.4233L368.062 54.1853V55.9328L367.822 55.6744C370.166 55.6744 373.463 55.722 375.775 55.8444L375.684 55.9328L375.775 54.1853H375.787ZM375.787 54.1853L375.872 55.9328V56.0144C374.518 56.0892 373.165 56.1096 371.811 56.1504H367.835H367.615C367.615 55.7968 367.615 54.2601 367.615 53.9065C370.283 53.9065 373.165 54.0153 375.794 54.1445L375.787 54.1853Z" fill="#263238"/>
<path d="M370.704 103.49C373.461 103.49 375.697 99.7671 375.697 95.1743C375.697 90.5814 373.461 86.8582 370.704 86.8582C367.946 86.8582 365.711 90.5814 365.711 95.1743C365.711 99.7671 367.946 103.49 370.704 103.49Z" fill="white"/>
<path d="M375.211 67.4244H368.411V70.7767H375.211V67.4244Z" fill="#455A64"/>
<path d="M380.094 92.4747H363.522V97.8806H380.094V92.4747Z" fill="#455A64"/>
<path d="M391.42 111.296H375.308C374.551 111.296 375.308 85.7429 375.308 82.8938C375.308 80.0447 379.971 72.6942 379.971 71.0623V57.9591H386.764V71.0419C386.764 72.6534 391.42 80.0379 391.42 82.8734C391.42 85.7089 392.185 111.296 391.42 111.296Z" fill="white"/>
<path d="M391.42 111.297L376.526 111.358H375.386C375.36 111.364 375.334 111.364 375.308 111.358C375.179 111.303 375.179 111.099 375.14 110.991C374.661 104.871 374.997 98.751 375.017 92.5904L375.166 83.6759C375.168 82.1608 375.517 80.6683 376.182 79.3241C377.245 76.5294 379.045 73.9523 379.783 71.0624C379.783 70.5184 379.783 69.6548 379.783 69.1108C379.783 65.4186 379.783 61.6311 379.783 57.966V57.728H380.01H386.803H387.004V57.9388C387.004 61.1347 387.004 66.7173 386.959 69.8452V70.6952C386.959 72.0959 387.813 73.2927 388.351 74.5642C389.37 76.5694 390.291 78.6279 391.11 80.7316C391.492 81.8178 391.653 82.976 391.582 84.1315L391.796 97.731C391.828 101.131 391.861 104.531 391.796 107.931C391.791 108.922 391.73 109.912 391.615 110.895C391.582 111.031 391.615 111.201 391.472 111.283L391.42 111.297ZM391.42 111.297C391.537 111.215 391.531 111.038 391.563 110.909C391.667 109.925 391.718 108.935 391.718 107.944C391.77 104.544 391.718 101.145 391.654 97.7446C391.608 96.8131 391.349 82.8872 391.278 82.452C390.901 80.8106 390.315 79.2302 389.536 77.7533L388.059 74.7206C387.522 73.4627 386.622 72.1707 386.609 70.7224C386.609 70.124 386.609 68.764 386.609 68.1657C386.609 65.9489 386.576 60.2439 386.57 57.966L386.771 58.17H379.977L380.198 57.9388C380.198 60.9126 380.198 63.8841 380.198 66.8533C380.198 67.9209 380.198 69.7228 380.198 70.7564C380.198 71.7899 379.692 72.6331 379.343 73.4763C378.404 75.4754 377.361 77.4269 376.493 79.4533C375.93 80.8132 375.38 82.1732 375.477 83.6623C375.341 92.2912 374.829 101.825 375.185 110.399C375.2 110.669 375.246 110.936 375.321 111.195C375.321 111.229 375.431 111.195 375.509 111.195H378.695L391.433 111.249L391.42 111.297Z" fill="#263238"/>
<path d="M390.235 109.658H376.493C375.846 109.658 376.493 85.5798 376.493 83.1387C376.493 80.6976 381.027 73.2722 381.027 71.8987V65.8877H385.748V71.8987C385.748 73.2586 390.281 80.7384 390.281 83.1387C390.281 85.539 390.883 109.658 390.235 109.658Z" fill="#B3D74C"/>
<g opacity="0.1">
<path d="M389.484 91.9104C389.378 91.8115 389.247 91.7477 389.107 91.727C388.966 91.7062 388.823 91.7295 388.696 91.7938C388.568 91.8582 388.461 91.9607 388.389 92.0886C388.316 92.2165 388.281 92.364 388.289 92.5125C388.296 92.6611 388.345 92.8042 388.429 92.9237C388.513 93.0433 388.629 93.134 388.763 93.1844C388.896 93.2349 389.04 93.2429 389.178 93.2073C389.316 93.1718 389.44 93.0944 389.536 92.9848C389.665 92.835 389.731 92.6378 389.722 92.4364C389.712 92.235 389.627 92.0458 389.484 91.9104Z" fill="black"/>
<path d="M385.417 74.6322C385.311 74.5333 385.18 74.4695 385.04 74.4488C384.899 74.428 384.756 74.4513 384.629 74.5156C384.501 74.58 384.394 74.6825 384.322 74.8104C384.249 74.9383 384.214 75.0858 384.222 75.2343C384.229 75.3829 384.278 75.526 384.362 75.6455C384.446 75.7651 384.562 75.8558 384.696 75.9062C384.829 75.9567 384.974 75.9646 385.111 75.9291C385.249 75.8936 385.373 75.8162 385.469 75.7066C385.534 75.6328 385.583 75.5463 385.616 75.4522C385.648 75.358 385.662 75.258 385.657 75.158C385.653 75.058 385.629 74.96 385.588 74.8698C385.546 74.7795 385.489 74.6988 385.417 74.6322Z" fill="black"/>
<path d="M389.581 89.2654C389.507 89.194 389.413 89.1476 389.313 89.1318C389.214 89.1161 389.111 89.1317 389.02 89.1768C388.928 89.2219 388.852 89.2944 388.8 89.3852C388.747 89.476 388.722 89.581 388.726 89.687C388.731 89.793 388.765 89.8952 388.825 89.9807C388.885 90.0663 388.967 90.1313 389.062 90.1677C389.157 90.204 389.26 90.2101 389.358 90.185C389.456 90.16 389.545 90.105 389.614 90.0269C389.659 89.9748 389.695 89.9137 389.718 89.8471C389.741 89.7806 389.751 89.7098 389.748 89.6391C389.745 89.5683 389.729 89.4988 389.7 89.4347C389.672 89.3705 389.631 89.313 389.581 89.2654Z" fill="black"/>
<path d="M382.27 106.51C382.169 106.42 382.038 106.376 381.906 106.386C381.775 106.395 381.651 106.458 381.563 106.561C381.474 106.664 381.426 106.799 381.43 106.937C381.434 107.076 381.489 107.208 381.583 107.305C381.633 107.356 381.691 107.395 381.755 107.422C381.819 107.448 381.888 107.461 381.957 107.459C382.026 107.456 382.093 107.44 382.156 107.409C382.218 107.379 382.275 107.336 382.321 107.282C382.367 107.229 382.403 107.166 382.425 107.097C382.448 107.029 382.457 106.957 382.452 106.885C382.447 106.812 382.429 106.742 382.397 106.678C382.366 106.613 382.323 106.556 382.27 106.51Z" fill="black"/>
<path d="M378.831 84.2267C378.73 84.1314 378.598 84.0816 378.462 84.0879C378.326 84.0943 378.198 84.1563 378.106 84.2607C378.014 84.3662 377.966 84.5057 377.972 84.6485C377.978 84.7913 378.038 84.9257 378.138 85.0222C378.239 85.1187 378.372 85.1693 378.508 85.163C378.644 85.1566 378.772 85.0937 378.864 84.9882C378.954 84.8822 379.002 84.7429 378.996 84.6005C378.99 84.4581 378.931 84.3238 378.831 84.2267Z" fill="black"/>
<path d="M387.133 92.332C387.099 92.2956 387.057 92.267 387.012 92.248C386.966 92.2289 386.917 92.2197 386.868 92.2211C386.819 92.2224 386.77 92.2342 386.726 92.2558C386.681 92.2773 386.641 92.3082 386.608 92.3464C386.575 92.3847 386.55 92.4296 386.534 92.4784C386.518 92.5272 386.512 92.5789 386.516 92.6303C386.519 92.6817 386.533 92.7318 386.556 92.7776C386.578 92.8233 386.61 92.8638 386.648 92.8964C386.716 92.9658 386.808 93.0046 386.903 93.0046C386.999 93.0046 387.091 92.9658 387.159 92.8964C387.195 92.8589 387.223 92.8138 387.242 92.7642C387.26 92.7145 387.268 92.6614 387.266 92.6082C387.263 92.555 387.25 92.5029 387.227 92.4554C387.205 92.4078 387.173 92.3658 387.133 92.332Z" fill="black"/>
<path d="M380.819 105.279C380.748 105.21 380.654 105.174 380.557 105.179C380.461 105.183 380.37 105.228 380.304 105.303C380.239 105.377 380.205 105.476 380.209 105.578C380.213 105.679 380.256 105.775 380.327 105.843C380.398 105.912 380.493 105.948 380.589 105.943C380.686 105.939 380.777 105.894 380.842 105.819C380.907 105.745 380.942 105.646 380.937 105.544C380.933 105.443 380.891 105.347 380.819 105.279Z" fill="black"/>
</g>
<path d="M387.341 56.2117H379.388V57.9592H387.341V56.2117Z" fill="white"/>
<path d="M387.341 56.2116C384.673 56.3272 382.037 56.436 379.388 56.4496L379.615 56.2116V57.9591L379.369 57.7007C381.719 57.7007 385.009 57.7483 387.321 57.8639L387.237 57.9591L387.321 56.2116H387.341ZM387.341 56.2116L387.425 57.9591V58.0407C386.071 58.1087 384.711 58.1359 383.358 58.1699L379.382 58.2107H379.142C379.142 57.8639 379.142 56.3204 379.142 55.9668C381.81 55.9668 384.685 56.0824 387.315 56.2116H387.341Z" fill="#263238"/>
<path d="M387.341 54.1853H379.388V55.9328H387.341V54.1853Z" fill="white"/>
<path d="M387.341 54.1853C384.673 54.3009 382.037 54.4097 379.388 54.4233L379.615 54.1853V55.9328L379.369 55.6744C381.719 55.6744 385.009 55.722 387.321 55.8444L387.237 55.9328L387.321 54.1853H387.341ZM387.341 54.1853L387.425 55.9328V56.0144C386.071 56.0892 384.711 56.1096 383.358 56.1504H379.382H379.142C379.142 55.7968 379.142 54.2601 379.142 53.9065C381.81 53.9065 384.685 54.0153 387.315 54.1445L387.341 54.1853Z" fill="#263238"/>
<path d="M382.257 103.49C385.014 103.49 387.25 99.7671 387.25 95.1743C387.25 90.5814 385.014 86.8582 382.257 86.8582C379.499 86.8582 377.264 90.5814 377.264 95.1743C377.264 99.7671 379.499 103.49 382.257 103.49Z" fill="white"/>
<path d="M386.771 67.4244H379.971V70.7767H386.771V67.4244Z" fill="#455A64"/>
<path d="M391.654 92.4747H375.082V97.8806H391.654V92.4747Z" fill="#455A64"/>
<path d="M402.98 111.296H386.868C386.104 111.296 386.868 85.7429 386.868 82.8938C386.868 80.0447 391.524 72.6942 391.524 71.0623V57.9591H398.317V71.0419C398.317 72.6534 402.98 80.0379 402.98 82.8734C402.98 85.7089 403.738 111.296 402.98 111.296Z" fill="white"/>
<path d="M402.98 111.297L388.085 111.358H386.894C386.868 111.364 386.842 111.364 386.816 111.358C386.68 111.303 386.68 111.099 386.648 110.991C386.168 104.871 386.505 98.751 386.518 92.5904L386.667 83.6759C386.669 82.1608 387.018 80.6683 387.684 79.3241C388.752 76.5294 390.546 73.9523 391.284 71.0624C391.284 70.5184 391.284 69.6548 391.284 69.1108C391.284 65.4186 391.252 61.6311 391.284 57.966V57.728H391.511H398.304H398.505V57.9388C398.505 61.1347 398.505 66.7173 398.46 69.8452V70.6952C398.46 72.0959 399.315 73.2927 399.846 74.5642C400.867 76.568 401.788 78.6266 402.604 80.7316C402.989 81.8174 403.152 82.9755 403.084 84.1315L403.297 97.731C403.297 101.131 403.362 104.531 403.297 107.931C403.291 108.922 403.233 109.911 403.123 110.895C403.09 111.031 403.09 111.201 402.98 111.283V111.297ZM402.98 111.297C403.09 111.215 403.084 111.038 403.116 110.909C403.222 109.925 403.276 108.935 403.278 107.944C403.323 104.544 403.278 101.145 403.207 97.7446C403.168 96.8131 402.902 82.8872 402.831 82.452C402.457 80.8109 401.873 79.2304 401.096 77.7533L399.619 74.7206C399.075 73.4627 398.181 72.1707 398.168 70.7224C398.168 70.124 398.168 68.764 398.168 68.1657C398.168 65.9489 398.168 60.2439 398.13 57.966L398.33 58.17H391.537L391.764 57.9388C391.764 60.9126 391.764 63.8841 391.764 66.8533C391.764 67.9209 391.764 69.7228 391.764 70.7564C391.764 71.7899 391.259 72.6331 390.909 73.4763C389.976 75.4754 388.927 77.4269 388.066 79.4533C387.503 80.8132 386.952 82.1732 387.049 83.6623C386.913 92.2912 386.402 101.825 386.758 110.399C386.768 110.669 386.811 110.936 386.887 111.195C386.887 111.229 387.004 111.195 387.075 111.195H390.261L403.006 111.249L402.98 111.297Z" fill="#263238"/>
<path d="M401.789 109.658H388.053C387.405 109.658 388.053 85.5798 388.053 83.1387C388.053 80.6976 392.586 73.2722 392.586 71.8987V65.8877H397.288V71.8987C397.288 73.2586 401.821 80.7384 401.821 83.1387C401.821 85.539 402.443 109.658 401.789 109.658Z" fill="#B3D74C"/>
<g opacity="0.1">
<path d="M401.044 91.9104C400.938 91.8084 400.806 91.7418 400.664 91.7188C400.522 91.6958 400.377 91.7175 400.247 91.7812C400.117 91.8448 400.008 91.9476 399.933 92.0765C399.859 92.2054 399.822 92.3545 399.829 92.5051C399.835 92.6557 399.884 92.8009 399.969 92.9224C400.054 93.0438 400.171 93.1361 400.306 93.1874C400.441 93.2388 400.588 93.2469 400.727 93.2108C400.866 93.1748 400.992 93.0961 401.089 92.9847C401.219 92.8358 401.286 92.6391 401.278 92.4377C401.269 92.2363 401.185 92.0467 401.044 91.9104Z" fill="black"/>
<path d="M396.977 74.6322C396.871 74.5302 396.739 74.4636 396.597 74.4406C396.455 74.4176 396.31 74.4393 396.18 74.503C396.05 74.5666 395.941 74.6694 395.866 74.7983C395.792 74.9272 395.755 75.0763 395.762 75.2269C395.768 75.3775 395.817 75.5227 395.902 75.6442C395.987 75.7656 396.104 75.8579 396.239 75.9092C396.374 75.9606 396.521 75.9687 396.66 75.9326C396.799 75.8966 396.925 75.8179 397.022 75.7065C397.087 75.6332 397.137 75.5471 397.17 75.4531C397.203 75.3592 397.218 75.2594 397.214 75.1594C397.209 75.0594 397.186 74.9613 397.146 74.8708C397.105 74.7803 397.048 74.6992 396.977 74.6322Z" fill="black"/>
<path d="M401.134 89.2653C401.031 89.1697 400.896 89.121 400.759 89.1299C400.622 89.1389 400.494 89.2047 400.403 89.3129C400.312 89.4211 400.265 89.5628 400.274 89.7069C400.282 89.851 400.345 89.9857 400.448 90.0812C400.497 90.1319 400.556 90.1716 400.62 90.198C400.684 90.2243 400.752 90.2368 400.821 90.2347C400.89 90.2325 400.958 90.2158 401.02 90.1855C401.083 90.1552 401.139 90.112 401.185 90.0584C401.232 90.0048 401.267 89.9419 401.29 89.8736C401.312 89.8052 401.321 89.7328 401.317 89.6607C401.312 89.5885 401.293 89.5181 401.262 89.4536C401.231 89.3892 401.187 89.3321 401.134 89.2857V89.2653Z" fill="black"/>
<path d="M393.83 106.509C393.758 106.435 393.667 106.384 393.568 106.363C393.468 106.343 393.366 106.353 393.272 106.394C393.179 106.435 393.099 106.504 393.043 106.592C392.987 106.68 392.957 106.784 392.957 106.89C392.957 106.996 392.987 107.1 393.043 107.188C393.099 107.277 393.179 107.346 393.272 107.386C393.366 107.427 393.468 107.438 393.568 107.417C393.667 107.397 393.758 107.346 393.83 107.271C393.877 107.221 393.915 107.162 393.941 107.096C393.967 107.031 393.98 106.961 393.98 106.89C393.98 106.819 393.967 106.749 393.941 106.684C393.915 106.619 393.877 106.559 393.83 106.509Z" fill="black"/>
<path d="M390.384 84.2267C390.283 84.1314 390.151 84.0816 390.015 84.0879C389.879 84.0943 389.752 84.1563 389.659 84.2607C389.589 84.3397 389.543 84.4389 389.527 84.5455C389.51 84.6522 389.525 84.7615 389.568 84.8595C389.611 84.9576 389.681 85.0399 389.769 85.0961C389.857 85.1522 389.959 85.1796 390.061 85.1748C390.164 85.17 390.263 85.1332 390.346 85.069C390.429 85.0049 390.491 84.9163 390.526 84.8146C390.561 84.7129 390.566 84.6027 390.54 84.498C390.515 84.3933 390.461 84.2988 390.384 84.2267Z" fill="black"/>
<path d="M398.699 92.332C398.649 92.2786 398.584 92.2421 398.514 92.2273C398.443 92.2125 398.37 92.2199 398.304 92.2487C398.238 92.2774 398.181 92.3262 398.141 92.3889C398.101 92.4515 398.08 92.5252 398.08 92.6006C398.08 92.676 398.101 92.7497 398.141 92.8124C398.181 92.875 398.238 92.9238 398.304 92.9526C398.37 92.9814 398.443 92.9888 398.514 92.974C398.584 92.9591 398.649 92.9227 398.699 92.8692C398.766 92.797 398.802 92.7008 398.802 92.6006C398.802 92.5005 398.766 92.4042 398.699 92.332Z" fill="black"/>
<path d="M392.372 105.279C392.3 105.217 392.208 105.186 392.116 105.194C392.023 105.201 391.936 105.246 391.874 105.318C391.811 105.391 391.778 105.486 391.78 105.583C391.783 105.681 391.821 105.774 391.887 105.843C391.955 105.913 392.047 105.951 392.143 105.951C392.238 105.951 392.33 105.913 392.398 105.843C392.434 105.806 392.462 105.76 392.481 105.711C392.499 105.661 392.507 105.608 392.505 105.555C392.502 105.502 392.489 105.45 392.467 105.402C392.444 105.355 392.412 105.312 392.372 105.279Z" fill="black"/>
</g>
<path d="M398.9 56.2117H390.948V57.9592H398.9V56.2117Z" fill="white"/>
<path d="M398.9 56.2116C396.226 56.3272 393.59 56.436 390.948 56.4496L391.174 56.2116V57.9591L390.935 57.7007C393.279 57.7007 396.575 57.7483 398.887 57.8639L398.797 57.9591L398.887 56.2116H398.9ZM398.9 56.2116L398.984 57.9591V58.0407C397.631 58.1087 396.277 58.1359 394.924 58.1699L390.948 58.2107H390.702C390.702 57.8639 390.702 56.3204 390.702 55.9668C393.37 55.9668 396.252 56.0824 398.881 56.2116H398.9Z" fill="#263238"/>
<path d="M398.9 54.1853H390.948V55.9328H398.9V54.1853Z" fill="white"/>
<path d="M398.9 54.1853C396.226 54.3009 393.59 54.4097 390.948 54.4233L391.174 54.1853V55.9328L390.935 55.6744C393.279 55.6744 396.575 55.722 398.887 55.8444L398.797 55.9328L398.887 54.1853H398.9ZM398.9 54.1853L398.984 55.9328V56.0144C397.631 56.0892 396.277 56.1096 394.924 56.1504H390.948H390.702V55.892C390.702 55.7492 390.702 53.9813 390.702 53.9065C393.37 53.9065 396.252 54.0153 398.881 54.1445L398.9 54.1853Z" fill="#263238"/>
<path d="M393.817 86.8582C396.575 86.8582 398.81 90.5844 398.81 95.1743C398.81 99.7641 396.575 103.49 393.817 103.49C391.058 103.49 388.817 99.7709 388.817 95.1743C388.817 90.5776 391.058 86.8582 393.817 86.8582Z" fill="white"/>
<path d="M398.324 67.4244H391.524V70.7767H398.324V67.4244Z" fill="#455A64"/>
<path d="M403.207 92.4747H386.635V97.8806H403.207V92.4747Z" fill="#455A64"/>
<path d="M414.533 111.296H398.421C397.663 111.296 398.421 85.7429 398.421 82.8938C398.421 80.0447 403.084 72.6942 403.084 71.0623V57.9591H409.877V71.0419C409.877 72.6534 414.533 80.0379 414.533 82.8734C414.533 85.7089 415.297 111.296 414.533 111.296Z" fill="white"/>
<path d="M414.533 111.297L399.639 111.358H398.447C398.419 111.364 398.39 111.364 398.363 111.358C398.233 111.303 398.233 111.099 398.194 110.991C397.715 104.871 398.058 98.751 398.071 92.5904L398.22 83.6759C398.223 82.1608 398.571 80.6683 399.237 79.3241C400.299 76.5294 402.099 73.9523 402.838 71.0624C402.838 70.5184 402.838 69.6548 402.838 69.1108C402.838 65.4186 402.838 61.6311 402.838 57.966V57.728H403.064H409.858H410.058V57.9388C410.058 61.1347 410.058 66.7173 410.013 69.8452V70.6952C410.013 72.0959 410.874 73.2927 411.405 74.5642C412.424 76.5694 413.345 78.6279 414.164 80.7316C414.55 81.8168 414.711 82.9758 414.637 84.1315L414.851 97.731C414.851 101.131 414.915 104.531 414.851 107.931C414.845 108.922 414.785 109.912 414.669 110.895C414.669 111.031 414.669 111.201 414.527 111.283L414.533 111.297ZM414.533 111.297C414.65 111.215 414.643 111.038 414.676 110.909C414.779 109.925 414.831 108.935 414.831 107.944C414.883 104.544 414.831 101.145 414.766 97.7446C414.721 96.8131 414.462 82.8872 414.391 82.452C414.014 80.8106 413.428 79.2302 412.649 77.7533L411.172 74.7206C410.635 73.4627 409.735 72.1707 409.722 70.7224C409.722 70.124 409.722 68.764 409.722 68.1657C409.722 65.9489 409.722 60.2439 409.683 57.966L409.883 58.17H403.09L403.317 57.9388C403.317 60.9103 403.317 63.8818 403.317 66.8533C403.317 67.9209 403.317 69.7228 403.317 70.7564C403.317 71.7899 402.812 72.6331 402.462 73.4763C401.523 75.4754 400.48 77.4269 399.613 79.4533C399.049 80.8132 398.499 82.1732 398.596 83.6623C398.46 92.2912 397.948 101.825 398.304 110.399C398.319 110.669 398.365 110.936 398.44 111.195C398.44 111.229 398.551 111.195 398.628 111.195H401.814L414.553 111.249L414.533 111.297Z" fill="#263238"/>
<path d="M413.348 109.658H399.613C398.965 109.658 399.613 85.5798 399.613 83.1387C399.613 80.6976 404.146 73.2722 404.146 71.8987V65.8877H408.847V71.8987C408.847 73.2586 413.38 80.7384 413.38 83.1387C413.38 85.539 413.996 109.658 413.348 109.658Z" fill="#B3D74C"/>
<g opacity="0.1">
<path d="M412.597 91.9104C412.491 91.8115 412.36 91.7477 412.219 91.727C412.079 91.7062 411.936 91.7295 411.808 91.7938C411.681 91.8582 411.574 91.9607 411.501 92.0886C411.429 92.2165 411.394 92.364 411.401 92.5125C411.408 92.6611 411.457 92.8042 411.542 92.9237C411.626 93.0433 411.742 93.134 411.875 93.1844C412.009 93.2349 412.153 93.2429 412.291 93.2073C412.428 93.1718 412.553 93.0944 412.649 92.9848C412.777 92.835 412.844 92.6378 412.834 92.4364C412.825 92.235 412.739 92.0458 412.597 91.9104Z" fill="black"/>
<path d="M408.53 74.6322C408.424 74.5333 408.293 74.4695 408.152 74.4488C408.012 74.428 407.869 74.4513 407.741 74.5156C407.614 74.58 407.507 74.6825 407.434 74.8104C407.362 74.9383 407.327 75.0858 407.334 75.2343C407.341 75.3829 407.39 75.526 407.475 75.6455C407.559 75.7651 407.675 75.8558 407.808 75.9062C407.942 75.9567 408.086 75.9646 408.224 75.9291C408.361 75.8936 408.486 75.8162 408.582 75.7066C408.646 75.6328 408.696 75.5463 408.728 75.4522C408.761 75.358 408.775 75.258 408.77 75.158C408.765 75.058 408.742 74.96 408.7 74.8698C408.659 74.7795 408.601 74.6988 408.53 74.6322Z" fill="black"/>
<path d="M412.694 89.2653C412.622 89.1904 412.531 89.1395 412.432 89.119C412.333 89.0985 412.23 89.1093 412.137 89.15C412.043 89.1908 411.964 89.2596 411.908 89.3479C411.851 89.4362 411.822 89.5399 411.822 89.6461C411.822 89.7522 411.851 89.8559 411.908 89.9442C411.964 90.0325 412.043 90.1014 412.137 90.1421C412.23 90.1828 412.333 90.1936 412.432 90.1731C412.531 90.1526 412.622 90.1017 412.694 90.0269C412.742 89.9769 412.78 89.9176 412.806 89.8523C412.831 89.7869 412.845 89.7168 412.845 89.6461C412.845 89.5753 412.831 89.5052 412.806 89.4399C412.78 89.3745 412.742 89.3152 412.694 89.2653Z" fill="black"/>
<path d="M405.383 106.51C405.281 106.42 405.151 106.376 405.019 106.386C404.887 106.395 404.764 106.458 404.675 106.561C404.586 106.664 404.539 106.799 404.543 106.937C404.547 107.076 404.602 107.208 404.696 107.305C404.745 107.356 404.804 107.395 404.868 107.422C404.932 107.448 405.001 107.461 405.07 107.459C405.138 107.456 405.206 107.44 405.269 107.409C405.331 107.379 405.387 107.336 405.434 107.282C405.48 107.229 405.515 107.166 405.538 107.097C405.56 107.029 405.57 106.957 405.565 106.885C405.56 106.812 405.541 106.742 405.51 106.678C405.479 106.613 405.435 106.556 405.383 106.51Z" fill="black"/>
<path d="M401.937 84.2267C401.888 84.1789 401.829 84.1419 401.766 84.1178C401.703 84.0936 401.635 84.0828 401.568 84.086C401.501 84.0891 401.435 84.1062 401.374 84.1362C401.312 84.1662 401.258 84.2085 401.212 84.2607C401.167 84.3129 401.131 84.3741 401.108 84.4406C401.085 84.5072 401.075 84.5778 401.078 84.6485C401.081 84.7192 401.097 84.7887 401.126 84.8528C401.154 84.9169 401.195 84.9745 401.244 85.0223C401.294 85.0703 401.352 85.1075 401.416 85.1318C401.479 85.1561 401.546 85.1669 401.614 85.1638C401.681 85.1606 401.747 85.1435 401.809 85.1134C401.87 85.0833 401.924 85.0407 401.97 84.9883C402.061 84.8822 402.108 84.743 402.102 84.6006C402.096 84.4581 402.037 84.3239 401.937 84.2267Z" fill="black"/>
<path d="M410.246 92.332C410.211 92.2956 410.17 92.267 410.124 92.248C410.079 92.2289 410.03 92.2197 409.981 92.2211C409.932 92.2224 409.883 92.2342 409.839 92.2558C409.794 92.2773 409.754 92.3082 409.721 92.3464C409.688 92.3847 409.663 92.4296 409.647 92.4784C409.631 92.5272 409.625 92.5789 409.628 92.6303C409.632 92.6817 409.646 92.7318 409.668 92.7776C409.691 92.8233 409.722 92.8638 409.76 92.8964C409.829 92.9658 409.921 93.0046 410.016 93.0046C410.112 93.0046 410.203 92.9658 410.272 92.8964C410.308 92.8589 410.336 92.8138 410.354 92.7642C410.373 92.7145 410.381 92.6614 410.378 92.6082C410.376 92.555 410.363 92.5029 410.34 92.4554C410.317 92.4078 410.285 92.3658 410.246 92.332Z" fill="black"/>
<path d="M403.932 105.279C403.864 105.208 403.772 105.168 403.676 105.168C403.58 105.168 403.488 105.208 403.42 105.279C403.381 105.314 403.35 105.357 403.328 105.406C403.306 105.455 403.294 105.508 403.293 105.562C403.292 105.616 403.302 105.67 403.322 105.719C403.343 105.769 403.373 105.813 403.411 105.85C403.449 105.886 403.494 105.914 403.542 105.931C403.591 105.947 403.643 105.953 403.694 105.947C403.745 105.942 403.795 105.924 403.839 105.897C403.883 105.87 403.922 105.833 403.951 105.789C404.009 105.716 404.039 105.624 404.035 105.53C404.032 105.436 403.995 105.346 403.932 105.279Z" fill="black"/>
</g>
<path d="M410.453 56.2117H402.501V57.9592H410.453V56.2117Z" fill="white"/>
<path d="M410.453 56.2116C407.785 56.3272 405.15 56.436 402.501 56.4496L402.728 56.2116V57.9591L402.481 57.7007C404.832 57.7007 408.122 57.7483 410.434 57.8639L410.35 57.9591L410.434 56.2116H410.453ZM410.453 56.2116L410.538 57.9591V58.0407C409.184 58.1087 407.824 58.1359 406.471 58.1699L402.494 58.2107H402.255C402.255 57.8639 402.255 56.3204 402.255 55.9668C404.923 55.9668 407.798 56.0824 410.427 56.2116H410.453Z" fill="#263238"/>
<path d="M410.453 54.1853H402.501V55.9328H410.453V54.1853Z" fill="white"/>
<path d="M410.453 54.1853C407.785 54.3009 405.15 54.4097 402.501 54.4233L402.728 54.1853V55.9328L402.481 55.6744C404.832 55.6744 408.122 55.722 410.434 55.8444L410.35 55.9328L410.434 54.1853H410.453ZM410.453 54.1853L410.538 55.9328V56.0144C409.184 56.0892 407.824 56.1096 406.471 56.1504H402.494H402.255C402.255 55.7968 402.255 54.2601 402.255 53.9065C404.923 53.9065 407.798 54.0153 410.427 54.1445L410.453 54.1853Z" fill="#263238"/>
<path d="M405.37 103.49C408.127 103.49 410.363 99.7671 410.363 95.1743C410.363 90.5814 408.127 86.8582 405.37 86.8582C402.612 86.8582 400.377 90.5814 400.377 95.1743C400.377 99.7671 402.612 103.49 405.37 103.49Z" fill="white"/>
<path d="M409.883 67.4244H403.084V70.7767H409.883V67.4244Z" fill="#455A64"/>
<path d="M414.766 92.4747H398.194V97.8806H414.766V92.4747Z" fill="#455A64"/>
<path d="M416.599 70.7699H348.142V115.132H416.599V70.7699Z" fill="#B3D74C"/>
<path opacity="0.2" d="M416.593 70.7699H389.737V115.138H416.593V70.7699Z" fill="black"/>
<path d="M414.747 112.888C412.752 109.515 410.781 106.131 408.834 102.736L403.006 92.5359L397.255 82.2887C395.347 78.8707 393.454 75.4368 391.576 71.9871C393.566 75.3597 395.537 78.7438 397.488 82.1391L403.317 92.3388L409.061 102.586C410.978 106.036 412.873 109.47 414.747 112.888Z" fill="#B3D74C"/>
<path d="M414.747 71.9871C412.878 75.4368 410.982 78.8684 409.061 82.2819L403.31 92.5292L397.482 102.729C395.535 106.124 393.564 109.508 391.569 112.881C393.443 109.44 395.332 106.006 397.236 102.579L402.987 92.332L408.815 82.1323C410.779 78.737 412.757 75.3552 414.747 71.9871Z" fill="#B3D74C"/>
<path d="M360.478 111.297H360.919V104.81H360.478V111.297Z" fill="#263238"/>
<path d="M359.429 111.297H359.87V104.81H359.429V111.297Z" fill="#263238"/>
<path d="M358.38 111.297H358.82V104.81H358.38V111.297Z" fill="#263238"/>
<path d="M357.325 111.297H357.765V104.81H357.325V111.297Z" fill="#263238"/>
<path d="M356.275 111.297H356.716V104.81H356.275V111.297Z" fill="#263238"/>
<path d="M355.22 111.297H355.66V104.81H355.22V111.297Z" fill="#263238"/>
<path d="M354.171 111.297H354.611V104.81H354.171V111.297Z" fill="#263238"/>
<path d="M353.122 111.297H353.562V104.81H353.122V111.297Z" fill="#263238"/>
<path d="M352.066 111.297H352.506V104.81H352.066V111.297Z" fill="#263238"/>
<path d="M365.219 110.8L363.535 111.297H367.492L365.802 110.793V108.441C367.013 108.271 367.492 107.026 367.492 104.837H363.535C363.535 107.02 364.014 108.237 365.219 108.441V110.8Z" fill="#263238"/>
<path d="M368.411 108.121H369.448V111.297H372.09V108.121H373.126L370.769 104.81L368.411 108.121Z" fill="#263238"/>
<path opacity="0.1" d="M348.135 115.138V111.086L389.737 103.586V115.132L348.135 115.138Z" fill="black"/>
<path d="M424.571 62.6102H397.715L389.737 70.7699H416.599L424.571 62.6102Z" fill="#B3D74C"/>
<path opacity="0.1" d="M424.571 62.6102H397.715L389.737 70.7699H416.599L424.571 62.6102Z" fill="black"/>
</svg>
