<svg width="649" height="622" viewBox="0 0 649 622" fill="none" xmlns="http://www.w3.org/2000/svg">
<path d="M633.113 259.507C632.753 259.282 632.381 259.077 631.998 258.893C626.199 256.136 621.497 258.34 618.731 262.489C615.966 266.637 615.145 268.841 613.209 266.914C611.273 264.986 608.23 262.212 603.814 264.701C599.397 267.19 600.219 269.671 597.764 270.224C595.309 270.777 593.624 268.288 589.752 269.118C585.88 269.947 583.702 272.99 582.838 273.543C581.974 274.096 575.371 276.585 575.371 276.585H661.314C661.314 276.585 659.94 268.806 655.515 266.637C651.09 264.468 647.78 268.288 645.291 269.947C642.801 271.607 642.248 270.224 642.248 270.224C640.665 267.288 638.697 264.576 636.397 262.16" stroke="#263238" stroke-linecap="round" stroke-linejoin="round"/>
<path d="M323.097 268.279C322.739 268.054 322.366 267.852 321.982 267.674C316.183 264.909 311.481 267.121 308.715 271.261C305.95 275.401 305.129 277.622 303.193 275.686C301.257 273.75 298.214 271.002 293.772 273.474C289.33 275.945 290.177 278.452 287.722 278.996C285.268 279.541 283.574 277.052 279.702 277.916C275.83 278.78 273.652 281.779 272.787 282.332C271.923 282.886 265.329 285.375 265.329 285.375H351.272C351.272 285.375 349.89 277.596 345.464 275.427C341.039 273.258 337.738 277.052 335.257 278.728C332.777 280.405 332.215 278.996 332.215 278.996C330.635 276.058 328.667 273.346 326.364 270.933" stroke="#263238" stroke-linecap="round" stroke-linejoin="round"/>
<path d="M116.742 287.242C116.382 287.017 116.01 286.812 115.627 286.628C109.828 283.871 105.126 286.083 102.361 290.223C99.5951 294.363 98.774 296.584 96.838 294.648C94.902 292.712 91.8598 289.947 87.4433 292.436C83.0269 294.925 83.848 297.405 81.3934 297.959C78.9389 298.512 77.2189 296.066 73.3816 296.852C69.5442 297.639 67.3316 300.724 66.4673 301.277C65.6031 301.831 59 304.32 59 304.32H144.944C144.944 304.32 143.561 296.541 139.144 294.372C134.728 292.202 131.366 296.031 128.92 297.682C126.474 299.333 125.878 297.959 125.878 297.959C124.294 295.023 122.327 292.311 120.027 289.895" stroke="#263238" stroke-linecap="round" stroke-linejoin="round"/>
<path d="M311.922 196.518C311.232 196.091 310.519 195.702 309.787 195.352C298.655 190.054 289.649 194.289 284.351 202.266C279.053 210.243 277.437 214.452 273.747 210.744C270.056 207.037 264.24 201.739 255.727 206.509C247.213 211.28 248.812 216.016 244.068 217.105C239.323 218.194 236.116 213.398 228.701 214.988C221.285 216.578 217.033 222.378 215.443 223.467C213.852 224.556 201.13 229.292 201.13 229.292H365.956C365.956 229.292 363.312 214.452 354.825 210.217C346.337 205.982 339.985 213.372 335.257 216.552C330.53 219.733 329.432 217.08 329.432 217.08C326.395 211.444 322.616 206.241 318.197 201.609" stroke="#263238" stroke-linecap="round" stroke-linejoin="round"/>
<path d="M649.113 91.4044C648.753 91.0991 648.381 90.8206 647.998 90.5703C642.199 86.8226 637.497 89.8184 634.731 95.4576C631.966 101.097 631.145 104.093 629.209 101.473C627.273 98.8529 624.23 95.0817 619.814 98.4652C615.397 101.849 616.219 105.22 613.764 105.972C611.309 106.724 609.624 103.341 605.752 104.469C601.88 105.596 599.702 109.732 598.838 110.484C597.974 111.236 591.371 114.619 591.371 114.619H677.314C677.314 114.619 675.94 104.046 671.515 101.097C667.09 98.148 663.78 103.341 661.291 105.596C658.801 107.852 658.248 105.972 658.248 105.972C656.665 101.982 654.697 98.2954 652.397 95.0112" stroke="#263238" stroke-linecap="round" stroke-linejoin="round"/>
<path d="M339.097 103.329C338.739 103.023 338.366 102.748 337.982 102.507C332.183 98.7473 327.481 101.755 324.715 107.382C321.95 113.01 321.129 116.029 319.193 113.397C317.257 110.766 314.214 107.03 309.772 110.39C305.33 113.75 306.177 117.157 303.722 117.897C301.268 118.637 299.574 115.254 295.702 116.429C291.83 117.603 289.652 121.68 288.787 122.432C287.923 123.184 281.329 126.567 281.329 126.567H367.272C367.272 126.567 365.89 115.994 361.464 113.045C357.039 110.096 353.738 115.254 351.257 117.533C348.777 119.812 348.215 117.897 348.215 117.897C346.635 113.903 344.667 110.216 342.364 106.936" stroke="#263238" stroke-linecap="round" stroke-linejoin="round"/>
<path d="M132.742 129.105C132.382 128.8 132.01 128.521 131.627 128.271C125.828 124.523 121.126 127.531 118.361 133.158C115.595 138.786 114.774 141.805 112.838 139.173C110.902 136.542 107.86 132.782 103.443 136.166C99.0269 139.549 99.848 142.921 97.3934 143.673C94.9389 144.425 93.2189 141.1 89.3816 142.169C85.5442 143.238 83.3316 147.432 82.4673 148.184C81.6031 148.936 75 152.32 75 152.32H160.944C160.944 152.32 159.561 141.746 155.144 138.797C150.728 135.848 147.366 141.053 144.92 143.297C142.474 145.541 141.878 143.673 141.878 143.673C140.294 139.682 138.327 135.996 136.027 132.712" stroke="#263238" stroke-linecap="round" stroke-linejoin="round"/>
<path d="M327.922 5.78263C327.232 5.2017 326.519 4.67225 325.787 4.1966C314.655 -3.00512 305.649 2.75156 300.351 13.5953C295.053 24.439 293.437 30.1604 289.747 25.1204C286.056 20.0803 280.24 12.8786 271.727 19.3637C263.213 25.8488 264.812 32.2869 260.068 33.7672C255.323 35.2474 252.116 28.7271 244.701 30.8888C237.285 33.0505 233.033 40.9336 231.443 42.4139C229.852 43.8942 217.13 50.3323 217.13 50.3323H381.956C381.956 50.3323 379.312 30.1604 370.825 24.4037C362.337 18.647 355.985 28.6919 351.257 33.0153C346.53 37.3386 345.432 33.7319 345.432 33.7319C342.395 26.0714 338.616 18.9987 334.197 12.7024" stroke="#263238" stroke-linecap="round" stroke-linejoin="round"/>
<path d="M99.4152 483.511C99.4152 505.377 86.4511 523.095 70.5311 523.095C54.6111 523.095 41.647 505.377 41.647 483.511C41.647 461.645 54.6111 386.522 70.5311 386.522C86.4511 386.522 99.4152 461.654 99.4152 483.511Z" fill="#B3D74C"/>
<path opacity="0.53" d="M99.4152 483.511C99.4152 505.377 86.4511 523.095 70.5311 523.095C54.6111 523.095 41.647 505.377 41.647 483.511C41.647 461.645 54.6111 386.522 70.5311 386.522C86.4511 386.522 99.4152 461.654 99.4152 483.511Z" fill="white"/>
<path d="M54.9222 485.482L64.1354 488.697L68.6988 494.894L67.9037 513.89L62.597 510.286L67.7395 517.823L66.5295 546.517H72.1646L71.4213 503.389L86.7276 494.954L77.9811 498.186L79.7356 492.923L75.5525 499.085L71.3781 500.632L71.0756 483.338L86.2782 463.149L78.1281 471.299L79.5109 465.629L75.613 473.814L70.9978 478.429L70.5311 451.42L68.8717 490.814L54.4728 475.56L62.3809 486.311L54.9222 485.482Z" fill="#B2B2B2"/>
<path d="M86.4165 451.507C86.6378 453.135 86.2125 454.785 85.2319 456.103C84.2512 457.422 82.7933 458.303 81.1704 458.56C80.9445 456.931 81.368 455.279 82.3494 453.959C83.3309 452.64 84.7916 451.759 86.4165 451.507Z" fill="white"/>
<path d="M95.1284 463.736C95.354 465.366 94.9294 467.02 93.9462 468.339C92.9629 469.659 91.5001 470.539 89.8736 470.789C89.6502 469.159 90.0758 467.507 91.0586 466.188C92.0414 464.869 93.5029 463.988 95.1284 463.736Z" fill="white"/>
<path d="M95.1197 487.556C94.782 489.165 93.8256 490.578 92.4564 491.49C91.0873 492.402 89.4149 492.739 87.7993 492.43C88.1329 490.818 89.0884 489.402 90.4587 488.49C91.829 487.577 93.5036 487.242 95.1197 487.556Z" fill="white"/>
<path d="M47.308 487.556C47.7458 489.13 48.6944 490.513 50.0045 491.489C51.4108 492.308 53.0487 492.639 54.663 492.431C54.2354 490.859 53.2993 489.473 52.001 488.489C50.5832 487.667 48.9325 487.339 47.308 487.556Z" fill="white"/>
<path d="M85.0682 477.668C85.2915 479.298 84.866 480.95 83.8832 482.269C82.9004 483.588 81.4389 484.469 79.8134 484.721C79.59 483.091 80.0156 481.439 80.9984 480.12C81.9812 478.801 83.4427 477.921 85.0682 477.668Z" fill="white"/>
<path d="M82.8471 438.197C83.0727 439.827 82.6481 441.481 81.6648 442.8C80.6816 444.12 79.2188 445 77.5923 445.25C77.3689 443.62 77.7944 441.968 78.7773 440.649C79.7601 439.33 81.2216 438.449 82.8471 438.197Z" fill="white"/>
<path d="M77.6614 448.344C77.8849 449.974 77.4596 451.628 76.4769 452.948C75.4943 454.268 74.0327 455.151 72.4066 455.405C72.183 453.774 72.6083 452.121 73.591 450.8C74.5736 449.48 76.0352 448.598 77.6614 448.344Z" fill="white"/>
<path d="M89.9342 440.963C90.16 442.591 89.7365 444.244 88.7551 445.563C87.7736 446.882 86.3129 447.763 84.688 448.015C84.4622 446.386 84.8856 444.734 85.8671 443.415C86.8485 442.095 88.3092 441.215 89.9342 440.963Z" fill="white"/>
<path d="M49.9267 440.963C49.7013 442.594 50.1271 444.249 51.1121 445.568C52.0971 446.888 53.5621 447.767 55.1902 448.015C55.3146 446.391 54.8983 444.771 54.0061 443.409C52.9556 442.163 51.5204 441.302 49.9267 440.963Z" fill="white"/>
<path d="M83.936 425.795C84.1572 427.423 83.732 429.073 82.7513 430.391C81.7707 431.709 80.3127 432.591 78.6898 432.847C78.464 431.218 78.8875 429.566 79.8689 428.247C80.8503 426.927 82.3111 426.047 83.936 425.795Z" fill="white"/>
<path d="M81.3864 412.614C82.0157 414.135 82.0213 415.843 81.4019 417.368C80.7825 418.893 79.5879 420.113 78.0762 420.765C77.4515 419.243 77.4483 417.537 78.0671 416.014C78.686 414.49 79.8777 413.269 81.3864 412.614Z" fill="white"/>
<path d="M63.1242 409.175C64.6089 409.885 65.7552 411.149 66.3162 412.697C66.8772 414.244 66.8079 415.949 66.1232 417.446C64.6401 416.734 63.4952 415.469 62.9345 413.923C62.3737 412.376 62.4418 410.672 63.1242 409.175Z" fill="white"/>
<path d="M71.6114 424.93C72.6956 426.167 73.2506 427.781 73.1569 429.423C73.0631 431.066 72.3281 432.606 71.1102 433.711C70.1119 432.425 69.5678 430.845 69.5631 429.217C69.7591 427.603 70.4786 426.097 71.6114 424.93Z" fill="white"/>
<path d="M71.1879 401.457C72.2721 402.694 72.8271 404.307 72.7333 405.95C72.6396 407.592 71.9046 409.132 70.6866 410.238C69.6024 409.001 69.0475 407.387 69.1412 405.745C69.235 404.102 69.97 402.563 71.1879 401.457Z" fill="white"/>
<path d="M52.0702 451.507C51.8468 453.137 52.2724 454.789 53.2552 456.108C54.238 457.427 55.6995 458.307 57.325 458.56C57.4495 456.938 57.0331 455.321 56.1409 453.962C55.0931 452.715 53.6614 451.852 52.0702 451.507Z" fill="white"/>
<path d="M47.1092 465.94C46.8858 467.57 47.3113 469.222 48.2942 470.541C49.277 471.86 50.7385 472.741 52.364 472.993C52.4884 471.371 52.072 469.754 51.1799 468.395C50.1321 467.149 48.7004 466.285 47.1092 465.94Z" fill="white"/>
<path d="M60.2807 471.178C60.0556 472.812 60.4837 474.468 61.4723 475.789C62.4609 477.109 63.9302 477.986 65.5615 478.23C65.7848 476.601 65.3593 474.948 64.3765 473.629C63.3936 472.31 61.9322 471.43 60.3067 471.178H60.2807Z" fill="white"/>
<path d="M63.8848 451.179C63.2057 452.676 63.1403 454.379 63.7026 455.924C64.2648 457.468 65.41 458.731 66.8925 459.441C67.5762 457.945 67.6439 456.24 67.0812 454.694C66.5185 453.148 65.3704 451.885 63.8848 451.179Z" fill="white"/>
<path d="M54.5593 504.401C56.1845 504.388 57.7606 503.841 59.0449 502.845C60.199 501.697 60.9406 500.198 61.1537 498.584C59.5275 498.592 57.9499 499.139 56.6681 500.14C55.5139 501.288 54.7724 502.786 54.5593 504.401Z" fill="white"/>
<path d="M80.1418 501.479C80.5341 503.077 81.5363 504.457 82.9336 505.324C84.3309 506.192 86.0123 506.477 87.6178 506.121C87.2295 504.521 86.2282 503.138 84.8298 502.27C83.4313 501.402 81.7477 501.118 80.1418 501.479Z" fill="white"/>
<path d="M57.5324 438.197C57.3067 439.827 57.7314 441.481 58.7146 442.8C59.6978 444.12 61.1607 445 62.7872 445.25C63.0105 443.62 62.585 441.968 61.6022 440.649C60.6193 439.33 59.1579 438.449 57.5324 438.197Z" fill="white"/>
<path d="M57.4891 426.469C57.2654 428.098 57.6896 429.75 58.6704 431.071C59.6513 432.391 61.1107 433.274 62.7353 433.53C62.959 431.9 62.5349 430.248 61.554 428.928C60.5731 427.608 59.1137 426.725 57.4891 426.469Z" fill="white"/>
<path d="M614.195 503.173C614.195 525.04 601.231 542.757 585.311 542.757C569.391 542.757 556.47 525.048 556.47 503.173C556.47 481.299 569.435 406.176 585.355 406.176C601.275 406.176 614.195 481.316 614.195 503.173Z" fill="#B3D74C"/>
<path opacity="0.53" d="M614.195 503.173C614.195 525.04 601.231 542.757 585.311 542.757C569.391 542.757 556.47 525.048 556.47 503.173C556.47 481.299 569.435 406.176 585.355 406.176C601.275 406.176 614.195 481.316 614.195 503.173Z" fill="white"/>
<path d="M569.711 505.135L578.924 508.35L583.488 514.556L582.693 533.553L577.377 529.949L582.529 537.485L581.319 566.179H586.954L586.21 523.043L601.508 514.616L592.762 517.849L594.516 512.585L590.342 518.748L586.167 520.286L585.865 503.001L601.059 482.811L592.917 490.953L594.291 485.292L590.402 493.476L585.778 498.092L585.311 471.083L583.661 510.477L569.262 495.213L577.17 505.965L569.711 505.135Z" fill="#B2B2B2"/>
<path d="M601.205 471.169C601.429 472.799 601.003 474.451 600.02 475.77C599.038 477.089 597.576 477.97 595.951 478.222C595.725 476.592 596.15 474.938 597.133 473.619C598.116 472.299 599.579 471.419 601.205 471.169Z" fill="white"/>
<path d="M609.909 483.399C610.132 485.028 609.707 486.681 608.724 488C607.741 489.319 606.28 490.199 604.654 490.451C604.431 488.821 604.856 487.169 605.839 485.85C606.822 484.531 608.283 483.651 609.909 483.399Z" fill="white"/>
<path d="M609.909 507.21C609.575 508.822 608.62 510.237 607.249 511.15C605.879 512.062 604.204 512.398 602.588 512.084C602.926 510.474 603.882 509.061 605.252 508.15C606.621 507.238 608.293 506.9 609.909 507.21Z" fill="white"/>
<path d="M562.097 507.21C562.43 508.825 563.388 510.244 564.763 511.157C566.137 512.07 567.816 512.403 569.435 512.084C569.097 510.474 568.141 509.061 566.771 508.15C565.402 507.238 563.73 506.9 562.114 507.21H562.097Z" fill="white"/>
<path d="M599.849 497.331C600.07 498.959 599.645 500.609 598.664 501.927C597.683 503.245 596.225 504.127 594.602 504.383C594.377 502.754 594.8 501.102 595.781 499.783C596.763 498.463 598.224 497.583 599.849 497.331Z" fill="white"/>
<path d="M597.593 457.859C597.819 459.488 597.395 461.14 596.414 462.46C595.432 463.779 593.972 464.66 592.347 464.912C592.126 463.284 592.551 461.634 593.531 460.316C594.512 458.997 595.97 458.116 597.593 457.859Z" fill="white"/>
<path d="M592.407 468.006C592.631 469.635 592.207 471.288 591.226 472.608C590.245 473.928 588.786 474.811 587.161 475.067C586.933 473.437 587.355 471.782 588.337 470.461C589.318 469.14 590.781 468.258 592.407 468.006Z" fill="white"/>
<path d="M604.723 460.616C604.947 462.247 604.521 463.9 603.539 465.221C602.556 466.541 601.095 467.423 599.468 467.677C599.245 466.047 599.67 464.393 600.653 463.073C601.635 461.753 603.097 460.871 604.723 460.616Z" fill="white"/>
<path d="M564.707 460.616C564.484 462.247 564.909 463.9 565.891 465.221C566.874 466.541 568.336 467.423 569.962 467.677C570.185 466.047 569.76 464.393 568.777 463.073C567.795 461.753 566.333 460.871 564.707 460.616Z" fill="white"/>
<path d="M598.725 445.457C598.948 447.087 598.523 448.739 597.54 450.058C596.557 451.377 595.096 452.257 593.47 452.51C593.247 450.88 593.672 449.228 594.655 447.909C595.638 446.589 597.099 445.709 598.725 445.457Z" fill="white"/>
<path d="M596.175 432.277C596.8 433.798 596.803 435.504 596.184 437.028C595.565 438.551 594.374 439.772 592.865 440.427C592.24 438.905 592.237 437.2 592.856 435.676C593.475 434.152 594.667 432.932 596.175 432.277Z" fill="white"/>
<path d="M577.913 428.837C579.398 429.547 580.544 430.812 581.105 432.359C581.666 433.906 581.597 435.612 580.913 437.108C579.426 436.4 578.278 435.135 577.717 433.587C577.156 432.04 577.226 430.333 577.913 428.837Z" fill="white"/>
<path d="M586.426 444.593C587.51 445.83 588.066 447.443 587.972 449.086C587.878 450.728 587.143 452.268 585.925 453.374C584.841 452.137 584.286 450.523 584.38 448.881C584.473 447.238 585.208 445.698 586.426 444.593Z" fill="white"/>
<path d="M585.977 421.136C587.064 422.372 587.621 423.988 587.525 425.631C587.43 427.275 586.69 428.815 585.467 429.917C584.386 428.678 583.834 427.064 583.929 425.423C584.025 423.781 584.76 422.242 585.977 421.136Z" fill="white"/>
<path d="M566.842 471.169C566.618 472.799 567.044 474.451 568.027 475.77C569.01 477.089 570.471 477.97 572.097 478.222C572.322 476.592 571.898 474.938 570.914 473.619C569.931 472.299 568.468 471.419 566.842 471.169Z" fill="white"/>
<path d="M561.898 485.602C561.675 487.232 562.1 488.884 563.083 490.203C564.066 491.522 565.527 492.403 567.153 492.655C567.379 491.025 566.954 489.371 565.971 488.052C564.988 486.732 563.525 485.852 561.898 485.602Z" fill="white"/>
<path d="M575.07 490.84C574.847 492.47 575.272 494.122 576.255 495.441C577.238 496.76 578.699 497.64 580.325 497.893C580.548 496.263 580.122 494.611 579.14 493.292C578.157 491.973 576.695 491.092 575.07 490.84Z" fill="white"/>
<path d="M578.665 470.841C577.984 472.338 577.919 474.044 578.483 475.589C579.047 477.134 580.196 478.396 581.681 479.103C582.362 477.605 582.427 475.9 581.863 474.355C581.299 472.81 580.151 471.548 578.665 470.841Z" fill="white"/>
<path d="M569.339 524.063C570.983 524.151 572.595 523.591 573.829 522.504C575.064 521.416 575.823 519.887 575.943 518.246C574.3 518.158 572.687 518.718 571.453 519.806C570.218 520.893 569.459 522.422 569.339 524.063Z" fill="white"/>
<path d="M594.931 521.141C595.323 522.739 596.325 524.119 597.723 524.986C599.12 525.854 600.801 526.139 602.407 525.783C602.019 524.183 601.017 522.8 599.619 521.932C598.22 521.064 596.537 520.78 594.931 521.141Z" fill="white"/>
<path d="M572.321 457.859C572.1 459.487 572.525 461.137 573.506 462.456C574.486 463.774 575.944 464.656 577.567 464.912C577.789 463.284 577.363 461.634 576.383 460.316C575.402 458.997 573.944 458.116 572.321 457.859Z" fill="white"/>
<path d="M572.27 446.131C572.044 447.761 572.469 449.415 573.452 450.734C574.435 452.054 575.898 452.934 577.524 453.184C577.748 451.554 577.322 449.902 576.339 448.583C575.357 447.264 573.895 446.383 572.27 446.131Z" fill="white"/>
<path d="M546.592 447.514C546.592 469.371 533.628 487.098 517.708 487.098C501.788 487.098 488.824 469.371 488.824 447.514C488.824 425.656 501.788 350.516 517.708 350.516C533.628 350.516 546.592 425.656 546.592 447.514Z" fill="#B3D74C"/>
<path opacity="0.53" d="M546.592 447.514C546.592 469.371 533.628 487.098 517.708 487.098C501.788 487.098 488.824 469.371 488.824 447.514C488.824 425.656 501.788 350.516 517.708 350.516C533.628 350.516 546.592 425.656 546.592 447.514Z" fill="white"/>
<path d="M502.107 449.476L511.312 452.691L515.884 458.896L515.08 477.893L509.774 474.289L514.916 481.826L513.715 510.52H519.35L518.607 467.384L533.904 458.948L525.158 462.189L526.912 456.917L522.729 463.08L518.555 464.627L518.261 447.341L533.455 427.152L525.313 435.293L526.687 429.632L522.79 437.808L518.174 442.432L517.708 415.423L516.048 454.817L501.649 439.554L509.566 450.306L502.107 449.476Z" fill="#B2B2B2"/>
<path d="M533.602 415.501C533.825 417.132 533.4 418.785 532.417 420.106C531.435 421.426 529.973 422.308 528.347 422.562C528.124 420.932 528.549 419.279 529.531 417.958C530.514 416.638 531.976 415.756 533.602 415.501Z" fill="white"/>
<path d="M542.305 427.74C542.528 429.369 542.103 431.021 541.12 432.34C540.137 433.66 538.676 434.54 537.05 434.792C536.827 433.162 537.253 431.51 538.235 430.191C539.218 428.872 540.68 427.992 542.305 427.74Z" fill="white"/>
<path d="M542.296 451.585C541.959 453.195 541.002 454.607 539.633 455.519C538.264 456.431 536.591 456.768 534.976 456.459C535.318 454.852 536.275 453.441 537.643 452.531C539.011 451.62 540.681 451.28 542.296 451.585Z" fill="white"/>
<path d="M494.484 451.585C494.826 453.192 495.784 454.603 497.152 455.513C498.52 456.424 500.19 456.764 501.805 456.459C501.467 454.849 500.511 453.437 499.142 452.525C497.772 451.613 496.1 451.276 494.484 451.585Z" fill="white"/>
<path d="M532.271 441.663C532.494 443.293 532.069 444.947 531.086 446.267C530.104 447.588 528.642 448.47 527.016 448.724C526.792 447.093 527.218 445.44 528.2 444.119C529.183 442.799 530.645 441.917 532.271 441.663Z" fill="white"/>
<path d="M529.989 402.2C530.213 403.83 529.787 405.482 528.804 406.801C527.821 408.12 526.36 409 524.734 409.252C524.511 407.623 524.937 405.971 525.919 404.651C526.902 403.332 528.364 402.452 529.989 402.2Z" fill="white"/>
<path d="M524.803 412.346C525.029 413.976 524.605 415.63 523.621 416.949C522.638 418.269 521.175 419.149 519.549 419.399C519.325 417.769 519.751 416.117 520.734 414.798C521.717 413.479 523.178 412.599 524.803 412.346Z" fill="white"/>
<path d="M537.119 404.957C537.345 406.587 536.92 408.241 535.937 409.56C534.954 410.88 533.491 411.759 531.865 412.01C531.641 410.38 532.067 408.728 533.05 407.409C534.032 406.09 535.494 405.209 537.119 404.957Z" fill="white"/>
<path d="M497.103 404.957C496.878 406.586 497.301 408.238 498.283 409.557C499.264 410.877 500.725 411.757 502.35 412.01C502.575 410.381 502.152 408.728 501.171 407.409C500.189 406.09 498.728 405.209 497.103 404.957Z" fill="white"/>
<path d="M531.121 389.798C531.345 391.427 530.919 393.08 529.936 394.399C528.953 395.718 527.492 396.598 525.867 396.85C525.641 395.22 526.066 393.567 527.049 392.247C528.032 390.927 529.495 390.048 531.121 389.798Z" fill="white"/>
<path d="M528.572 376.617C529.198 378.14 529.201 379.847 528.58 381.372C527.96 382.896 526.765 384.116 525.253 384.767C524.626 383.245 524.623 381.538 525.244 380.013C525.865 378.488 527.06 377.269 528.572 376.617Z" fill="white"/>
<path d="M510.301 373.177C511.783 373.887 512.928 375.151 513.489 376.696C514.05 378.241 513.982 379.944 513.3 381.44C511.817 380.73 510.673 379.467 510.112 377.922C509.551 376.377 509.619 374.673 510.301 373.177Z" fill="white"/>
<path d="M518.823 388.933C519.904 390.173 520.456 391.786 520.36 393.428C520.265 395.07 519.53 396.609 518.313 397.714C517.232 396.475 516.68 394.861 516.775 393.22C516.87 391.578 517.605 390.039 518.823 388.933Z" fill="white"/>
<path d="M518.365 365.477C519.449 366.714 520.004 368.328 519.91 369.97C519.816 371.612 519.081 373.152 517.863 374.258C516.779 373.021 516.224 371.407 516.318 369.765C516.412 368.123 517.147 366.583 518.365 365.477Z" fill="white"/>
<path d="M499.255 415.501C499.032 417.131 499.456 418.783 500.437 420.103C501.418 421.423 502.877 422.306 504.502 422.562C504.725 420.933 504.301 419.281 503.32 417.961C502.339 416.641 500.88 415.758 499.255 415.501Z" fill="white"/>
<path d="M494.295 429.978C494.066 431.608 494.489 433.262 495.47 434.584C496.452 435.905 497.914 436.787 499.541 437.039C499.764 435.41 499.34 433.757 498.359 432.437C497.379 431.117 495.919 430.234 494.295 429.978Z" fill="white"/>
<path d="M507.457 435.163C507.234 436.793 507.66 438.445 508.642 439.764C509.625 441.083 511.087 441.964 512.712 442.216C512.936 440.586 512.51 438.934 511.527 437.615C510.544 436.296 509.083 435.415 507.457 435.163Z" fill="white"/>
<path d="M511.062 415.181C510.381 416.679 510.315 418.384 510.88 419.93C511.444 421.475 512.592 422.737 514.078 423.444C514.759 421.946 514.824 420.241 514.26 418.696C513.696 417.15 512.547 415.888 511.062 415.181Z" fill="white"/>
<path d="M501.736 468.395C503.378 468.483 504.988 467.925 506.223 466.839C507.457 465.753 508.217 464.227 508.339 462.587C506.696 462.494 505.083 463.052 503.848 464.138C502.612 465.225 501.854 466.754 501.736 468.395Z" fill="white"/>
<path d="M527.327 465.482C527.713 467.081 528.713 468.463 530.111 469.33C531.508 470.197 533.191 470.479 534.794 470.115C534.408 468.516 533.408 467.134 532.011 466.267C530.613 465.4 528.931 465.118 527.327 465.482Z" fill="white"/>
<path d="M504.709 402.2C504.486 403.83 504.911 405.482 505.894 406.801C506.877 408.12 508.338 409 509.964 409.252C510.187 407.623 509.762 405.971 508.779 404.651C507.796 403.332 506.335 402.452 504.709 402.2Z" fill="white"/>
<path d="M504.666 390.472C504.443 392.101 504.868 393.753 505.851 395.073C506.834 396.392 508.295 397.272 509.921 397.524C510.144 395.894 509.718 394.242 508.736 392.923C507.753 391.604 506.291 390.724 504.666 390.472Z" fill="white"/>
<path d="M335.078 436.114C335.078 457.98 322.113 475.698 306.193 475.698C290.273 475.698 277.309 457.98 277.309 436.114C277.309 414.248 290.273 339.116 306.202 339.116C322.131 339.116 335.078 414.257 335.078 436.114Z" fill="#B3D74C"/>
<path opacity="0.53" d="M335.078 436.114C335.078 457.98 322.113 475.698 306.193 475.698C290.273 475.698 277.309 457.98 277.309 436.114C277.309 414.248 290.273 339.116 306.202 339.116C322.131 339.116 335.078 414.257 335.078 436.114Z" fill="white"/>
<path d="M290.585 438.085L299.798 441.291L304.361 447.497L303.566 466.493L298.251 462.889L303.402 470.426L302.192 499.12H307.827L307.084 455.984L322.381 447.548L313.643 450.789L315.398 445.526L311.215 451.688L307.04 453.227L306.738 435.941L321.932 415.752L313.79 423.893L315.173 418.232L311.275 426.417L306.651 431.032L306.193 404.023L304.534 443.417L290.135 428.154L298.043 438.906L290.585 438.085Z" fill="#B2B2B2"/>
<path d="M322.079 404.11C322.302 405.74 321.876 407.392 320.894 408.711C319.911 410.03 318.449 410.91 316.824 411.163C316.598 409.533 317.023 407.879 318.006 406.56C318.989 405.24 320.452 404.36 322.079 404.11Z" fill="white"/>
<path d="M330.782 416.339C331.008 417.968 330.585 419.62 329.603 420.94C328.622 422.259 327.161 423.14 325.536 423.392C325.315 421.764 325.74 420.114 326.721 418.796C327.701 417.477 329.159 416.596 330.782 416.339Z" fill="white"/>
<path d="M330.782 440.15C330.448 441.763 329.493 443.178 328.122 444.091C326.752 445.003 325.078 445.339 323.461 445.025C323.799 443.415 324.756 442.002 326.125 441.091C327.494 440.179 329.166 439.841 330.782 440.15Z" fill="white"/>
<path d="M282.97 440.15C283.304 441.763 284.259 443.178 285.63 444.091C287 445.003 288.674 445.339 290.291 445.025C289.953 443.415 288.996 442.002 287.627 441.091C286.258 440.179 284.586 439.841 282.97 440.15Z" fill="white"/>
<path d="M320.73 430.272C320.954 431.901 320.528 433.554 319.545 434.873C318.563 436.192 317.101 437.072 315.476 437.324C315.25 435.694 315.675 434.041 316.658 432.721C317.641 431.402 319.104 430.522 320.73 430.272Z" fill="white"/>
<path d="M318.475 390.8C318.698 392.43 318.273 394.082 317.29 395.401C316.307 396.72 314.845 397.6 313.22 397.853C312.997 396.223 313.422 394.571 314.405 393.252C315.388 391.933 316.849 391.052 318.475 390.8Z" fill="white"/>
<path d="M313.28 400.947C313.509 402.577 313.086 404.231 312.105 405.553C311.123 406.874 309.661 407.756 308.034 408.008C307.81 406.378 308.235 404.726 309.215 403.406C310.196 402.086 311.656 401.203 313.28 400.947Z" fill="white"/>
<path d="M325.596 393.557C325.813 395.182 325.385 396.828 324.405 398.142C323.425 399.457 321.97 400.336 320.35 400.592C320.122 398.962 320.544 397.308 321.526 395.986C322.508 394.665 323.97 393.783 325.596 393.531V393.557Z" fill="white"/>
<path d="M285.58 393.557C285.357 395.188 285.782 396.841 286.765 398.162C287.747 399.482 289.209 400.364 290.835 400.618C291.059 398.988 290.633 397.334 289.651 396.014C288.668 394.694 287.207 393.811 285.58 393.557Z" fill="white"/>
<path d="M319.598 378.398C319.822 380.028 319.396 381.68 318.413 382.999C317.43 384.318 315.969 385.198 314.343 385.45C314.12 383.821 314.546 382.169 315.528 380.849C316.511 379.53 317.973 378.65 319.598 378.398Z" fill="white"/>
<path d="M317.066 365.218C317.691 366.739 317.694 368.445 317.075 369.969C316.456 371.492 315.264 372.713 313.756 373.368C313.131 371.846 313.128 370.141 313.747 368.617C314.366 367.093 315.557 365.873 317.066 365.218Z" fill="white"/>
<path d="M298.787 361.778C300.271 362.488 301.418 363.752 301.979 365.3C302.54 366.847 302.47 368.552 301.786 370.049C300.303 369.337 299.158 368.072 298.597 366.526C298.036 364.979 298.104 363.275 298.787 361.778Z" fill="white"/>
<path d="M307.3 377.533C308.384 378.771 308.939 380.384 308.845 382.026C308.751 383.669 308.016 385.209 306.798 386.314C305.714 385.077 305.159 383.464 305.253 381.821C305.347 380.179 306.082 378.639 307.3 377.533Z" fill="white"/>
<path d="M306.85 354.077C307.934 355.314 308.489 356.928 308.396 358.57C308.302 360.213 307.567 361.752 306.349 362.858C305.265 361.621 304.71 360.008 304.804 358.365C304.897 356.723 305.632 355.183 306.85 354.077Z" fill="white"/>
<path d="M287.732 404.11C287.509 405.74 287.935 407.392 288.917 408.711C289.9 410.03 291.362 410.91 292.987 411.163C293.213 409.533 292.788 407.879 291.805 406.56C290.822 405.24 289.359 404.36 287.732 404.11Z" fill="white"/>
<path d="M282.771 418.543C282.548 420.173 282.974 421.825 283.956 423.144C284.939 424.463 286.401 425.344 288.026 425.596C288.252 423.966 287.827 422.312 286.844 420.993C285.861 419.673 284.398 418.793 282.771 418.543Z" fill="white"/>
<path d="M295.943 423.781C295.72 425.41 296.145 427.063 297.128 428.382C298.111 429.701 299.572 430.581 301.198 430.833C301.421 429.204 300.996 427.551 300.013 426.232C299.03 424.913 297.569 424.033 295.943 423.781Z" fill="white"/>
<path d="M299.547 403.782C298.863 405.278 298.796 406.983 299.358 408.529C299.921 410.075 301.069 411.337 302.555 412.044C303.238 410.548 303.306 408.843 302.743 407.297C302.181 405.751 301.033 404.488 299.547 403.782Z" fill="white"/>
<path d="M290.222 457.004C291.863 457.09 293.473 456.529 294.706 455.441C295.939 454.354 296.696 452.827 296.816 451.187C295.173 451.097 293.561 451.656 292.327 452.745C291.093 453.833 290.337 455.363 290.222 457.004Z" fill="white"/>
<path d="M315.804 454.083C316.196 455.68 317.198 457.06 318.596 457.927C319.993 458.795 321.675 459.081 323.28 458.724C322.892 457.124 321.89 455.741 320.492 454.873C319.094 454.005 317.41 453.721 315.804 454.083Z" fill="white"/>
<path d="M293.195 390.8C292.971 392.43 293.397 394.082 294.38 395.401C295.362 396.72 296.824 397.6 298.449 397.853C298.673 396.223 298.247 394.571 297.264 393.252C296.282 391.933 294.82 391.052 293.195 390.8Z" fill="white"/>
<path d="M293.143 379.072C293.024 380.695 293.439 382.313 294.327 383.678C295.377 384.92 296.808 385.78 298.398 386.124C298.621 384.495 298.195 382.842 297.213 381.523C296.23 380.204 294.768 379.324 293.143 379.072Z" fill="white"/>
<path d="M194.589 456.563C194.589 478.429 181.625 496.147 165.705 496.147C149.785 496.147 136.821 478.429 136.821 456.563C136.821 434.697 149.785 359.565 165.705 359.565C181.625 359.565 194.589 434.705 194.589 456.563Z" fill="#B3D74C"/>
<path opacity="0.53" d="M194.589 456.563C194.589 478.429 181.625 496.147 165.705 496.147C149.785 496.147 136.821 478.429 136.821 456.563C136.821 434.697 149.785 359.565 165.705 359.565C181.625 359.565 194.589 434.705 194.589 456.563Z" fill="white"/>
<path d="M150.105 458.533L159.318 461.74L163.882 467.945L163.086 486.942L157.771 483.338L162.922 490.875L161.712 519.569H167.347L166.604 476.433L181.902 468.006L173.155 471.238L174.91 465.975L170.735 472.137L166.552 473.676L166.258 456.39L181.452 436.201L173.311 444.342L174.685 438.681L170.787 446.866L166.172 451.481L165.705 424.472L164.054 463.866L149.656 448.612L157.564 459.363L150.105 458.533Z" fill="#B2B2B2"/>
<path d="M181.599 424.559C181.822 426.188 181.397 427.841 180.414 429.16C179.431 430.479 177.97 431.359 176.344 431.611C176.121 429.982 176.547 428.329 177.529 427.01C178.512 425.691 179.974 424.811 181.599 424.559Z" fill="white"/>
<path d="M190.303 436.788C190.526 438.418 190.1 440.07 189.118 441.389C188.135 442.708 186.673 443.589 185.048 443.841C184.824 442.211 185.25 440.559 186.233 439.24C187.216 437.921 188.677 437.041 190.303 436.788Z" fill="white"/>
<path d="M190.302 460.599C189.967 462.21 189.011 463.625 187.642 464.539C186.272 465.452 184.599 465.791 182.982 465.482C183.318 463.871 184.273 462.456 185.643 461.542C187.012 460.629 188.686 460.29 190.302 460.599Z" fill="white"/>
<path d="M142.482 460.599C142.818 462.21 143.773 463.625 145.143 464.539C146.512 465.452 148.186 465.791 149.802 465.482C149.467 463.871 148.511 462.456 147.142 461.542C145.772 460.629 144.099 460.29 142.482 460.599Z" fill="white"/>
<path d="M180.242 450.72C180.464 452.348 180.038 453.998 179.058 455.317C178.077 456.635 176.619 457.517 174.996 457.773C174.766 456.143 175.187 454.489 176.17 453.168C177.152 451.848 178.615 450.968 180.242 450.72Z" fill="white"/>
<path d="M177.987 411.249C178.212 412.878 177.789 414.53 176.807 415.849C175.826 417.169 174.365 418.049 172.74 418.301C172.519 416.673 172.944 415.023 173.925 413.705C174.906 412.387 176.364 411.505 177.987 411.249Z" fill="white"/>
<path d="M172.801 421.396C173.024 423.026 172.599 424.68 171.616 426C170.634 427.32 169.172 428.203 167.546 428.457C167.323 426.826 167.748 425.173 168.731 423.852C169.713 422.532 171.175 421.65 172.801 421.396Z" fill="white"/>
<path d="M185.117 414.006C185.34 415.637 184.915 417.29 183.932 418.61C182.95 419.931 181.488 420.813 179.862 421.067C179.639 419.436 180.064 417.783 181.046 416.463C182.029 415.142 183.491 414.26 185.117 414.006Z" fill="white"/>
<path d="M145.075 414.006C144.851 415.637 145.277 417.29 146.259 418.61C147.242 419.931 148.704 420.813 150.33 421.067C150.553 419.436 150.128 417.783 149.145 416.463C148.163 415.142 146.701 414.26 145.075 414.006Z" fill="white"/>
<path d="M179.119 398.864C179.342 400.494 178.917 402.146 177.934 403.465C176.951 404.784 175.489 405.664 173.864 405.916C173.641 404.287 174.066 402.634 175.049 401.315C176.032 399.996 177.493 399.116 179.119 398.864Z" fill="white"/>
<path d="M176.569 385.666C177.194 387.188 177.197 388.893 176.578 390.417C175.959 391.941 174.768 393.161 173.259 393.816C172.63 392.295 172.624 390.588 173.243 389.063C173.863 387.538 175.057 386.318 176.569 385.666Z" fill="white"/>
<path d="M158.298 382.226C159.786 382.933 160.936 384.198 161.497 385.746C162.058 387.294 161.987 389.002 161.297 390.498C159.814 389.786 158.669 388.521 158.109 386.975C157.548 385.428 157.616 383.723 158.298 382.226Z" fill="white"/>
<path d="M166.82 398C167.904 399.237 168.459 400.85 168.365 402.493C168.272 404.135 167.537 405.675 166.319 406.781C165.235 405.543 164.68 403.93 164.773 402.288C164.867 400.645 165.602 399.105 166.82 398Z" fill="white"/>
<path d="M166.371 374.526C167.452 375.765 168.004 377.379 167.909 379.02C167.813 380.662 167.078 382.201 165.861 383.307C164.78 382.068 164.228 380.454 164.323 378.812C164.418 377.17 165.154 375.632 166.371 374.526Z" fill="white"/>
<path d="M147.253 424.559C147.03 426.188 147.455 427.841 148.438 429.16C149.421 430.479 150.882 431.359 152.508 431.611C152.731 429.982 152.306 428.329 151.323 427.01C150.34 425.691 148.878 424.811 147.253 424.559Z" fill="white"/>
<path d="M142.292 438.992C142.069 440.622 142.494 442.274 143.477 443.593C144.46 444.912 145.921 445.793 147.547 446.045C147.77 444.415 147.345 442.763 146.362 441.444C145.379 440.125 143.917 439.244 142.292 438.992Z" fill="white"/>
<path d="M155.446 444.229C155.221 445.86 155.645 447.513 156.629 448.833C157.612 450.152 159.075 451.032 160.701 451.282C160.924 449.652 160.499 448 159.516 446.681C158.533 445.362 157.072 444.482 155.446 444.229Z" fill="white"/>
<path d="M159.059 424.23C158.378 425.728 158.313 427.433 158.877 428.979C159.441 430.524 160.59 431.786 162.075 432.493C162.756 430.995 162.821 429.29 162.257 427.745C161.693 426.199 160.545 424.937 159.059 424.23Z" fill="white"/>
<path d="M149.733 477.453C151.373 477.538 152.981 476.977 154.211 475.889C155.441 474.801 156.195 473.274 156.31 471.636C154.684 471.642 153.106 472.19 151.825 473.192C150.679 474.344 149.944 475.841 149.733 477.453Z" fill="white"/>
<path d="M175.325 474.531C175.717 476.128 176.719 477.509 178.116 478.376C179.514 479.244 181.195 479.529 182.801 479.172C182.408 477.575 181.406 476.195 180.009 475.328C178.612 474.46 176.93 474.174 175.325 474.531Z" fill="white"/>
<path d="M152.715 411.249C152.485 412.878 152.906 414.533 153.889 415.853C154.871 417.174 156.334 418.053 157.961 418.301C158.183 416.673 157.757 415.023 156.777 413.705C155.796 412.387 154.338 411.505 152.715 411.249Z" fill="white"/>
<path d="M152.663 399.521C152.438 401.151 152.862 402.804 153.845 404.124C154.829 405.443 156.292 406.323 157.918 406.573C158.141 404.943 157.716 403.291 156.733 401.972C155.75 400.653 154.289 399.773 152.663 399.521Z" fill="white"/>
<path d="M594.499 397.714C594.499 431.084 574.759 458.136 550.421 458.136C526.083 458.136 506.342 431.084 506.342 397.714C506.342 364.345 526.083 249.655 550.421 249.655C574.759 249.655 594.499 364.345 594.499 397.714Z" fill="#B3D74C"/>
<path opacity="0.3" d="M594.499 397.714C594.499 431.084 574.759 458.136 550.421 458.136C526.083 458.136 506.342 431.084 506.342 397.714C506.342 364.345 526.083 249.655 550.421 249.655C574.759 249.655 594.499 364.345 594.499 397.714Z" fill="white"/>
<path d="M526.618 400.713L540.68 405.622L547.646 415.086L546.428 444.083L538.321 438.586L546.177 450.081L544.336 493.882H552.936L551.803 428.05L575.156 415.173L561.812 420.108L564.491 412.079L558.104 421.482L551.734 423.841L551.276 397.446L574.473 366.635L562.045 379.063L564.145 370.421L558.199 382.909L551.147 389.953L550.438 348.727L547.914 408.855L525.927 385.571L538.001 401.975L526.618 400.713Z" fill="#B2B2B2"/>
<path d="M574.69 348.857C574.69 348.857 575.104 352.902 572.883 355.883C570.662 358.865 566.678 359.626 566.678 359.626C566.678 359.626 566.263 355.572 568.484 352.599C570.705 349.626 574.69 348.857 574.69 348.857Z" fill="white"/>
<path d="M587.982 367.525C587.982 367.525 588.388 371.579 586.176 374.552C583.963 377.525 579.962 378.294 579.962 378.294C579.962 378.294 579.555 374.241 581.768 371.267C583.981 368.294 587.982 367.525 587.982 367.525Z" fill="white"/>
<path d="M587.973 403.877C587.973 403.877 586.997 407.835 583.911 409.883C580.826 411.932 576.798 411.318 576.798 411.318C576.798 411.318 577.784 407.368 580.869 405.268C583.954 403.168 587.973 403.877 587.973 403.877Z" fill="white"/>
<path d="M514.985 403.877C514.985 403.877 515.962 407.835 519.047 409.883C522.133 411.932 526.16 411.318 526.16 411.318C526.16 411.318 525.184 407.368 522.098 405.268C519.013 403.168 514.985 403.877 514.985 403.877Z" fill="white"/>
<path d="M572.624 388.786C572.624 388.786 573.039 392.84 570.817 395.813C568.596 398.786 564.612 399.555 564.612 399.555C564.612 399.555 564.206 395.51 566.418 392.537C568.631 389.564 572.624 388.786 572.624 388.786Z" fill="white"/>
<path d="M569.184 328.546C569.184 328.546 569.59 332.591 567.378 335.564C565.165 338.537 561.163 339.315 561.163 339.315C561.163 339.315 560.757 335.262 562.97 332.288C565.182 329.315 569.184 328.546 569.184 328.546Z" fill="white"/>
<path d="M561.267 344.034C561.267 344.034 561.673 348.088 559.461 351.061C557.248 354.034 553.247 354.803 553.247 354.803C553.247 354.803 552.841 350.749 555.053 347.776C557.266 344.803 561.267 344.034 561.267 344.034Z" fill="white"/>
<path d="M580.065 332.755C580.065 332.755 580.472 336.809 578.259 339.782C576.046 342.755 572.028 343.55 572.028 343.55C572.028 343.55 571.621 339.497 573.834 336.524C576.046 333.551 580.065 332.755 580.065 332.755Z" fill="white"/>
<path d="M518.978 332.755C518.978 332.755 518.572 336.809 520.785 339.782C522.997 342.755 526.999 343.55 526.999 343.55C526.999 343.55 527.405 339.497 525.192 336.524C522.98 333.551 518.978 332.755 518.978 332.755Z" fill="white"/>
<path d="M570.904 309.61C570.904 309.61 571.31 313.663 569.097 316.636C566.885 319.61 562.892 320.379 562.892 320.379C562.892 320.379 562.477 316.325 564.698 313.352C566.919 310.379 570.904 309.61 570.904 309.61Z" fill="white"/>
<path d="M567.015 289.498C567.015 289.498 568.424 293.318 567.015 296.75C565.606 300.181 561.941 301.935 561.941 301.935C561.941 301.935 560.533 298.115 561.941 294.684C563.35 291.253 567.015 289.498 567.015 289.498Z" fill="white"/>
<path d="M539.133 284.244C539.133 284.244 542.737 286.128 544.008 289.611C545.278 293.094 543.714 296.862 543.714 296.862C543.714 296.862 540.101 294.969 538.839 291.486C537.577 288.003 539.133 284.244 539.133 284.244Z" fill="white"/>
<path d="M552.149 308.288C552.149 308.288 554.742 311.451 554.509 315.15C554.275 318.849 551.38 321.693 551.38 321.693C551.38 321.693 548.787 318.538 549.029 314.839C549.271 311.14 552.149 308.288 552.149 308.288Z" fill="white"/>
<path d="M551.449 272.489C551.449 272.489 554.042 275.644 553.8 279.352C553.558 283.059 550.68 285.894 550.68 285.894C550.68 285.894 548.087 282.731 548.32 279.032C548.554 275.333 551.449 272.489 551.449 272.489Z" fill="white"/>
<path d="M522.262 348.857C522.262 348.857 521.856 352.902 524.069 355.883C526.281 358.865 530.283 359.626 530.283 359.626C530.283 359.626 530.689 355.572 528.477 352.599C526.264 349.626 522.262 348.857 522.262 348.857Z" fill="white"/>
<path d="M514.691 370.887C514.691 370.887 514.285 374.941 516.498 377.914C518.71 380.887 522.712 381.656 522.712 381.656C522.712 381.656 523.118 377.603 520.905 374.629C518.693 371.656 514.691 370.887 514.691 370.887Z" fill="white"/>
<path d="M534.794 378.89C534.794 378.89 534.388 382.935 536.601 385.908C538.813 388.881 542.815 389.659 542.815 389.659C542.815 389.659 543.221 385.606 541.009 382.633C538.796 379.66 534.794 378.89 534.794 378.89Z" fill="white"/>
<path d="M540.291 348.355C540.291 348.355 538.744 352.124 540.015 355.607C541.285 359.09 544.889 360.974 544.889 360.974C544.889 360.974 546.445 357.206 545.174 353.723C543.904 350.24 540.291 348.355 540.291 348.355Z" fill="white"/>
<path d="M526.057 429.597C526.057 429.597 530.127 429.667 532.91 427.221C535.693 424.775 536.134 420.721 536.134 420.721C536.134 420.721 532.063 420.644 529.28 423.098C526.497 425.553 526.057 429.597 526.057 429.597Z" fill="white"/>
<path d="M565.113 425.138C565.113 425.138 566.22 429.062 569.374 431.015C572.529 432.968 576.522 432.225 576.522 432.225C576.522 432.225 575.415 428.301 572.27 426.348C569.124 424.395 565.113 425.138 565.113 425.138Z" fill="white"/>
<path d="M530.594 328.546C530.594 328.546 530.188 332.591 532.4 335.564C534.613 338.537 538.615 339.315 538.615 339.315C538.615 339.315 539.021 335.262 536.808 332.288C534.596 329.315 530.594 328.546 530.594 328.546Z" fill="white"/>
<path d="M530.542 310.638C530.542 310.638 530.136 314.692 532.349 317.665C534.561 320.638 538.563 321.407 538.563 321.407C538.563 321.407 538.969 317.362 536.756 314.389C534.544 311.416 530.542 310.638 530.542 310.638Z" fill="white"/>
<path d="M440.839 385.848C440.839 411.776 425.481 432.856 406.536 432.856C387.591 432.856 372.233 411.828 372.233 385.848C372.233 359.868 387.591 270.666 406.536 270.666C425.481 270.666 440.839 359.894 440.839 385.848Z" fill="#B3D74C"/>
<path opacity="0.3" d="M440.839 385.848C440.839 411.776 425.481 432.856 406.536 432.856C387.591 432.856 372.233 411.828 372.233 385.848C372.233 359.868 387.591 270.666 406.536 270.666C425.481 270.666 440.839 359.894 440.839 385.848Z" fill="white"/>
<path d="M388.006 388.181L398.948 392.002L404.367 399.374L403.416 421.923L397.115 417.645L403.226 426.59L401.791 460.668H408.481L407.599 409.451L425.766 399.434L415.386 403.272L417.469 397.023L412.499 404.343L407.547 406.176L407.193 385.64L425.23 361.674L415.568 371.337L417.201 364.613L412.569 374.327L407.089 379.815L406.536 347.733L404.574 394.525L387.47 376.401L396.865 389.167L388.006 388.181Z" fill="#B2B2B2"/>
<path d="M425.403 347.871C425.674 349.807 425.172 351.772 424.006 353.34C422.84 354.909 421.103 355.956 419.172 356.255C418.901 354.319 419.403 352.355 420.569 350.786C421.735 349.217 423.472 348.17 425.403 347.871Z" fill="white"/>
<path d="M435.748 362.365C436.012 364.3 435.506 366.261 434.339 367.827C433.172 369.393 431.438 370.439 429.508 370.74C429.245 368.805 429.751 366.844 430.918 365.278C432.085 363.712 433.819 362.667 435.748 362.365Z" fill="white"/>
<path d="M435.74 390.645C435.339 392.557 434.204 394.236 432.577 395.319C430.951 396.402 428.964 396.803 427.045 396.435C427.445 394.523 428.581 392.844 430.208 391.761C431.834 390.678 433.821 390.277 435.74 390.645Z" fill="white"/>
<path d="M378.965 390.645C379.362 392.558 380.495 394.238 382.121 395.322C383.746 396.405 385.733 396.805 387.651 396.435C387.255 394.522 386.122 392.842 384.496 391.758C382.871 390.675 380.884 390.275 378.965 390.645Z" fill="white"/>
<path d="M423.804 378.908C424.067 380.843 423.561 382.804 422.394 384.37C421.228 385.936 419.493 386.981 417.564 387.283C417.296 385.347 417.8 383.384 418.968 381.817C420.136 380.25 421.873 379.205 423.804 378.908Z" fill="white"/>
<path d="M421.125 332.038C421.388 333.973 420.882 335.934 419.715 337.5C418.548 339.066 416.814 340.112 414.885 340.413C414.617 338.477 415.121 336.514 416.289 334.947C417.456 333.38 419.193 332.335 421.125 332.038Z" fill="white"/>
<path d="M414.963 344.086C415.228 346.022 414.723 347.985 413.556 349.553C412.389 351.121 410.654 352.168 408.722 352.469C408.457 350.533 408.962 348.57 410.129 347.002C411.296 345.434 413.031 344.387 414.963 344.086Z" fill="white"/>
<path d="M429.586 335.313C429.849 337.248 429.343 339.209 428.177 340.775C427.01 342.341 425.275 343.387 423.346 343.688C423.083 341.753 423.589 339.792 424.756 338.226C425.922 336.661 427.657 335.615 429.586 335.313Z" fill="white"/>
<path d="M382.068 335.313C381.8 337.248 382.303 339.21 383.469 340.777C384.635 342.344 386.37 343.389 388.3 343.688C388.568 341.754 388.064 339.792 386.899 338.225C385.733 336.658 383.998 335.613 382.068 335.313Z" fill="white"/>
<path d="M422.508 317.302C422.773 319.238 422.268 321.202 421.101 322.769C419.934 324.337 418.199 325.384 416.268 325.685C416 323.749 416.504 321.784 417.671 320.216C418.838 318.648 420.576 317.601 422.508 317.302Z" fill="white"/>
<path d="M419.431 301.659C420.176 303.465 420.182 305.493 419.446 307.303C418.71 309.114 417.293 310.563 415.498 311.338C414.758 309.531 414.755 307.506 415.49 305.696C416.225 303.887 417.64 302.437 419.431 301.659Z" fill="white"/>
<path d="M397.738 297.57C399.501 298.412 400.864 299.912 401.532 301.749C402.199 303.586 402.119 305.611 401.307 307.389C399.543 306.547 398.181 305.047 397.513 303.21C396.845 301.373 396.926 299.348 397.738 297.57Z" fill="white"/>
<path d="M407.858 316.282C409.145 317.751 409.804 319.668 409.69 321.618C409.577 323.568 408.702 325.395 407.253 326.705C405.966 325.236 405.308 323.32 405.421 321.37C405.534 319.42 406.409 317.593 407.858 316.282Z" fill="white"/>
<path d="M407.322 288.427C408.607 289.898 409.264 291.814 409.153 293.764C409.041 295.714 408.17 297.543 406.726 298.858C405.54 297.33 404.893 295.452 404.885 293.517C405.116 291.599 405.973 289.81 407.322 288.427Z" fill="white"/>
<path d="M384.618 347.871C384.352 349.808 384.857 351.771 386.024 353.339C387.191 354.907 388.927 355.954 390.858 356.255C391.123 354.319 390.619 352.355 389.452 350.788C388.285 349.22 386.549 348.173 384.618 347.871Z" fill="white"/>
<path d="M378.723 364.984C378.46 366.919 378.966 368.88 380.133 370.446C381.3 372.012 383.034 373.058 384.963 373.359C385.231 371.423 384.727 369.46 383.559 367.893C382.392 366.326 380.655 365.281 378.723 364.984Z" fill="white"/>
<path d="M394.367 371.207C394.104 373.142 394.61 375.103 395.776 376.669C396.943 378.235 398.677 379.281 400.607 379.582C400.87 377.647 400.364 375.686 399.197 374.12C398.031 372.554 396.296 371.508 394.367 371.207Z" fill="white"/>
<path d="M398.645 347.448C397.836 349.227 397.758 351.252 398.427 353.088C399.096 354.925 400.459 356.425 402.223 357.266C403.03 355.487 403.106 353.462 402.438 351.627C401.769 349.792 400.407 348.291 398.645 347.448Z" fill="white"/>
<path d="M387.565 410.652C389.517 410.759 391.434 410.094 392.9 408.801C394.367 407.507 395.266 405.689 395.404 403.738C393.451 403.631 391.535 404.296 390.068 405.59C388.602 406.883 387.703 408.702 387.565 410.652Z" fill="white"/>
<path d="M417.953 407.187C418.415 409.085 419.604 410.726 421.265 411.755C422.925 412.785 424.923 413.122 426.829 412.692C426.365 410.795 425.175 409.156 423.515 408.126C421.856 407.097 419.859 406.76 417.953 407.187Z" fill="white"/>
<path d="M391.1 332.038C390.837 333.973 391.343 335.934 392.51 337.5C393.676 339.066 395.411 340.112 397.34 340.413C397.603 338.478 397.097 336.517 395.93 334.951C394.764 333.385 393.029 332.339 391.1 332.038Z" fill="white"/>
<path d="M391.048 318.106C390.778 320.043 391.281 322.008 392.449 323.577C393.617 325.146 395.355 326.192 397.288 326.489C397.554 324.553 397.049 322.59 395.882 321.022C394.715 319.454 392.979 318.407 391.048 318.106Z" fill="white"/>
<path d="M164.884 401.284C164.884 435.336 144.738 462.941 119.89 462.941C95.0419 462.941 74.8957 435.336 74.8957 401.284C74.8957 367.231 95.0419 250.208 119.89 250.208C144.738 250.208 164.884 367.231 164.884 401.284Z" fill="#B3D74C"/>
<path opacity="0.3" d="M164.884 401.284C164.884 435.336 144.738 462.941 119.89 462.941C95.0419 462.941 74.8957 435.336 74.8957 401.284C74.8957 367.231 95.0419 250.208 119.89 250.208C144.738 250.208 164.884 367.231 164.884 401.284Z" fill="white"/>
<path d="M95.5864 404.343L109.933 409.347L117.046 419.01L115.802 448.603L107.531 442.985L115.543 454.722L113.667 499.422H122.448L121.29 432.233L145.118 419.096L131.497 424.135L134.228 415.933L127.72 425.535L121.212 427.938L120.746 401.007L144.418 369.565L131.73 382.252L133.883 373.428L127.815 386.167L120.616 393.367L119.89 351.294L117.314 412.657L94.8864 388.89L107.202 405.631L95.5864 404.343Z" fill="#B2B2B2"/>
<path d="M144.643 351.424C144.643 351.424 145.058 355.555 142.802 358.588C140.546 361.622 136.458 362.409 136.458 362.409C136.458 362.409 136.043 358.277 138.308 355.244C140.572 352.21 144.643 351.424 144.643 351.424Z" fill="white"/>
<path d="M158.203 370.472C158.203 370.472 158.618 374.612 156.362 377.646C154.107 380.679 150.027 381.466 150.027 381.466C150.027 381.466 149.604 377.335 151.868 374.292C154.133 371.25 158.203 370.472 158.203 370.472Z" fill="white"/>
<path d="M158.203 407.576C158.203 407.576 157.201 411.603 154.055 413.704C150.909 415.804 146.795 415.164 146.795 415.164C146.795 415.164 147.797 411.137 150.943 409.036C154.089 406.936 158.203 407.576 158.203 407.576Z" fill="white"/>
<path d="M83.7114 407.576C83.7114 407.576 84.7139 411.603 87.8599 413.704C91.0059 415.804 95.1198 415.164 95.1198 415.164C95.1198 415.164 94.1173 411.137 90.9713 409.036C87.8253 406.936 83.7114 407.576 83.7114 407.576Z" fill="white"/>
<path d="M142.534 392.174C142.534 392.174 142.949 396.306 140.693 399.339C138.437 402.373 134.358 403.185 134.358 403.185C134.358 403.185 133.934 399.054 136.199 396.02C138.463 392.987 142.534 392.174 142.534 392.174Z" fill="white"/>
<path d="M139.025 330.698C139.025 330.698 139.44 334.83 137.184 337.863C134.928 340.897 130.84 341.683 130.84 341.683C130.84 341.683 130.426 337.552 132.681 334.518C134.937 331.485 139.025 330.698 139.025 330.698Z" fill="white"/>
<path d="M130.944 346.506C130.944 346.506 131.359 350.637 129.103 353.671C126.847 356.704 122.759 357.491 122.759 357.491C122.759 357.491 122.345 353.36 124.609 350.326C126.873 347.292 130.944 346.506 130.944 346.506Z" fill="white"/>
<path d="M150.122 334.994C150.122 334.994 150.546 339.125 148.281 342.159C146.017 345.192 141.946 345.987 141.946 345.987C141.946 345.987 141.531 341.847 143.787 338.814C146.043 335.78 150.122 334.994 150.122 334.994Z" fill="white"/>
<path d="M87.7907 334.994C87.7907 334.994 87.3758 339.125 89.6402 342.159C91.9047 345.192 95.9754 345.987 95.9754 345.987C95.9754 345.987 96.3902 341.847 94.1345 338.814C91.8787 335.78 87.7907 334.994 87.7907 334.994Z" fill="white"/>
<path d="M140.754 311.373C140.754 311.373 141.168 315.504 138.913 318.547C136.657 321.589 132.569 322.367 132.569 322.367C132.569 322.367 132.154 318.227 134.418 315.193C136.683 312.16 140.754 311.373 140.754 311.373Z" fill="white"/>
<path d="M136.812 290.829C136.812 290.829 138.247 294.727 136.812 298.236C135.378 301.745 131.627 303.525 131.627 303.525C131.627 303.525 130.183 299.628 131.627 296.127C133.07 292.627 136.812 290.829 136.812 290.829Z" fill="white"/>
<path d="M108.36 285.488C108.36 285.488 112.034 287.415 113.33 290.968C114.626 294.52 113.028 298.366 113.028 298.366C113.028 298.366 109.346 296.438 108.058 292.886C106.77 289.334 108.36 285.488 108.36 285.488Z" fill="white"/>
<path d="M121.627 310.034C121.627 310.034 124.22 313.249 124.03 317.026C123.84 320.802 120.875 323.672 120.875 323.672C120.875 323.672 118.282 320.448 118.472 316.671C118.663 312.894 121.627 310.034 121.627 310.034Z" fill="white"/>
<path d="M120.927 273.492C120.927 273.492 123.52 276.716 123.33 280.493C123.14 284.27 120.132 287.173 120.132 287.173C120.132 287.173 117.539 283.95 117.729 280.173C117.919 276.396 120.927 273.492 120.927 273.492Z" fill="white"/>
<path d="M91.1441 351.424C91.1441 351.424 90.7293 355.555 92.985 358.588C95.2408 361.622 99.3288 362.409 99.3288 362.409C99.3288 362.409 99.7437 358.277 97.4879 355.244C95.2321 352.21 91.1441 351.424 91.1441 351.424Z" fill="white"/>
<path d="M83.4175 373.904C83.4175 373.904 83.0027 378.043 85.2584 381.077C87.5142 384.111 91.6022 384.897 91.6022 384.897C91.6022 384.897 92.0171 380.757 89.7527 377.724C87.4882 374.69 83.4175 373.904 83.4175 373.904Z" fill="white"/>
<path d="M103.935 382.071C103.935 382.071 103.512 386.202 105.776 389.236C108.041 392.269 112.111 393.056 112.111 393.056C112.111 393.056 112.526 388.925 110.27 385.891C108.015 382.857 103.935 382.071 103.935 382.071Z" fill="white"/>
<path d="M109.545 350.914C109.545 350.914 107.954 354.76 109.251 358.312C110.547 361.864 114.229 363.791 114.229 363.791C114.229 363.791 115.819 359.945 114.523 356.393C113.226 352.841 109.545 350.914 109.545 350.914Z" fill="white"/>
<path d="M95.0161 433.815C95.0161 433.815 99.1646 433.893 102.008 431.387C104.852 428.88 105.318 424.792 105.318 424.792C105.318 424.792 101.17 424.714 98.3263 427.221C95.4828 429.727 95.0161 433.815 95.0161 433.815Z" fill="white"/>
<path d="M134.877 429.269C134.877 429.269 136 433.271 139.198 435.259C142.396 437.246 146.501 436.495 146.501 436.495C146.501 436.495 145.369 432.493 142.18 430.497C138.99 428.5 134.877 429.269 134.877 429.269Z" fill="white"/>
<path d="M99.6486 330.698C99.6486 330.698 99.2337 334.83 101.489 337.863C103.745 340.897 107.833 341.683 107.833 341.683C107.833 341.683 108.248 337.552 105.984 334.518C103.719 331.485 99.6486 330.698 99.6486 330.698Z" fill="white"/>
<path d="M99.5795 312.436C99.5795 312.436 99.156 316.568 101.42 319.601C103.685 322.635 107.756 323.43 107.756 323.43C107.756 323.43 108.17 319.29 105.915 316.256C103.659 313.223 99.5795 312.436 99.5795 312.436Z" fill="white"/>
<path d="M275.209 389.08C275.209 415.052 259.851 436.097 240.897 436.097C221.944 436.097 206.594 415.052 206.594 389.08C206.594 363.109 221.952 273.872 240.897 273.872C259.842 273.872 275.209 363.117 275.209 389.08Z" fill="#B3D74C"/>
<path opacity="0.3" d="M275.209 389.08C275.209 415.052 259.851 436.097 240.897 436.097C221.944 436.097 206.594 415.052 206.594 389.08C206.594 363.109 221.952 273.872 240.897 273.872C259.842 273.872 275.209 363.117 275.209 389.08Z" fill="white"/>
<path d="M222.367 391.414L233.309 395.234L238.728 402.598L237.786 425.164L231.477 420.886L237.587 429.831L236.152 463.918H242.85L241.969 412.684L260.136 402.667L249.747 406.504L251.83 400.255L246.869 407.576L241.908 409.408L241.554 388.873L259.6 364.898L249.929 374.569L251.562 367.845L246.938 377.559L241.45 383.039L240.897 350.957L238.935 397.749L221.831 379.625L231.226 392.399L222.367 391.414Z" fill="#B2B2B2"/>
<path d="M259.773 351.061C260.041 352.997 259.537 354.962 258.37 356.53C257.202 358.098 255.465 359.145 253.533 359.444C253.267 357.508 253.772 355.545 254.939 353.977C256.106 352.409 257.842 351.362 259.773 351.061Z" fill="white"/>
<path d="M270.118 365.589C270.384 367.525 269.879 369.489 268.712 371.056C267.545 372.624 265.809 373.671 263.878 373.973C263.608 372.036 264.111 370.07 265.279 368.501C266.447 366.932 268.185 365.886 270.118 365.589Z" fill="white"/>
<path d="M270.11 393.877C269.709 395.789 268.574 397.468 266.947 398.551C265.321 399.635 263.334 400.035 261.415 399.668C261.815 397.755 262.951 396.076 264.577 394.993C266.204 393.91 268.191 393.509 270.11 393.877Z" fill="white"/>
<path d="M213.353 393.877C213.753 395.789 214.889 397.468 216.515 398.551C218.141 399.635 220.128 400.035 222.047 399.668C221.647 397.755 220.511 396.076 218.885 394.993C217.259 393.91 215.272 393.509 213.353 393.877Z" fill="white"/>
<path d="M258.166 382.131C258.436 384.069 257.933 386.034 256.765 387.603C255.597 389.172 253.859 390.218 251.925 390.515C251.662 388.579 252.168 386.617 253.335 385.05C254.501 383.482 256.235 382.435 258.166 382.131Z" fill="white"/>
<path d="M255.486 335.253C255.756 337.19 255.253 339.156 254.086 340.725C252.918 342.294 251.179 343.34 249.246 343.637C248.98 341.7 249.485 339.737 250.652 338.169C251.819 336.601 253.555 335.554 255.486 335.253Z" fill="white"/>
<path d="M249.324 347.31C249.594 349.246 249.092 351.21 247.926 352.779C246.76 354.347 245.024 355.394 243.092 355.693C242.822 353.758 243.324 351.793 244.49 350.224C245.656 348.656 247.392 347.609 249.324 347.31Z" fill="white"/>
<path d="M263.956 338.537C264.219 340.472 263.713 342.433 262.547 343.999C261.38 345.565 259.645 346.611 257.716 346.912C257.453 344.977 257.959 343.016 259.126 341.45C260.292 339.884 262.027 338.839 263.956 338.537Z" fill="white"/>
<path d="M216.421 338.537C216.158 340.472 216.664 342.433 217.831 343.999C218.997 345.565 220.732 346.611 222.661 346.912C222.929 344.977 222.425 343.013 221.257 341.446C220.09 339.879 218.352 338.834 216.421 338.537Z" fill="white"/>
<path d="M256.826 320.526C257.094 322.462 256.589 324.425 255.422 325.992C254.254 327.559 252.517 328.604 250.586 328.901C250.323 326.966 250.829 325.005 251.995 323.439C253.162 321.873 254.896 320.827 256.826 320.526Z" fill="white"/>
<path d="M253.801 304.874C254.542 306.681 254.545 308.707 253.81 310.516C253.074 312.326 251.66 313.775 249.868 314.554C249.123 312.747 249.118 310.72 249.853 308.909C250.589 307.098 252.007 305.649 253.801 304.874Z" fill="white"/>
<path d="M232.107 300.786C233.87 301.629 235.23 303.13 235.896 304.967C236.562 306.803 236.48 308.827 235.668 310.604C233.905 309.763 232.542 308.262 231.876 306.425C231.21 304.588 231.293 302.562 232.107 300.786Z" fill="white"/>
<path d="M242.219 319.497C243.506 320.968 244.165 322.884 244.053 324.835C243.942 326.786 243.069 328.615 241.623 329.929C240.336 328.459 239.678 326.542 239.789 324.591C239.901 322.641 240.773 320.811 242.219 319.497Z" fill="white"/>
<path d="M241.684 291.633C242.971 293.104 243.629 295.02 243.517 296.971C243.406 298.922 242.533 300.751 241.087 302.065C239.803 300.594 239.146 298.678 239.257 296.727C239.369 294.777 240.24 292.949 241.684 291.633Z" fill="white"/>
<path d="M218.979 351.061C218.716 352.997 219.222 354.959 220.388 356.526C221.555 358.093 223.289 359.141 225.219 359.444C225.485 357.508 224.98 355.545 223.813 353.977C222.646 352.409 220.91 351.362 218.979 351.061Z" fill="white"/>
<path d="M213.085 368.208C212.822 370.143 213.328 372.104 214.494 373.67C215.661 375.236 217.396 376.281 219.325 376.583C219.588 374.648 219.082 372.687 217.915 371.121C216.749 369.555 215.014 368.509 213.085 368.208Z" fill="white"/>
<path d="M228.728 374.431C228.465 376.366 228.971 378.327 230.138 379.893C231.305 381.458 233.039 382.504 234.968 382.806C235.232 380.871 234.725 378.91 233.559 377.344C232.392 375.778 230.658 374.732 228.728 374.431Z" fill="white"/>
<path d="M233.006 350.672C232.198 352.451 232.12 354.476 232.789 356.312C233.458 358.148 234.821 359.648 236.584 360.49C237.393 358.711 237.471 356.686 236.802 354.849C236.133 353.013 234.77 351.513 233.006 350.672Z" fill="white"/>
<path d="M221.927 413.885C223.879 413.992 225.795 413.327 227.262 412.033C228.729 410.74 229.628 408.921 229.765 406.971C227.813 406.864 225.897 407.529 224.43 408.822C222.963 410.116 222.064 411.934 221.927 413.885Z" fill="white"/>
<path d="M252.323 410.419C252.785 412.318 253.974 413.959 255.634 414.99C257.294 416.022 259.292 416.36 261.199 415.933C260.737 414.035 259.548 412.393 257.888 411.362C256.228 410.331 254.23 409.992 252.323 410.419Z" fill="white"/>
<path d="M225.453 335.253C225.187 337.189 225.692 339.153 226.859 340.721C228.026 342.288 229.762 343.335 231.693 343.637C231.958 341.7 231.453 339.737 230.286 338.169C229.12 336.601 227.384 335.554 225.453 335.253Z" fill="white"/>
<path d="M225.453 321.33C225.189 323.265 225.695 325.226 226.862 326.791C228.029 328.357 229.763 329.403 231.693 329.704C231.956 327.769 231.45 325.808 230.283 324.243C229.116 322.677 227.382 321.631 225.453 321.33Z" fill="white"/>
<path d="M266.074 450.125C155.343 465.465 62.6229 513.441 1 579.256V617.993H649V549.914C553.817 471.057 411.834 429.978 266.074 450.125Z" fill="#B3D74C" stroke="#263238" stroke-miterlimit="10"/>
<path d="M171.375 617.992L165.092 599.073L137.953 596.42L120.555 609.254C120.555 609.254 111.766 615.304 107.185 617.517C106.83 617.694 106.467 617.853 106.096 617.992H171.375Z" fill="white" stroke="#263238" stroke-miterlimit="10"/>
<path d="M172.784 616.229L166.5 597.31L139.362 594.657L121.964 607.491C121.964 607.491 113.175 613.541 108.594 615.762C108.288 615.912 107.925 616.068 107.505 616.229H172.784Z" fill="white" stroke="#263238" stroke-miterlimit="10"/>
<path d="M112.492 582.09L108.663 596.256L125.456 593.931L147.391 561.218L147.46 548.384L174.754 542.99L179.49 532.714L207.597 526.414L207.476 512.801L228.045 509.145C228.045 509.145 241.407 500.883 244.372 500.503C247.336 500.122 262.072 502.058 262.072 502.058L279.038 509.301L299.78 506.432L315.571 495.421L338.673 493.83C338.673 493.83 345.328 496.112 350.263 495.429C355.198 494.747 368.75 487.253 368.75 487.253L400.667 497.27L414.159 502.62L416.872 514.271L432.058 513.769L435.368 506.094L449.3 508.981L449.767 515.334L421.591 525.653L442.386 540.415L481.572 551.028L500.025 564.511L522.107 563.076L525.235 554.624L532.781 551.979L503.464 540L487.328 540.605L499.428 535.722L484.476 524.184L501.088 521.081L524.993 527.39L534.293 545.35L547.517 553.941L561.656 575.219L586.297 584.631L592.277 610.274L617.722 618.779L617.981 621H641.636L623.884 605.892L614.489 583.136L632.821 582.998L631.956 575.098L618.932 576.101L628.897 570.708L639.475 563.629L637.661 555.851L622.907 545.065L616.468 528.695C523.057 465.897 396.078 435.163 266.074 453.132C206.992 461.316 153.069 478.801 106.234 503.26L131.981 512.767L121.42 528.661L103.374 534.374L106.295 555.618L98.9311 559.075L91.0489 568.988L95.3012 582.816L112.492 582.09Z" fill="white" stroke="#263238" stroke-miterlimit="10"/>
<path d="M112.492 579.091L108.663 593.257L125.456 590.932L147.391 558.219L147.46 545.376L174.754 539.991L179.49 529.715L207.597 523.415L207.476 509.794L228.045 506.146C228.045 506.146 241.407 497.875 244.372 497.504C247.336 497.132 262.072 499.059 262.072 499.059L279.038 506.293L299.78 503.441L315.571 492.43L338.673 490.814C338.673 490.814 345.328 493.104 350.263 492.422C355.198 491.739 368.75 484.246 368.75 484.246L400.667 494.263L414.159 499.612L416.873 511.263L432.058 510.762L435.368 503.087L449.3 505.974L449.767 512.317L421.583 522.637L442.386 537.407L481.572 548.012L500.025 561.503L522.115 560.043L525.244 551.59L532.789 548.945L503.473 536.967L487.302 537.597L499.402 532.714L484.476 521.15L501.088 518.047L524.993 524.357L534.293 542.334L547.517 550.925L561.656 572.203L586.297 581.624L592.277 607.258L617.73 615.797L617.99 618.018H641.645L623.884 602.885L614.489 580.128L632.821 579.99L631.956 572.091L618.932 573.085L628.897 567.7L639.476 560.622L637.661 552.843L622.907 542.057L616.469 525.688C523.058 462.889 396.078 432.112 266.074 450.124C207.026 458.3 153.104 475.784 106.269 500.295L132.016 509.802L121.454 525.696L103.408 531.409L106.329 552.705L98.9657 556.162L91.0835 566.084L95.3357 579.912L112.492 579.091Z" fill="white" stroke="#263238" stroke-miterlimit="10"/>
<path d="M307.974 616.973L317.368 600.439L334.913 610.032L351.801 617.992H432.473L428.601 605.08L435.394 590.5L421.263 578.02L350.799 564.528L322.329 569.273L318.864 584.994L304.646 576.533L283.826 583.43L287.836 609.341L307.974 616.973Z" fill="white" stroke="#263238" stroke-miterlimit="10"/>
<path d="M307.706 614.82L317.101 598.278L334.637 607.88L351.533 615.84H432.196L428.333 602.919L435.126 588.348L420.995 575.867L350.531 562.376L322.061 567.121L318.596 582.834L304.378 574.381L283.558 581.278L287.568 607.18L307.706 614.82Z" fill="white" stroke="#263238" stroke-miterlimit="10"/>
<path d="M478.599 587.725L463.059 586.671L452.213 596.99L464.382 618.563L477.225 616.782L478.599 587.725Z" fill="white" stroke="#263238" stroke-miterlimit="10"/>
<path d="M478.599 585.297L463.059 584.242L452.213 594.571L464.382 616.143L477.225 614.362L478.599 585.297Z" fill="white" stroke="#263238" stroke-miterlimit="10"/>
<path d="M573.92 589.757L537.067 580.422L527.975 572.065L520.62 575.487L531.164 590.068L541.804 609.445L557.706 612.055L559.945 608.537L548.338 598.114L575.839 602.323L573.92 589.757Z" fill="white" stroke="#263238" stroke-miterlimit="10"/>
<path d="M573.92 587.872L537.067 578.538L527.975 570.181L520.62 573.603L531.164 588.184L541.804 607.561L557.706 610.162L559.945 606.653L548.338 596.23L575.839 600.439L573.92 587.872Z" fill="white" stroke="#263238" stroke-miterlimit="10"/>
<path d="M413.865 445.431C413.865 445.431 411.436 454.549 411.203 455.128C410.97 455.707 403.589 461.939 402.897 462.518C402.206 463.097 401.169 465.638 402.318 467.021C403.468 468.403 407.971 468.524 411.436 468.637C414.902 468.749 419.863 466.908 421.367 466.441C422.871 465.975 425.057 466.208 426.215 464.48C427.178 462.802 427.581 460.861 427.365 458.94C427.253 457.436 426.907 454.67 427.14 453.754C427.374 452.838 428.065 447.747 428.065 447.747C428.065 447.747 417.754 442.432 413.865 445.431Z" fill="#263238" stroke="#263238" stroke-miterlimit="10"/>
<path d="M421.332 466.441C422.836 465.983 425.023 466.208 426.181 464.479C426.709 463.641 427.059 462.702 427.209 461.722C424.893 462.008 421.056 463.926 418.212 465.18C415.369 466.433 413.027 465.301 408.861 465.301C406.503 465.3 404.148 465.156 401.808 464.868C401.731 465.242 401.734 465.627 401.816 465.999C401.898 466.372 402.057 466.722 402.284 467.029C403.433 468.412 407.936 468.533 411.402 468.645C414.867 468.758 419.828 466.908 421.332 466.441Z" fill="white" stroke="#263238" stroke-miterlimit="10"/>
<path d="M432.879 354.345L422.508 404.334L414.202 441.386C414.202 441.386 412.586 442.777 412.932 443.356C413.28 444.029 413.588 444.722 413.856 445.431C413.856 445.431 418.472 445.776 419.042 445.889C421.157 446.816 423.203 447.897 425.161 449.121C426.311 449.934 429.085 448.896 429.543 447.972C430.001 447.047 429.085 443.235 429.085 443.235L429.318 438.62L438.203 405.605L454.486 369.582L457.943 370.161L467.295 404.68L488.659 404.334L480.458 355.935L434.046 349.695L432.879 354.345Z" fill="#263238" stroke="#263238" stroke-miterlimit="10"/>
<path d="M470.224 283.759C470.224 283.759 448.246 282.592 444.737 284.114C441.228 285.635 420.416 300.129 419.249 301.762C418.083 303.396 416.916 305.738 417.261 307.371C417.607 309.005 419.249 314.285 419.249 314.285L429.776 311.243L429.301 307.613C429.301 307.613 431.289 308.901 432.576 308.477C433.864 308.054 445.67 304.156 445.67 304.156L440.657 331.58L431.297 351.683C431.297 351.683 430.952 355.192 433.89 359.167C436.829 363.143 443.008 367.352 443.008 367.352L450.726 359.988L453.535 371.224C453.535 371.224 466.862 369.945 472.35 366.315C475.994 363.789 479.262 360.76 482.056 357.318L478.547 340.032L484.978 326.817L486.032 346.575L484.165 365.044L494.45 366.565C494.45 366.565 498.547 350.196 498.892 347.742C499.238 345.287 502.401 318.278 500.88 312.09C499.67 306.965 496.89 302.345 492.929 298.875L489.895 296.283L470.224 283.759Z" fill="#B3D74C" stroke="#263238" stroke-miterlimit="10"/>
<path d="M476.361 340.145C476.361 340.145 466.646 347.292 454.183 348.787" stroke="#263238" stroke-miterlimit="10"/>
<path d="M473.068 338.857C473.068 338.857 470.682 341.242 460.596 343.256" stroke="#263238" stroke-miterlimit="10"/>
<path d="M473.033 283.759C472.403 283.5 471.717 283.407 471.041 283.489C470.364 283.571 469.72 283.824 469.17 284.226C467.441 285.626 461.573 299.895 461.573 299.895L467.07 300.474L465.894 303.983L470.579 311.235L482.264 307.605L482.964 304.917C482.964 304.917 487.415 309.834 487.881 309.013C488.348 308.192 488.582 297.086 488.582 297.086C488.582 297.086 490.682 293.577 487.06 288.556C483.439 283.535 473.033 283.759 473.033 283.759Z" stroke="#263238" stroke-miterlimit="10"/>
<path d="M473.725 281.244C473.725 281.244 472.791 278.755 471.797 280.622C470.803 282.489 471.426 285.471 471.426 285.471C469.815 287.364 468.703 289.631 468.193 292.065C467.07 296.542 470.786 304.623 471.175 305.375C471.564 306.127 471.547 309.973 471.547 309.973L479.265 303.378C479.88 303.673 480.564 303.794 481.244 303.728C481.923 303.663 482.571 303.413 483.119 303.007C485.358 301.641 489.083 299.152 490.95 296.421C492.817 293.69 497.173 286.222 497.173 286.222L480.509 277.865L473.725 281.244Z" fill="white" stroke="#263238" stroke-miterlimit="10"/>
<path d="M473.725 281.244L475.28 284.2C475.28 284.2 474.036 287.147 474.658 287.303C475.28 287.458 476.836 285.756 476.836 285.756C476.836 285.756 478.236 285.756 478.703 285.133C479.162 284.433 479.577 283.706 479.948 282.955C479.948 282.955 485.228 283.422 486.784 284.2C488.34 284.978 490.673 287.458 493.629 287.769C496.585 288.081 499.065 287.769 500.31 285.289C501.554 282.809 500.932 279.377 500.932 279.377C500.932 279.377 500.31 273.155 497.976 271.296C495.643 269.438 494.519 270.052 494.519 270.052C494.519 270.052 489.852 266.007 487.83 266.163C487.259 266.197 486.709 266.39 486.242 266.72C485.775 267.05 485.409 267.503 485.185 268.029C485.185 268.029 483.785 267.563 480.215 268.807C476.646 270.052 475.548 274.399 475.393 275.955C475.002 277.766 474.444 279.537 473.725 281.244Z" fill="#263238" stroke="#263238" stroke-miterlimit="10"/>
<path d="M479.265 291.443C479.835 290.172 483.707 292.307 485.479 294.303" stroke="#263238" stroke-miterlimit="10"/>
<path d="M488.193 294.424C488.193 294.424 491.053 293.802 492.419 294.182" stroke="#263238" stroke-miterlimit="10"/>
<path d="M480.63 293.422C480.823 293.957 481.214 294.398 481.722 294.654C482.23 294.909 482.817 294.96 483.361 294.796" stroke="#263238" stroke-miterlimit="10"/>
<path d="M482.618 298.409C483.119 299.403 485.358 300.898 486.222 300.025C487.086 299.152 487.346 295.92 487.346 295.92" stroke="#263238" stroke-miterlimit="10"/>
<path d="M478.884 296.879C478.941 297.377 479.101 297.858 479.355 298.291C479.608 298.724 479.949 299.099 480.356 299.392C480.763 299.685 481.227 299.889 481.718 299.992C482.208 300.095 482.715 300.095 483.206 299.99" stroke="#263238" stroke-miterlimit="10"/>
<path d="M488.461 295.297C488.461 295.297 489.083 297.026 491.053 295.548" stroke="#263238" stroke-miterlimit="10"/>
<path d="M472.048 286.508L473.042 287.259C473.042 287.259 472.636 290.449 472.636 292.558C472.636 294.666 475.125 299.394 475.868 301.01C476.611 302.626 479.23 303.37 479.23 303.37" stroke="#263238" stroke-miterlimit="10"/>
<path d="M475.903 301.019L473.293 302.514" stroke="#263238" stroke-miterlimit="10"/>
<path d="M445.67 304.104C447.134 301.19 447.97 298.002 448.125 294.744" stroke="#263238" stroke-miterlimit="10"/>
<path d="M484.735 327.837C484.735 327.837 488.365 322.928 489.178 317.665" stroke="#263238" stroke-miterlimit="10"/>
<path d="M429.776 311.235L435.152 323.507C435.152 323.507 439.473 326.429 439.828 326.783C440.182 327.137 441.349 329.938 440.995 330.759C440.64 331.58 439.473 327.95 438.661 328.416C438.245 328.681 437.899 329.042 437.654 329.47C437.408 329.898 437.271 330.378 437.252 330.871C437.373 331.58 440.882 338.243 440.528 338.477C440.24 338.672 439.914 338.804 439.571 338.863C439.228 338.923 438.877 338.909 438.54 338.822C437.607 338.589 437.607 338.356 437.019 338.356C435.807 338.383 434.596 338.305 433.398 338.122C432.464 337.889 430.589 335.434 430.122 334.613C429.655 333.792 428.955 326.783 428.955 326.783L419.249 314.277C419.249 314.277 424.858 309.48 429.776 311.235Z" fill="white" stroke="#263238" stroke-miterlimit="10"/>
<path d="M433.864 331.346C433.864 331.346 436.206 335.434 436.552 336.368C436.781 337.011 436.938 337.678 437.019 338.356" stroke="#263238" stroke-miterlimit="10"/>
<path d="M431.522 333.567C431.522 333.567 433.398 336.722 435.385 338.01" stroke="#263238" stroke-miterlimit="10"/>
<path d="M446.429 343.878L444.531 344.756L468.75 397.051L470.648 396.172L446.429 343.878Z" fill="white" stroke="#263238" stroke-miterlimit="10"/>
<path d="M443.89 345.036L436.924 330.629C436.822 330.419 436.763 330.191 436.751 329.958C436.74 329.725 436.775 329.492 436.856 329.273C436.937 329.055 437.061 328.854 437.221 328.685C437.381 328.515 437.574 328.38 437.788 328.287C438.202 328.091 438.676 328.068 439.107 328.222C439.538 328.376 439.891 328.694 440.087 329.108L447.053 343.55L443.89 345.036Z" fill="#263238" stroke="#263238" stroke-miterlimit="10"/>
<path d="M482.143 389.78C482.143 389.78 469.559 397.403 465.056 402.252C460.553 407.1 447.157 422.458 444.849 424.878C442.542 427.298 438.263 433.193 437.002 434.385C435.74 435.578 433.881 435.422 434.461 438.188C435.04 440.954 435.385 441.196 435.385 441.887C435.385 442.579 435.264 444.886 435.264 444.886C435.264 444.886 429.837 450.547 429.145 452.164C428.454 453.78 429.145 457.012 429.958 458.741C430.77 460.469 432.378 461.627 432.378 461.973C432.378 462.319 430.995 467.055 430.649 468.325C430.303 469.596 431.341 472.595 431.341 472.595C431.341 472.595 428.687 476.519 430.537 478.368C432.386 480.218 435.722 480.564 436.301 480.097C436.881 479.63 476.715 478.023 479.826 476.752C482.938 475.482 485.721 474.211 488.028 471.446C489.301 469.874 490.774 468.476 492.41 467.288C492.41 467.288 494.493 465.326 494.493 463.356C494.493 461.385 494.26 460.936 494.372 460.357C494.631 459.731 494.984 459.148 495.418 458.628L496.222 455.629C496.222 455.629 495.53 456.321 496.801 449.623C498.071 442.924 498.305 441.196 498.305 441.196L498.071 436.926L497.605 432.536C497.605 432.536 493.681 413.02 491.607 407.947C489.532 402.874 488.374 399.52 488.149 398.82C487.946 397.443 487.83 396.055 487.804 394.663C487.804 394.663 489.887 391.085 489.532 390.281C489.178 389.478 483.214 388.164 482.143 389.78Z" fill="#9C9C9C" stroke="#263238" stroke-miterlimit="10"/>
<path d="M484.139 365.01L483.413 377.257C483.413 377.257 480.941 385.416 481.157 386.919C481.373 388.423 483.837 392.287 483.837 392.287C483.837 392.287 484.589 394.326 485.237 393.574C485.885 392.822 486.412 392.399 486.101 391.103L485.781 389.815C485.781 389.815 488.037 390.463 488.141 391.431C488.245 392.399 487.605 395.191 488.357 395.398C489.109 395.605 491.581 390.567 491.814 389.927C492.047 389.288 490.085 386.47 489.662 385.519C489.238 384.569 487.518 382.408 487.518 381.768C487.518 381.129 494.433 366.531 494.433 366.531L484.139 365.01Z" fill="white" stroke="#263238" stroke-miterlimit="10"/>
<path d="M485.773 389.814L484.269 386.383" stroke="#263238" stroke-miterlimit="10"/>
<path d="M476.75 404.101C476.331 405.428 475.982 406.775 475.704 408.137C475.532 409.266 475.301 410.386 475.012 411.491L474.321 412.761C474.321 412.761 471.901 414.723 471.901 415.873C472.002 417.155 472.192 418.429 472.471 419.684C472.471 419.684 478.591 421.413 479.386 421.413C480.181 421.413 481.114 420.255 481.114 420.255C481.114 420.255 481.806 421.525 482.618 421.525C483.43 421.525 484.468 421.058 484.58 421.525C484.692 421.992 485.038 422.908 485.038 422.908C485.766 421.917 486.424 420.878 487.009 419.796C487.467 418.751 488.504 419.217 487.7 417.255C487.359 416.204 486.765 415.251 485.971 414.481C485.626 414.135 486.663 414.369 485.626 414.135C484.828 413.955 484.053 413.682 483.318 413.323C482.647 413.011 481.992 412.665 481.356 412.286L480.898 410.445C480.898 410.445 481.244 408.595 481.244 408.129C481.186 407.655 481.07 407.191 480.898 406.746L479.74 405.942L476.75 404.101Z" fill="white" stroke="#263238" stroke-miterlimit="10"/>
<path d="M479.749 407.221C479.749 407.221 478.366 412.07 478.132 412.528C477.899 412.986 481.019 416.573 481.365 416.573C481.711 416.573 484.485 415.76 484.943 416.106C485.571 416.762 486.044 417.55 486.326 418.413" stroke="#263238" stroke-miterlimit="10"/>
<path d="M478.686 417.376C478.107 416.918 476.836 416.797 475.566 414.948C474.499 413.605 473.929 411.935 473.949 410.22L474.062 408.95L476.378 407.333C476.378 407.333 476.49 407.333 476.257 406.175C476.024 405.017 475.522 405.086 475.522 405.086L471.253 395.865L468.09 397.334L472.359 406.547C472.359 406.547 471.296 410.566 472.221 413.565C473.146 416.564 476.948 418.647 477.648 418.647C478.349 418.647 479.291 417.878 478.686 417.376Z" fill="#263238" stroke="#263238" stroke-miterlimit="10"/>
<path d="M482.739 392.995L477.346 401.007" stroke="#263238" stroke-miterlimit="10"/>
<path d="M483.612 396.055L483.033 407.714" stroke="#263238" stroke-miterlimit="10"/>
<path d="M458.66 446.9C461.288 447.686 463.836 448.713 466.275 449.968" stroke="#263238" stroke-miterlimit="10"/>
<path d="M438.298 444.143C443.645 444.071 448.983 444.608 454.209 445.742" stroke="#263238" stroke-miterlimit="10"/>
<path d="M458.807 444.575C458.807 444.575 471.192 448.654 477.311 453.901" stroke="#263238" stroke-miterlimit="10"/>
<path d="M432.326 460.314C433.68 457.183 435.781 454.432 438.445 452.302" stroke="#263238" stroke-miterlimit="10"/>
<path d="M440.053 449.095C440.053 449.095 436.111 451.567 434.659 453.607" stroke="#263238" stroke-miterlimit="10"/>
<path d="M450 425.89L447.624 428.405" stroke="#263238" stroke-miterlimit="10"/>
<path d="M468.167 406.4C468.167 406.4 458.833 416.443 452.282 423.452" stroke="#263238" stroke-miterlimit="10"/>
<path d="M495.461 440.47C495.455 442.872 495.244 445.269 494.83 447.635" stroke="#263238" stroke-miterlimit="10"/>
<path d="M487.985 409.607C487.985 409.607 493.81 431.317 494.977 435.984C495.046 436.235 495.098 436.494 495.15 436.762" stroke="#263238" stroke-miterlimit="10"/>
<path d="M482.35 432.475C484.744 432.994 485.513 433.944 485.513 433.944" stroke="#263238" stroke-miterlimit="10"/>
<path d="M451.271 433.21C451.271 433.21 463.215 434.671 473.128 432.778C474.911 432.42 476.721 432.215 478.539 432.164" stroke="#263238" stroke-miterlimit="10"/>
<path d="M475.894 429.424C475.894 429.424 467.735 430.289 464.658 430.885" stroke="#263238" stroke-miterlimit="10"/>
<path d="M237.552 385.286C237.552 385.286 230.828 391.854 231.606 394.508C232.384 397.161 247.708 416.711 247.708 416.711C247.708 416.711 249.894 420.929 251.303 423.115C252.712 425.302 256.152 427.653 257.241 427.177C258.33 426.702 262.876 422.493 263.498 421.551C264.12 420.609 260.369 417.956 258.649 417.022C256.93 416.089 251.303 412.96 249.739 409.045C248.174 405.13 243.291 396.271 243.291 396.271L246.1 387.205L237.552 385.286Z" fill="white" stroke="#263238" stroke-miterlimit="10"/>
<path d="M257.198 427.177C258.295 426.711 262.833 422.493 263.455 421.551C264.077 420.609 260.326 417.956 258.606 417.022C257.18 416.244 253.066 413.954 250.828 410.972L246.619 415.345L247.682 416.72C247.682 416.72 249.869 420.937 251.277 423.124C252.686 425.311 256.109 427.653 257.198 427.177Z" fill="#B3D74C" stroke="#263238" stroke-miterlimit="10"/>
<path d="M258.14 420.151C258.14 420.151 254.233 424.991 254.078 426.711C253.922 428.431 252.98 435.31 252.98 435.31C252.98 435.31 246.256 444.532 246.256 446.874C246.256 449.217 252.358 454.696 256.42 457.816C260.482 460.936 278.027 463.918 280.49 463.918C282.953 463.918 301.284 462.509 302.693 460.789C304.102 459.069 304.422 454.221 302.693 450.003C300.965 445.785 289.556 436.088 288.623 435.155C287.689 434.221 285.166 424.68 282.685 422.493C280.205 420.307 269.237 419.831 267.517 419.987C265.797 420.142 259.548 419.987 258.14 420.151Z" fill="#9C9C9C" stroke="#263238" stroke-miterlimit="10"/>
<path d="M289.288 457.868C295.468 460.686 297.594 461.705 299.089 459.994C300.096 458.948 300.678 457.565 300.723 456.114" stroke="#263238" stroke-miterlimit="10"/>
<path d="M258.114 422.406C258.114 422.406 255.737 430.047 256.74 435.31C257.742 440.574 276.661 452.224 285.684 456.234L286.505 456.606" stroke="#263238" stroke-miterlimit="10"/>
<path d="M284.578 440.211C286.168 442.354 287.439 443.962 287.439 443.962" stroke="#263238" stroke-miterlimit="10"/>
<path d="M267.802 422.406C267.802 422.406 277.698 430.047 280.455 434.308C281.319 435.656 282.348 437.108 283.333 438.473" stroke="#263238" stroke-miterlimit="10"/>
<path d="M265.011 422.778C265.011 422.778 269.522 428.923 271.147 434.187" stroke="#263238" stroke-miterlimit="10"/>
<path d="M253.481 436.192C253.152 437.629 253.29 439.133 253.876 440.486C254.462 441.839 255.466 442.969 256.739 443.711" stroke="#263238" stroke-miterlimit="10"/>
<path d="M255.322 416.555L260.171 415.924C260.171 415.924 263.628 419.209 264.388 419.52C265.149 419.831 266.264 421.248 265.175 421.706C264.086 422.164 260.326 419.675 260.326 419.675C259.174 420.096 257.957 420.31 256.731 420.306L255.322 420.151" fill="#B3D74C"/>
<path d="M255.322 416.555L260.171 415.924C260.171 415.924 263.628 419.209 264.388 419.52C265.149 419.831 266.264 421.248 265.175 421.706C264.086 422.164 260.326 419.675 260.326 419.675C259.174 420.096 257.957 420.31 256.731 420.306L255.322 420.151" stroke="#263238" stroke-miterlimit="10"/>
<path d="M262.358 361.077C262.358 361.077 253.879 357.093 239.299 351.484C224.719 345.875 213.621 344.25 201.271 347.249C188.92 350.248 179.958 356.972 180.451 368.813C180.943 380.653 193.544 413.556 192.671 415.682C191.798 417.809 183.692 425.189 181.323 433.253C178.955 441.317 175.844 461.048 175.472 462.552C175.101 464.056 172.473 463.295 172.231 467.288C171.989 471.281 171.004 475.516 171.004 476.648C171.004 477.781 178.782 478.645 184.832 479.241C190.882 479.838 196.431 479.743 198.177 478.247C199.923 476.752 199.793 475.257 198.669 474.79C196.268 473.522 194.18 471.732 192.559 469.553C190.442 466.683 187.451 464.946 187.08 463.071C186.708 461.195 187.944 456.217 187.944 456.217C187.944 456.217 195.048 438.015 198.41 432.536C201.772 427.056 207.762 423.305 208.782 417.325C209.413 412.573 209.664 407.778 209.533 402.986C209.533 402.986 215.894 416.953 216.387 419.572C216.88 422.19 212.93 425.924 214.659 435.993C216.387 446.062 218.773 462.665 218.98 463.408C219.187 464.151 217.485 463.909 217.606 466.277C217.727 468.645 216.862 475.629 217.485 476C218.107 476.372 224.84 476.752 227.459 476.13C230.077 475.508 236.058 474.756 237.925 475.266C239.792 475.776 246.032 476.009 247.527 474.885C249.022 473.762 249.022 470.4 248.521 470.4C246.085 469.855 243.764 468.884 241.667 467.53C238.426 465.543 232.065 463.918 230.95 462.423C229.835 460.927 229.455 460.184 229.455 459.553C229.455 458.922 230.077 442.475 229.576 438.24C229.075 434.005 230.077 422.407 230.077 419.416C230.077 416.426 231.693 413.314 230.7 407.947C229.706 402.58 225.592 388.008 224.589 384.888C223.587 381.768 221.996 377.283 221.996 377.283C224.5 380.471 227.633 383.11 231.201 385.035C234.3 386.572 237.604 387.657 241.01 388.259L252.246 397.23L254.986 389.002L255.487 385.891C256.598 384.924 257.64 383.882 258.607 382.771C259.973 381.155 261.848 379.651 262.928 377.533C264.009 375.416 262.358 361.077 262.358 361.077Z" fill="white" stroke="#263238" stroke-miterlimit="10"/>
<path d="M229.575 438.24C229.074 434.005 230.077 422.406 230.077 419.416C230.077 416.426 231.693 413.314 230.699 407.947C229.705 402.58 225.591 388.008 224.588 384.888C223.586 381.768 221.996 377.282 221.996 377.282C223.349 378.986 224.875 380.544 226.55 381.932L223.811 372.805C223.811 372.805 211.866 371.941 205.894 367.015C201.573 363.506 197.597 354.051 195.678 348.969C186.344 352.521 180.07 358.856 180.484 368.847C180.986 380.688 193.578 413.591 192.705 415.717C191.832 417.843 183.725 425.224 181.357 433.288C179.629 439.182 177.52 451.213 176.344 457.911C177.689 459.351 179.404 460.395 181.302 460.927C183.2 461.459 185.207 461.459 187.105 460.927C187.301 459.344 187.59 457.775 187.969 456.225C187.969 456.225 195.073 438.024 198.435 432.544C201.797 427.065 207.787 423.314 208.807 417.333C209.438 412.581 209.69 407.787 209.559 402.995C209.559 402.995 215.92 416.961 216.412 419.58C216.905 422.199 212.955 425.933 214.684 436.001C215.876 442.872 217.354 452.742 218.253 458.585C222.108 459.199 226.352 459.129 229.593 457.081C229.67 452.189 229.964 441.533 229.575 438.24Z" fill="#263238" stroke="#263238" stroke-miterlimit="10"/>
<path d="M239.281 351.484C224.701 345.875 213.603 344.25 201.253 347.249C195.445 348.658 190.38 350.896 186.698 354.103C186.024 356.609 186.534 360.153 191.158 364.569C200.51 373.419 204.866 376.911 211.849 376.911C218.832 376.911 220.95 375.787 220.95 375.787C220.95 375.787 221.71 377.378 222.678 379.245C222.272 378.121 221.996 377.257 221.996 377.257C224.497 380.454 227.63 383.102 231.2 385.035C234.3 386.572 237.603 387.657 241.01 388.259L252.245 397.23L254.985 389.002L255.486 385.891C256.597 384.924 257.639 383.882 258.606 382.771C259.972 381.155 261.847 379.651 262.928 377.533C264.008 375.416 262.305 361.112 262.305 361.112C262.305 361.112 253.879 357.093 239.281 351.484Z" fill="#B3D74C" stroke="#263238" stroke-miterlimit="10"/>
<path d="M267.966 362.452C267.966 362.452 271.207 357.465 279.565 356.972C287.923 356.48 293.523 358.338 297.386 368.208C301.25 378.078 298.882 384.283 298.882 387.524C298.882 390.765 300.377 399.495 298.761 402.217C297.144 404.94 294.647 405.83 294.517 407.325C294.48 407.749 294.566 408.174 294.766 408.55C294.965 408.925 295.269 409.236 295.641 409.442C295.641 409.442 294.145 410.696 290.403 408.198C286.661 405.7 286.946 402.589 286.79 400.843C286.635 399.097 285.062 401.966 281.553 400.221C278.044 398.475 278.96 394.862 279.064 393.739C279.167 392.615 277.69 392.745 275.693 392.122C273.697 391.5 272.582 386.764 273.204 384.396C273.826 382.028 272.452 379.029 270.084 379.029C267.716 379.029 266.35 375.666 266.35 371.302C266.444 368.288 266.989 365.304 267.966 362.452Z" fill="#263238" stroke="#263238" stroke-miterlimit="10"/>
<path d="M292.521 380.774C291.916 382.295 290.758 383.53 289.279 384.231C286.687 385.606 284.794 385.606 283.8 386.824C282.806 388.043 282.936 389.944 282.175 390.186C281.415 390.428 279.435 389.322 279.435 389.322C279.435 389.322 277.318 389.702 274.327 390.074C271.337 390.446 269.963 389.702 269.712 388.077C269.462 386.453 269.462 380.23 270.084 378.977C270.484 378.196 270.943 377.448 271.458 376.738C271.458 376.738 270.335 373.497 272.452 371.872C274.569 370.247 275.823 370.878 276.324 372.253C276.583 373.324 276.538 374.446 276.194 375.494L280.187 374.37C280.187 374.37 282.78 377.231 285.295 378.233C287.81 379.236 291.898 378.484 291.898 378.484L292.521 380.774Z" fill="white" stroke="#263238" stroke-miterlimit="10"/>
<path d="M276.566 388.492C276.643 387.641 276.941 386.825 277.43 386.124" stroke="#263238" stroke-miterlimit="10"/>
<path d="M284.172 384.266L281.682 384.517C281.448 384.39 281.244 384.215 281.083 384.003C280.922 383.791 280.809 383.547 280.75 383.288C280.691 383.028 280.688 382.759 280.742 382.499C280.795 382.238 280.904 381.992 281.06 381.777" stroke="#263238" stroke-miterlimit="10"/>
<path d="M283.549 381.155C283.549 381.155 285.917 382.148 285.416 384.396" stroke="#263238" stroke-miterlimit="10"/>
<path d="M274.077 362.08C274.077 362.08 269.842 361.708 267.966 362.452C266.091 363.195 262.357 361.077 262.357 361.077C262.357 361.077 260.24 360.835 259.764 365.442C259.445 368.126 260.016 370.84 261.389 373.169C261.389 373.169 258.399 371.181 258.65 374.171C258.9 377.162 261.51 380.904 262.262 381.777C263.014 382.65 260.767 381.526 261.398 383.765C262.029 386.003 266.506 388.501 268.502 388.881C270.499 389.261 270.749 388.129 270.87 383.523C270.872 381.264 271.081 379.011 271.493 376.79C271.493 376.79 270.118 371.181 271.994 368.683C273.869 366.185 277.102 365.442 277.352 362.953" fill="#263238"/>
<path d="M274.077 362.08C274.077 362.08 269.842 361.708 267.966 362.452C266.091 363.195 262.357 361.077 262.357 361.077C262.357 361.077 260.24 360.835 259.764 365.442C259.445 368.126 260.016 370.84 261.389 373.169C261.389 373.169 258.399 371.181 258.65 374.171C258.9 377.162 261.51 380.904 262.262 381.777C263.014 382.65 260.767 381.526 261.398 383.765C262.029 386.003 266.506 388.501 268.502 388.881C270.499 389.261 270.749 388.129 270.87 383.523C270.872 381.264 271.081 379.011 271.493 376.79C271.493 376.79 270.118 371.181 271.994 368.683C273.869 366.185 277.102 365.442 277.352 362.953" stroke="#263238" stroke-miterlimit="10"/>
<path d="M207.51 358.398C207.51 358.398 214.494 368.994 218.979 373.091" stroke="#263238" stroke-miterlimit="10"/>
<path d="M213.871 358.027C213.871 358.027 215.237 365.131 217.856 369.746" stroke="#263238" stroke-miterlimit="10"/>
<path d="M195.791 363.013C195.791 363.013 206.387 372.235 215.366 372.737" stroke="#263238" stroke-miterlimit="10"/>
<path d="M238.546 377.594L241.295 386.444" stroke="#263238" stroke-miterlimit="10"/>
<path d="M198.167 478.256C199.896 476.761 199.784 475.265 198.66 474.799C196.258 473.53 194.17 471.741 192.55 469.561C190.432 466.692 187.442 464.955 187.07 463.079C187.05 462.976 187.036 462.872 187.027 462.768C185.895 462.656 183.907 462.578 182.749 463.148C181.02 464.013 181.254 466.139 179.197 466.139C177.14 466.139 176.604 465.577 176.491 464.739C176.34 464.133 175.975 463.602 175.463 463.243L175.195 463.096C174.417 463.961 172.447 463.892 172.239 467.323C171.988 471.307 170.986 475.542 170.986 476.666C170.986 477.789 178.764 478.662 184.814 479.258C190.864 479.855 196.422 479.751 198.167 478.256Z" fill="white" stroke="#263238" stroke-miterlimit="10"/>
<path d="M248.52 470.4C246.084 469.855 243.764 468.884 241.666 467.53C238.495 465.577 232.332 463.987 231.036 462.518C229.708 463.475 228.272 464.273 226.758 464.894C224.424 465.759 221.062 465.828 220.595 464.894C220.209 464.257 219.648 463.744 218.979 463.416C219.23 464.168 217.484 463.918 217.605 466.286C217.726 468.654 216.862 475.637 217.484 476.009C218.106 476.381 224.839 476.761 227.458 476.139C230.077 475.516 236.057 474.764 237.924 475.274C239.791 475.784 246.031 476.018 247.526 474.894C249.021 473.77 249.021 470.4 248.52 470.4Z" fill="white" stroke="#263238" stroke-miterlimit="10"/>
<path d="M241.917 385.078C241.917 385.078 240.189 404.153 241.416 414.87C242.643 425.587 244.787 454.886 244.787 454.886L251.139 453.883L250.275 413.496L252.643 396.297L241.917 385.078Z" fill="white" stroke="#263238" stroke-miterlimit="10"/>
<path d="M256.61 465.508C256.61 465.508 261.623 466.511 262.755 466.26C263.887 466.009 267.768 465.396 268.269 465.257C268.77 465.119 274.034 463.382 275.537 465.136C277.041 466.891 277.266 470.771 275.287 472.656C273.308 474.54 269.392 474.911 265.883 474.384C262.374 473.857 260.983 473.58 258.865 473.381C256.748 473.183 257.906 471.981 255.132 472.681C252.357 473.381 246.964 473.252 244.458 473.001C241.952 472.751 238.944 471.126 239.575 466.735C240.206 462.345 243.11 461.817 244.035 462.457C244.959 463.097 256.61 465.508 256.61 465.508Z" fill="white" stroke="#263238" stroke-miterlimit="10"/>
<path d="M276.289 466.511C276.289 466.511 280.922 466.39 281.043 467.012C281.154 468.021 281.069 469.043 280.792 470.02C280.542 470.521 276.791 470.65 276.791 470.65L276.289 466.511Z" fill="#B3D74C" stroke="#263238" stroke-miterlimit="10"/>
<path d="M251.018 451.394L243.533 453.512C243.533 453.512 243.162 461.117 244.034 462.483C244.807 463.998 245.432 465.584 245.901 467.219C245.901 467.219 246.031 471.584 246.532 472.707C247.034 473.831 249.237 473.477 250.396 473.952C251.787 474.531 253.853 470.538 254.207 469.224C254.38 468.542 255.253 471.955 255.132 472.681C255.113 472.879 255.163 473.077 255.273 473.243C255.383 473.408 255.546 473.53 255.736 473.589C255.926 473.648 256.13 473.64 256.314 473.566C256.498 473.492 256.652 473.356 256.748 473.183C257.483 471.091 257.528 468.82 256.878 466.701C256.126 464.972 252.513 456.978 252.262 456.105C252.012 455.232 251.018 451.394 251.018 451.394Z" fill="#B3D74C" stroke="#263238" stroke-miterlimit="10"/>
<path d="M251.199 469.285C251.16 470.32 251.03 471.349 250.81 472.362C250.515 472.917 250.126 473.417 249.661 473.84" stroke="#263238" stroke-miterlimit="10"/>
<path d="M248.693 468.87C248.693 468.87 248.572 471.376 248.442 472.076C248.303 472.639 248.088 473.179 247.803 473.684" stroke="#263238" stroke-miterlimit="10"/>
<path d="M371.87 459.182H321.595L317.152 369.556H376.312L371.87 459.182Z" fill="#B3D74C" stroke="#263238" stroke-miterlimit="10"/>
<path d="M379.294 367.464H314.171V371.648H379.294V367.464Z" fill="#B3D74C" stroke="#263238" stroke-miterlimit="10"/>
<path d="M371.368 412.692L363.045 426.132C362.69 426.739 362.173 427.237 361.552 427.569C360.931 427.902 360.231 428.056 359.528 428.016C357.747 428.016 355.967 428.016 354.014 428.016V432L353.737 432.061C353.253 431.196 352.769 430.41 352.294 429.58C351.058 427.428 349.813 425.259 348.612 423.098C348.525 422.944 348.472 422.774 348.455 422.598C348.439 422.423 348.46 422.245 348.517 422.078C350.245 418.837 351.974 415.613 353.841 412.148V417.022H361.835L355.621 406.167L365.725 400.316C367.617 403.773 369.493 407.178 371.368 410.583V412.692Z" fill="white"/>
<path d="M341.49 386.003C341.927 386.092 342.369 386.155 342.813 386.193C346.736 386.254 350.669 386.323 354.593 386.349C355.366 386.298 356.137 386.478 356.807 386.866C357.478 387.254 358.019 387.832 358.361 388.527C359.225 390.065 360.09 391.543 361.049 393.116L364.601 391.085L364.739 391.197C363.858 392.816 362.973 394.427 362.086 396.029C361.317 397.446 360.548 398.863 359.744 400.255C359.669 400.4 359.565 400.529 359.438 400.633C359.312 400.737 359.166 400.814 359.009 400.86C355.336 401.076 351.672 401.232 347.921 401.206C349.208 400.436 350.513 399.676 351.87 398.881L347.808 391.967C345.708 395.743 343.686 399.391 341.646 403.047L331.482 397.437C332.001 396.504 332.476 395.622 332.96 394.741C333.876 393.09 334.861 391.465 335.691 389.771C336.072 388.89 336.636 388.099 337.345 387.451C338.054 386.803 338.893 386.312 339.805 386.012L341.49 386.003Z" fill="white"/>
<path d="M327.282 404.533L323.729 402.381V402.2H327.662C329.451 402.2 331.24 402.303 333.02 402.2C333.576 402.109 334.146 402.205 334.641 402.474C335.136 402.744 335.526 403.17 335.752 403.686C337.376 406.538 339.157 409.304 340.773 412.251L336.72 409.814L332.709 416.771H345.241V428.43H343.513C340.92 428.43 338.258 428.43 335.622 428.43C334.599 428.471 333.587 428.208 332.713 427.674C331.84 427.14 331.144 426.36 330.713 425.431C328.69 421.516 326.668 417.601 324.568 413.72C324.11 413.013 323.874 412.184 323.893 411.341C323.911 410.498 324.183 409.68 324.671 408.993C325.562 407.575 326.357 406.089 327.282 404.533Z" fill="white"/>
</svg>
