<svg width="846" height="68" viewBox="0 0 846 68" fill="none" xmlns="http://www.w3.org/2000/svg">
<path d="M814.471 9.45976L768.583 9.71484L768.831 67.511L814.719 67.2559L814.471 9.45976Z" fill="#EBEBEB"/>
<path d="M838.159 9.328L814.464 9.45972L814.712 67.2633L838.407 67.1316L838.159 9.328Z" fill="#DBDBDB"/>
<path d="M795.452 22.0633L794.481 22.0706H793.755L793.335 21.113L792.752 22.078L791.949 20.1038L791.21 22.0854L789.06 22.1001L788.083 22.1075L787.72 20.7815L787.396 22.1075H786.755L786.703 9.62137L795.4 9.56982L795.452 22.0633Z" fill="white"/>
<path d="M836.736 63.1679C834.953 59.0673 833.198 54.9543 831.471 50.8292L826.291 38.4241L821.162 25.9602C819.461 21.8055 817.777 17.6312 816.11 13.4373C817.885 17.533 819.642 21.6459 821.382 25.776L826.563 38.181L831.685 50.6376C833.39 54.807 835.074 58.9838 836.736 63.1679Z" fill="#EBEBEB"/>
<path d="M836.529 13.3268C834.897 17.5355 833.248 21.7294 831.582 25.9086L826.563 38.4315L821.473 50.8955C819.772 55.0403 818.045 59.1729 816.292 63.2932C817.924 59.0894 819.571 54.8979 821.233 50.7187L826.291 38.1737L831.374 25.7097C833.071 21.5796 834.789 17.452 836.529 13.3268Z" fill="#EBEBEB"/>
<path d="M761 22.2623L806.882 22.0118L814.446 9.4668L768.564 9.71725L761 22.2623Z" fill="#DBDBDB"/>
<path d="M822.114 21.9308L845.738 21.7982L838.07 9.34155L814.446 9.46679L822.114 21.9308Z" fill="#EBEBEB"/>
<path d="M0 9.88318H26.8623L34.8343 18.7229H7.97192L0 9.88318Z" fill="#B3D74C"/>
<path opacity="0.1" d="M0 9.88318H26.8623L34.8343 18.7229H7.97192L0 9.88318Z" fill="black"/>
<path d="M28.1447 62.6268H12.0325C11.2683 62.6268 12.0325 34.9438 12.0325 31.8572C12.0325 28.7707 16.6952 20.8076 16.6952 19.0397V4.8446H23.4885V19.0176C23.4885 20.7634 28.1447 28.7633 28.1447 31.8351C28.1447 34.9069 28.9089 62.6268 28.1447 62.6268Z" fill="white"/>
<path d="M28.1445 62.6267L13.2497 62.693H12.0517C12.0261 62.6994 11.9996 62.6994 11.974 62.693C11.8444 62.6341 11.838 62.4131 11.8056 62.2952C11.3264 55.6655 11.6631 49.0357 11.6826 42.3617L11.8315 32.7043C11.8338 31.0629 12.1825 29.4461 12.8482 27.9898C13.9103 24.9622 15.7106 22.1704 16.4489 19.0396C16.4489 18.4503 16.4489 17.5148 16.4489 16.9255C16.4489 12.9255 16.4489 8.82242 16.4489 4.85192V4.59412H16.6755H23.4688H23.6696V4.82247C23.6696 8.28469 23.6696 14.3325 23.6243 17.721V18.6418C23.6243 20.1593 24.4791 21.4558 25.0166 22.8333C25.852 24.8075 27.1472 27.4668 27.7753 29.5147C28.1573 30.6914 28.3184 31.9461 28.2481 33.1979L28.4618 47.9307C28.4618 51.6139 28.5265 55.2971 28.4618 58.9803C28.4532 60.0539 28.3927 61.1261 28.2805 62.1921C28.2805 62.3394 28.2805 62.5236 28.138 62.612L28.1445 62.6267ZM28.1445 62.6267C28.261 62.5383 28.2545 62.3468 28.2869 62.2068C28.3905 61.1403 28.4424 60.0681 28.4424 58.9951C28.4942 55.3119 28.4424 51.6286 28.3776 47.9454C28.3323 46.9362 28.0732 31.8498 28.002 31.3784C27.6252 29.6003 27.0392 27.8881 26.2599 26.2882L24.7834 23.0028C24.2395 21.64 23.3458 20.2404 23.3328 18.6713C23.3328 18.0231 23.3328 16.5498 23.3328 15.9015C23.3328 13.5001 23.3328 7.31967 23.294 4.85192L23.4947 5.07293H16.7014L16.9216 4.82247C16.9216 8.04405 16.9216 11.2632 16.9216 14.4798C16.9216 15.6364 16.9216 17.5884 16.9216 18.7081C16.9216 19.8278 16.4165 20.7413 16.0668 21.6547C15.1278 23.8204 14.0852 25.9346 13.2174 28.1298C12.654 29.6031 12.1035 31.0764 12.2006 32.6896C12.0646 42.0376 11.553 52.3653 11.9092 61.6544C11.9243 61.9468 11.9699 62.2361 12.0452 62.5162C12.0452 62.553 12.1553 62.5162 12.233 62.5162H15.4192L28.1574 62.5751L28.1445 62.6267Z" fill="#263238"/>
<path d="M26.9595 60.8514H13.2046C12.557 60.8514 13.2046 34.767 13.2046 32.1224C13.2046 29.4779 17.7377 21.4338 17.7377 19.9457V13.4338H22.4393V19.9457C22.4393 21.419 26.9725 29.5221 26.9725 32.1224C26.9725 34.7228 27.6071 60.8514 26.9595 60.8514Z" fill="#B3D74C"/>
<g opacity="0.1">
<path d="M26.2083 41.6252C26.1024 41.5181 25.9711 41.4489 25.8308 41.4264C25.6905 41.404 25.5474 41.4292 25.4197 41.4989C25.2919 41.5686 25.1851 41.6797 25.1127 41.8182C25.0403 41.9567 25.0055 42.1165 25.0126 42.2775C25.0198 42.4384 25.0686 42.5934 25.153 42.7229C25.2374 42.8524 25.3535 42.9507 25.4868 43.0053C25.62 43.06 25.7646 43.0686 25.9022 43.0302C26.0398 42.9917 26.1643 42.9078 26.2601 42.7891C26.3887 42.6268 26.4555 42.4131 26.4457 42.1949C26.436 41.9768 26.3507 41.7718 26.2083 41.6252Z" fill="black"/>
<path d="M22.1414 22.907C22.0355 22.7999 21.9042 22.7308 21.7639 22.7083C21.6236 22.6858 21.4806 22.711 21.3528 22.7807C21.2251 22.8504 21.1182 22.9615 21.0458 23.1C20.9734 23.2386 20.9386 23.3984 20.9457 23.5593C20.9529 23.7203 21.0017 23.8753 21.0861 24.0048C21.1705 24.1343 21.2866 24.2325 21.4199 24.2872C21.5532 24.3419 21.6977 24.3505 21.8353 24.312C21.9729 24.2735 22.0974 24.1897 22.1932 24.0709C22.2577 23.991 22.3076 23.8973 22.3399 23.7953C22.3722 23.6933 22.3864 23.585 22.3816 23.4766C22.3768 23.3683 22.353 23.2622 22.3118 23.1644C22.2706 23.0666 22.2127 22.9791 22.1414 22.907Z" fill="black"/>
<path d="M26.3056 38.7595C26.2339 38.6784 26.1428 38.6233 26.0436 38.6011C25.9444 38.5788 25.8417 38.5905 25.7484 38.6347C25.655 38.6788 25.5753 38.7534 25.5192 38.849C25.4631 38.9447 25.4331 39.057 25.4331 39.172C25.4331 39.287 25.4631 39.3994 25.5192 39.495C25.5753 39.5907 25.655 39.6653 25.7484 39.7094C25.8417 39.7535 25.9444 39.7652 26.0436 39.743C26.1428 39.7208 26.2339 39.6657 26.3056 39.5846C26.3533 39.5305 26.3913 39.4662 26.4171 39.3954C26.443 39.3246 26.4563 39.2487 26.4563 39.172C26.4563 39.0954 26.443 39.0194 26.4171 38.9487C26.3913 38.8779 26.3533 38.8136 26.3056 38.7595Z" fill="black"/>
<path d="M18.9941 57.4407C18.8927 57.3443 18.7624 57.2962 18.6306 57.3066C18.4987 57.3169 18.3755 57.385 18.2867 57.4964C18.198 57.6078 18.1506 57.754 18.1545 57.9043C18.1584 58.0546 18.2133 58.1973 18.3077 58.3026C18.3569 58.3575 18.4153 58.4005 18.4794 58.429C18.5436 58.4576 18.6122 58.4711 18.681 58.4688C18.7499 58.4665 18.8176 58.4484 18.8801 58.4156C18.9427 58.3828 18.9988 58.3359 19.045 58.2779C19.0913 58.2198 19.1268 58.1517 19.1493 58.0776C19.1719 58.0036 19.181 57.9251 19.1763 57.847C19.1715 57.7688 19.1529 57.6925 19.1216 57.6227C19.0903 57.5529 19.047 57.491 18.9941 57.4407Z" fill="black"/>
<path d="M15.5554 33.301C15.4544 33.1978 15.3218 33.1438 15.1861 33.1507C15.0505 33.1576 14.9226 33.2248 14.8301 33.3378C14.7382 33.4521 14.69 33.6033 14.6961 33.758C14.7021 33.9127 14.762 34.0584 14.8625 34.1629C14.9629 34.2674 15.0958 34.3222 15.2318 34.3153C15.3679 34.3084 15.4959 34.2403 15.5878 34.1261C15.6785 34.0111 15.726 33.8603 15.7199 33.706C15.7139 33.5517 15.6548 33.4063 15.5554 33.301Z" fill="black"/>
<path d="M23.8577 42.0818C23.8229 42.0423 23.7814 42.0113 23.7358 41.9907C23.6901 41.97 23.6413 41.9601 23.5922 41.9616C23.5431 41.963 23.4947 41.9758 23.4501 41.9992C23.4055 42.0225 23.3655 42.0559 23.3326 42.0974C23.2996 42.1388 23.2745 42.1875 23.2586 42.2403C23.2427 42.2932 23.2364 42.3492 23.24 42.4049C23.2437 42.4606 23.2573 42.5149 23.28 42.5644C23.3027 42.614 23.334 42.6578 23.372 42.6932C23.4407 42.7684 23.5324 42.8103 23.6277 42.8103C23.7231 42.8103 23.8148 42.7684 23.8836 42.6932C23.9195 42.6525 23.9476 42.6037 23.9659 42.5499C23.9842 42.4961 23.9924 42.4386 23.99 42.3809C23.9875 42.3233 23.9745 42.2669 23.9517 42.2154C23.9289 42.1639 23.8969 42.1183 23.8577 42.0818Z" fill="black"/>
<path d="M17.5436 56.1075C17.4723 56.0332 17.378 55.9942 17.2814 55.9991C17.1849 56.0039 17.094 56.0522 17.0288 56.1332C16.9635 56.2143 16.9292 56.3216 16.9335 56.4314C16.9377 56.5412 16.9801 56.6446 17.0514 56.7189C17.1227 56.7931 17.217 56.8321 17.3135 56.8273C17.4101 56.8224 17.501 56.7742 17.5662 56.6931C17.6315 56.612 17.6658 56.5048 17.6615 56.3949C17.6573 56.2851 17.6149 56.1817 17.5436 56.1075Z" fill="black"/>
</g>
<path d="M24.0648 2.95142H16.1123V4.84459H24.0648V2.95142Z" fill="white"/>
<path d="M24.0647 2.95136C21.3966 3.07659 18.7609 3.19446 16.1122 3.20919L16.3389 2.95136V4.84453L16.0928 4.56461C18.4436 4.56461 21.7333 4.61616 24.0453 4.74139L23.9611 4.84453L24.0453 2.95136H24.0647ZM24.0647 2.95136L24.1489 4.84453V4.93293C22.7954 5.00659 21.4354 5.03606 20.082 5.07289L16.1057 5.11709H15.8596C15.8596 4.7414 15.8596 3.06921 15.8596 2.68616C18.5277 2.68616 21.403 2.8114 24.0323 2.95136H24.0647Z" fill="#263238"/>
<path d="M24.0648 0.756226H16.1123V2.6494H24.0648V0.756226Z" fill="white"/>
<path d="M24.0647 0.756249C21.3966 0.881478 18.7609 0.999345 16.1122 1.01408L16.3389 0.756249V2.64942L16.0928 2.3695C18.4436 2.3695 21.7333 2.42106 24.0453 2.55366L23.9611 2.64942L24.0453 0.756249H24.0647ZM24.0647 0.756249L24.1489 2.64942V2.73782C22.7954 2.81885 21.4354 2.84096 20.082 2.88515H16.1057H15.8596C15.8596 2.5021 15.8596 0.837277 15.8596 0.454224C18.5277 0.454224 21.403 0.572091 24.0323 0.712053L24.0647 0.756249Z" fill="#263238"/>
<path d="M18.981 54.1701C21.7385 54.1701 23.974 50.1366 23.974 45.161C23.974 40.1854 21.7385 36.1519 18.981 36.1519C16.2234 36.1519 13.988 40.1854 13.988 45.161C13.988 50.1366 16.2234 54.1701 18.981 54.1701Z" fill="white"/>
<path d="M23.4948 15.0986H16.6951V18.7303H23.4948V15.0986Z" fill="#455A64"/>
<path d="M28.3776 42.2365H11.8057V48.0928H28.3776V42.2365Z" fill="#455A64"/>
<path d="M39.7043 62.6268H23.5662C22.802 62.6268 23.5662 34.9438 23.5662 31.8572C23.5662 28.7707 28.2224 20.8076 28.2224 19.0397V4.8446H35.0157V19.0176C35.0157 20.7634 39.6784 28.7633 39.6784 31.8351C39.6784 34.9069 40.462 62.6268 39.7043 62.6268Z" fill="white"/>
<path d="M39.7042 62.6268C35.171 62.6268 28.0086 62.6931 23.5596 62.6857C23.3394 62.5163 23.3783 61.9491 23.3265 61.6839C23.1192 58.4648 23.171 55.2382 23.171 52.0191C23.171 46.4427 23.3459 38.3618 23.4171 32.697C23.4194 31.0556 23.7681 29.4388 24.4339 27.9825C25.5024 24.9549 27.2962 22.163 28.0345 19.0323C28.0345 17.7653 28.0345 15.7764 28.0345 14.502C28.0345 11.2829 28.0345 8.06374 28.0345 4.84462V4.58679H28.2611H35.0544H35.2228V4.81515C35.2228 8.27736 35.2228 14.3252 35.1775 17.7137V18.6345C35.1775 20.152 36.0323 21.4485 36.5633 22.826C37.585 24.9968 38.5058 27.2269 39.3221 29.5074C39.7061 30.6836 39.8694 31.9382 39.8013 33.1906L40.015 47.9234C40.0474 51.6066 40.0798 55.2898 40.015 58.973C40.0086 60.0464 39.9502 61.1187 39.8402 62.1848C39.8402 62.3321 39.8402 62.5163 39.6977 62.6047L39.7042 62.6268ZM39.7042 62.6268C39.8143 62.5384 39.8078 62.3468 39.8402 62.2069C39.9459 61.1405 40 60.0683 40.0021 58.9951C40.0474 55.3119 40.0021 51.6287 39.9309 47.9455C39.892 46.9363 39.6265 31.8499 39.5552 31.3784C39.1807 29.6006 38.5969 27.8884 37.8197 26.2882L36.3431 23.0028C35.7992 21.64 34.9055 20.2404 34.8925 18.6714C34.8925 18.0231 34.8925 16.5498 34.8925 15.9016C34.8925 13.5001 34.8925 7.31972 34.8537 4.85197L35.0544 5.07298H28.2611L28.4878 4.82252C28.4878 8.0441 28.4878 11.2632 28.4878 14.4799C28.4878 15.6364 28.4878 17.5885 28.4878 18.7082C28.4878 19.8279 27.9827 20.7413 27.633 21.6548C26.7005 23.8205 25.6513 25.9347 24.79 28.1298C24.2266 29.6031 23.6762 31.0764 23.7733 32.6897C23.6373 42.0376 23.1257 52.3654 23.4819 61.6544C23.4918 61.9469 23.5353 62.2366 23.6114 62.5163C23.6114 62.5531 23.7215 62.5163 23.7992 62.5163H26.9854L39.7301 62.5752L39.7042 62.6268Z" fill="#263238"/>
<path d="M38.5126 60.8514H24.7771C24.1295 60.8514 24.7771 34.767 24.7771 32.1224C24.7771 29.4779 29.3103 21.4338 29.3103 19.9457V13.4338H34.0118V19.9457C34.0118 21.419 38.545 29.5221 38.545 32.1224C38.545 34.7228 39.1667 60.8514 38.5126 60.8514Z" fill="#B3D74C"/>
<g opacity="0.1">
<path d="M37.7678 41.6251C37.662 41.5146 37.5299 41.4424 37.388 41.4175C37.2462 41.3926 37.101 41.4161 36.9709 41.4851C36.8408 41.5541 36.7316 41.6654 36.6571 41.805C36.5827 41.9447 36.5464 42.1063 36.5527 42.2694C36.5591 42.4325 36.6078 42.5898 36.6928 42.7214C36.7778 42.853 36.8952 42.9529 37.0302 43.0085C37.1651 43.0642 37.3116 43.073 37.4509 43.0339C37.5903 42.9948 37.7164 42.9096 37.8131 42.7889C37.9425 42.6276 38.0104 42.4145 38.0019 42.1964C37.9934 41.9782 37.9092 41.7727 37.7678 41.6251Z" fill="black"/>
<path d="M33.7009 22.907C33.5951 22.7966 33.4629 22.7244 33.3211 22.6995C33.1792 22.6746 33.0341 22.6981 32.904 22.7671C32.7739 22.8361 32.6647 22.9474 32.5902 23.087C32.5158 23.2266 32.4795 23.3882 32.4858 23.5514C32.4922 23.7145 32.5409 23.8718 32.6259 24.0034C32.7109 24.135 32.8283 24.2349 32.9633 24.2905C33.0983 24.3462 33.2447 24.355 33.3841 24.3159C33.5234 24.2768 33.6494 24.1915 33.7462 24.0709C33.8111 23.9915 33.8614 23.8982 33.8943 23.7964C33.9272 23.6947 33.942 23.5865 33.9377 23.4782C33.9335 23.3699 33.9104 23.2636 33.8697 23.1656C33.829 23.0675 33.7717 22.9796 33.7009 22.907Z" fill="black"/>
<path d="M37.8584 38.7596C37.7829 38.6831 37.6893 38.6338 37.5893 38.6177C37.4893 38.6017 37.3873 38.6197 37.2963 38.6695C37.2052 38.7193 37.1292 38.7987 37.0777 38.8975C37.0263 38.9964 37.0017 39.1104 37.0071 39.2251C37.0125 39.3399 37.0477 39.4502 37.1081 39.5423C37.1686 39.6343 37.2516 39.704 37.3468 39.7424C37.442 39.7809 37.5451 39.7864 37.643 39.7583C37.741 39.7302 37.8294 39.6698 37.8972 39.5846C37.9425 39.5277 37.9775 39.4611 38.0001 39.3887C38.0227 39.3163 38.0324 39.2396 38.0288 39.1629C38.0252 39.0862 38.0083 39.011 37.979 38.9418C37.9498 38.8726 37.9088 38.8107 37.8584 38.7596Z" fill="black"/>
<path d="M30.5535 57.4408C30.4787 57.3636 30.3855 57.3132 30.2856 57.2961C30.1857 57.2791 30.0836 57.296 29.9921 57.3449C29.9007 57.3937 29.824 57.4723 29.7717 57.5706C29.7195 57.669 29.694 57.7828 29.6985 57.8976C29.703 58.0124 29.7373 58.1231 29.797 58.2158C29.8568 58.3085 29.9393 58.3789 30.0342 58.4183C30.1292 58.4577 30.2322 58.4642 30.3304 58.4371C30.4286 58.41 30.5175 58.3504 30.5859 58.2659C30.6317 58.2094 30.6671 58.1432 30.6902 58.0711C30.7133 57.999 30.7237 57.9224 30.7207 57.8457C30.7177 57.769 30.7014 57.6937 30.6727 57.6242C30.644 57.5548 30.6035 57.4924 30.5535 57.4408Z" fill="black"/>
<path d="M27.1084 33.301C27.0073 33.1978 26.8747 33.1438 26.7391 33.1507C26.6035 33.1576 26.4756 33.2248 26.383 33.3378C26.3129 33.4235 26.2669 33.5309 26.2506 33.6464C26.2344 33.762 26.2488 33.8804 26.2919 33.9866C26.335 34.0928 26.405 34.1821 26.4929 34.2429C26.5808 34.3037 26.6825 34.3334 26.7853 34.3282C26.8881 34.323 26.9871 34.2831 27.0699 34.2136C27.1527 34.1441 27.2154 34.0481 27.25 33.938C27.2847 33.8278 27.2897 33.7084 27.2645 33.5949C27.2393 33.4815 27.1849 33.3792 27.1084 33.301Z" fill="black"/>
<path d="M35.4105 42.0818C35.3425 42.0049 35.2506 41.9617 35.1547 41.9617C35.0588 41.9617 34.9669 42.0049 34.8989 42.0818C34.8399 42.1637 34.8109 42.2684 34.8179 42.374C34.8249 42.4796 34.8673 42.5781 34.9364 42.6491C35.0055 42.7201 35.0959 42.7582 35.189 42.7554C35.2821 42.7527 35.3707 42.7093 35.4364 42.6343C35.493 42.5549 35.5217 42.4544 35.5169 42.3524C35.5122 42.2503 35.4742 42.1539 35.4105 42.0818Z" fill="black"/>
<path d="M29.0965 56.1074C29.0244 56.0404 28.9325 56.0074 28.8396 56.0153C28.7468 56.0233 28.6602 56.0715 28.5978 56.1501C28.5353 56.2287 28.5018 56.3316 28.5043 56.4375C28.5067 56.5433 28.5448 56.6441 28.6108 56.7188C28.6796 56.794 28.7712 56.836 28.8666 56.836C28.962 56.836 29.0537 56.794 29.1224 56.7188C29.1584 56.6782 29.1864 56.6293 29.2047 56.5756C29.223 56.5218 29.2313 56.4642 29.2288 56.4066C29.2264 56.349 29.2134 56.2926 29.1906 56.2411C29.1678 56.1895 29.1357 56.144 29.0965 56.1074Z" fill="black"/>
</g>
<path d="M35.6243 2.95142H27.6719V4.84459H35.6243V2.95142Z" fill="white"/>
<path d="M35.6243 2.95136C32.9498 3.07659 30.3141 3.19446 27.6719 3.20919L27.8985 2.95136V4.84453L27.6589 4.56461C30.0032 4.56461 33.2994 4.61616 35.6114 4.74139L35.5207 4.84453L35.6114 2.95136H35.6243ZM35.6243 2.95136L35.7085 4.84453V4.93293C34.355 5.00659 33.0016 5.03606 31.6481 5.07289L27.6719 5.11709H27.4517C27.4517 5.02132 27.4517 3.11342 27.4517 2.95136V2.68616H27.6783C30.2687 2.68616 33.0793 2.81139 35.6308 2.94399L35.6243 2.95136Z" fill="#263238"/>
<path d="M35.6243 0.756226H27.6719V2.6494H35.6243V0.756226Z" fill="white"/>
<path d="M35.6243 0.756249C32.9498 0.881478 30.3141 0.999345 27.6719 1.01408L27.8985 0.756249V2.64942L27.6589 2.3695C30.0032 2.3695 33.2994 2.42106 35.6114 2.55366L35.5207 2.64942L35.6114 0.756249H35.6243ZM35.6243 0.756249L35.7085 2.64942V2.73782C34.355 2.81885 33.0016 2.84096 31.6481 2.88515H27.6719H27.4517C27.4517 2.5021 27.4517 0.837277 27.4517 0.454224C30.1198 0.454224 33.0016 0.572091 35.6308 0.712053L35.6243 0.756249Z" fill="#263238"/>
<path d="M30.5406 54.1701C33.2981 54.1701 35.5335 50.1366 35.5335 45.161C35.5335 40.1854 33.2981 36.1519 30.5406 36.1519C27.7831 36.1519 25.5476 40.1854 25.5476 45.161C25.5476 50.1366 27.7831 54.1701 30.5406 54.1701Z" fill="white"/>
<path d="M35.0481 15.0986H28.2483V18.7303H35.0481V15.0986Z" fill="#455A64"/>
<path d="M39.9309 42.2365H23.3589V48.0928H39.9309V42.2365Z" fill="#455A64"/>
<path d="M51.2573 62.6268H35.1451C34.3874 62.6268 35.1451 34.9438 35.1451 31.8572C35.1451 28.7707 39.8078 20.8076 39.8078 19.0397V4.8446H46.6011V19.0176C46.6011 20.7634 51.2573 28.7633 51.2573 31.8351C51.2573 34.9069 52.0215 62.6268 51.2573 62.6268Z" fill="white"/>
<path d="M51.2574 62.6267L36.3626 62.693H35.2229C35.1973 62.6994 35.1707 62.6994 35.1451 62.693C35.0156 62.6341 35.0156 62.4131 34.9768 62.2952C34.4975 55.6655 34.8343 49.0357 34.8537 42.3617L35.0026 32.7043C35.0049 31.0629 35.3536 29.4461 36.0194 27.9898C37.0814 24.9622 38.8818 22.1704 39.62 19.0396C39.62 18.4503 39.62 17.5148 39.62 16.9255C39.62 12.9255 39.62 8.82242 39.62 4.85192V4.59412H39.8467H46.64H46.8407V4.82247C46.8407 8.28469 46.8407 14.3325 46.7954 17.721V18.6418C46.7954 20.1593 47.6502 21.4558 48.1878 22.8333C49.2067 25.0056 50.1275 27.2356 50.9465 29.5147C51.3285 30.6914 51.4896 31.9461 51.4193 33.1979L51.633 47.9307C51.6653 51.6139 51.6977 55.2971 51.633 58.9803C51.6276 60.054 51.567 61.1264 51.4516 62.1921C51.4192 62.3394 51.4516 62.5236 51.3092 62.612L51.2574 62.6267ZM51.2574 62.6267C51.3739 62.5383 51.3674 62.3468 51.3998 62.2068C51.5034 61.1403 51.5553 60.0681 51.5552 58.9951C51.607 55.3119 51.5552 51.6286 51.4905 47.9454C51.4451 46.9362 51.1861 31.8498 51.1149 31.3784C50.738 29.6003 50.1521 27.8881 49.3728 26.2882L47.8963 23.0028C47.3588 21.64 46.4587 20.2404 46.4457 18.6713C46.4457 18.0231 46.4457 16.5498 46.4457 15.9015C46.4457 13.5001 46.4133 7.31967 46.4069 4.85192L46.6076 5.07293H39.8143L40.0345 4.82247C40.0345 8.04405 40.0345 11.2632 40.0345 14.4798C40.0345 15.6364 40.0345 17.5884 40.0345 18.7081C40.0345 19.8278 39.5294 20.7413 39.1797 21.6547C38.2406 23.8204 37.198 25.9346 36.3303 28.1298C35.7668 29.6031 35.2164 31.0764 35.3135 32.6896C35.1775 42.0376 34.6659 52.3653 35.0221 61.6544C35.0371 61.9468 35.0828 62.2361 35.1581 62.5162C35.1581 62.553 35.2682 62.5162 35.3459 62.5162H38.5321L51.2703 62.5751L51.2574 62.6267Z" fill="#263238"/>
<path d="M50.0723 60.8514H36.3303C35.6827 60.8514 36.3303 34.767 36.3303 32.1224C36.3303 29.4779 40.8635 21.4338 40.8635 19.9457V13.4338H45.5844V19.9457C45.5844 21.419 50.1176 29.5221 50.1176 32.1224C50.1176 34.7228 50.7199 60.8514 50.0723 60.8514Z" fill="#B3D74C"/>
<g opacity="0.1">
<path d="M49.3209 41.6252C49.215 41.5181 49.0836 41.4489 48.9433 41.4264C48.803 41.404 48.66 41.4292 48.5322 41.4989C48.4045 41.5686 48.2977 41.6797 48.2253 41.8182C48.1528 41.9567 48.118 42.1165 48.1252 42.2775C48.1324 42.4384 48.1812 42.5934 48.2655 42.7229C48.3499 42.8524 48.466 42.9507 48.5993 43.0053C48.7326 43.06 48.8771 43.0686 49.0147 43.0302C49.1523 42.9917 49.2768 42.9078 49.3726 42.7891C49.5012 42.6268 49.568 42.4131 49.5583 42.1949C49.5486 41.9768 49.4632 41.7718 49.3209 41.6252Z" fill="black"/>
<path d="M45.254 22.907C45.1481 22.7999 45.0168 22.7308 44.8764 22.7083C44.7361 22.6858 44.5931 22.711 44.4654 22.7807C44.3376 22.8504 44.2308 22.9615 44.1584 23.1C44.0859 23.2386 44.0511 23.3984 44.0583 23.5593C44.0655 23.7203 44.1143 23.8753 44.1987 24.0048C44.283 24.1343 44.3991 24.2325 44.5324 24.2872C44.6657 24.3419 44.8102 24.3505 44.9478 24.312C45.0854 24.2735 45.21 24.1897 45.3058 24.0709C45.3703 23.991 45.4201 23.8973 45.4525 23.7953C45.4848 23.6933 45.4989 23.585 45.4941 23.4766C45.4893 23.3683 45.4656 23.2622 45.4244 23.1644C45.3831 23.0666 45.3252 22.9791 45.254 22.907Z" fill="black"/>
<path d="M49.418 38.7595C49.3432 38.6823 49.25 38.6319 49.1501 38.6149C49.0502 38.5978 48.9481 38.6147 48.8566 38.6636C48.7652 38.7124 48.6885 38.791 48.6363 38.8894C48.584 38.9877 48.5585 39.1015 48.563 39.2163C48.5675 39.3311 48.6018 39.4418 48.6615 39.5345C48.7213 39.6272 48.8038 39.6977 48.8987 39.737C48.9937 39.7764 49.0967 39.783 49.1949 39.7558C49.2931 39.7287 49.382 39.6691 49.4504 39.5846C49.4961 39.5281 49.5316 39.4619 49.5547 39.3898C49.5779 39.3177 49.5882 39.2411 49.5852 39.1644C49.5822 39.0877 49.5659 39.0124 49.5372 38.943C49.5085 38.8735 49.468 38.8111 49.418 38.7595Z" fill="black"/>
<path d="M42.1067 57.4407C42.0053 57.3443 41.875 57.2962 41.7431 57.3066C41.6113 57.3169 41.488 57.385 41.3993 57.4964C41.3105 57.6078 41.2632 57.754 41.2671 57.9043C41.271 58.0546 41.3259 58.1973 41.4202 58.3026C41.4694 58.3575 41.5278 58.4005 41.592 58.429C41.6561 58.4576 41.7247 58.4711 41.7936 58.4688C41.8624 58.4665 41.9301 58.4484 41.9927 58.4156C42.0552 58.3828 42.1113 58.3359 42.1576 58.2779C42.2038 58.2198 42.2393 58.1517 42.2619 58.0776C42.2844 58.0036 42.2936 57.9251 42.2888 57.847C42.2841 57.7688 42.2655 57.6925 42.2342 57.6227C42.2029 57.5529 42.1595 57.491 42.1067 57.4407Z" fill="black"/>
<path d="M38.668 33.301C38.5669 33.1978 38.4343 33.1438 38.2987 33.1507C38.163 33.1576 38.0352 33.2248 37.9427 33.3378C37.8508 33.4521 37.8025 33.6033 37.8086 33.758C37.8147 33.9127 37.8745 34.0584 37.975 34.1629C38.0755 34.2674 38.2084 34.3222 38.3444 34.3153C38.4804 34.3084 38.6084 34.2403 38.7003 34.1261C38.7911 34.0111 38.8385 33.8603 38.8324 33.706C38.8264 33.5517 38.7673 33.4063 38.668 33.301Z" fill="black"/>
<path d="M46.9702 42.0818C46.9354 42.0423 46.894 42.0113 46.8483 41.9907C46.8027 41.97 46.7538 41.9601 46.7047 41.9616C46.6556 41.963 46.6073 41.9758 46.5627 41.9992C46.518 42.0225 46.478 42.0559 46.4451 42.0974C46.4122 42.1388 46.387 42.1875 46.3711 42.2403C46.3552 42.2932 46.3489 42.3492 46.3526 42.4049C46.3563 42.4606 46.3699 42.5149 46.3925 42.5644C46.4152 42.614 46.4465 42.6578 46.4845 42.6932C46.5533 42.7684 46.6449 42.8103 46.7403 42.8103C46.8357 42.8103 46.9273 42.7684 46.9961 42.6932C47.0321 42.6525 47.0601 42.6037 47.0784 42.5499C47.0968 42.4961 47.105 42.4386 47.1025 42.3809C47.1001 42.3233 47.087 42.2669 47.0643 42.2154C47.0415 42.1639 47.0094 42.1183 46.9702 42.0818Z" fill="black"/>
<path d="M40.6561 56.1075C40.5849 56.0332 40.4905 55.9942 40.394 55.9991C40.2974 56.0039 40.2065 56.0522 40.1413 56.1332C40.076 56.2143 40.0418 56.3216 40.046 56.4314C40.0503 56.5412 40.0927 56.6446 40.164 56.7189C40.2352 56.7931 40.3295 56.8321 40.4261 56.8273C40.5226 56.8224 40.6135 56.7742 40.6788 56.6931C40.744 56.612 40.7783 56.5048 40.7741 56.3949C40.7698 56.2851 40.7274 56.1817 40.6561 56.1075Z" fill="black"/>
</g>
<path d="M47.1774 2.95142H39.2249V4.84459H47.1774V2.95142Z" fill="white"/>
<path d="M47.1774 2.95136C44.5093 3.07659 41.8735 3.19446 39.2248 3.20919L39.4515 2.95136V4.84453L39.2054 4.56461C41.5562 4.56461 44.846 4.61616 47.1579 4.74139L47.0737 4.84453L47.1579 2.95136H47.1774ZM47.1774 2.95136L47.2615 4.84453V4.93293C45.9081 5.00659 44.5481 5.03606 43.1946 5.07289L39.2184 5.11709H38.9788C38.9788 4.7414 38.9788 3.06921 38.9788 2.68616C41.6469 2.68616 44.5222 2.8114 47.1514 2.95136H47.1774Z" fill="#263238"/>
<path d="M47.1774 0.756226H39.2249V2.6494H47.1774V0.756226Z" fill="white"/>
<path d="M47.1774 0.756249C44.5093 0.881478 41.8735 0.999345 39.2248 1.01408L39.4515 0.756249V2.64942L39.2054 2.3695C41.5562 2.3695 44.846 2.42106 47.1579 2.55366L47.0737 2.64942L47.1579 0.756249H47.1774ZM47.1774 0.756249L47.2615 2.64942V2.73782C45.9081 2.81885 44.5481 2.84096 43.1946 2.88515H39.2184H38.9788C38.9788 2.5021 38.9788 0.837277 38.9788 0.454224C41.6469 0.454224 44.5222 0.572091 47.1514 0.712053L47.1774 0.756249Z" fill="#263238"/>
<path d="M42.0938 54.1701C44.8513 54.1701 47.0868 50.1366 47.0868 45.161C47.0868 40.1854 44.8513 36.1519 42.0938 36.1519C39.3362 36.1519 37.1008 40.1854 37.1008 45.161C37.1008 50.1366 39.3362 54.1701 42.0938 54.1701Z" fill="white"/>
<path d="M46.6076 15.0986H39.8079V18.7303H46.6076V15.0986Z" fill="#455A64"/>
<path d="M51.4904 42.2365H34.9185V48.0928H51.4904V42.2365Z" fill="#455A64"/>
<path d="M62.8168 62.6268H46.7046C45.9405 62.6268 46.7046 34.9438 46.7046 31.8572C46.7046 28.7707 51.3608 20.8076 51.3608 19.0397V4.8446H58.1541V19.0176C58.1541 20.7634 62.8168 28.7633 62.8168 31.8351C62.8168 34.9069 63.5745 62.6268 62.8168 62.6268Z" fill="white"/>
<path d="M62.8169 62.6267L47.9222 62.693H46.7306C46.7051 62.6996 46.6785 62.6996 46.6529 62.693C46.5169 62.6341 46.5169 62.4131 46.4845 62.2952C46.0053 55.6655 46.3421 49.0357 46.355 42.3617L46.5039 32.7043C46.5062 31.0629 46.8549 29.4461 47.5207 27.9898C48.5892 24.9622 50.3831 22.1704 51.1213 19.0396C51.1213 18.4503 51.1213 17.5148 51.1213 16.9255C51.1213 12.9255 51.0889 8.82242 51.1213 4.85192V4.59412H51.348H58.1413H58.342V4.82247C58.342 8.28469 58.342 14.3325 58.2967 17.721V18.6418C58.2967 20.1593 59.1515 21.4558 59.6826 22.8333C60.7042 25.0041 61.625 27.2343 62.4413 29.5147C62.8254 30.6909 62.9886 31.9456 62.9206 33.1979L63.1342 47.9307C63.1342 51.6139 63.199 55.2971 63.1342 58.9803C63.1278 60.0538 63.0695 61.126 62.9594 62.1921C62.927 62.3394 62.927 62.5236 62.8169 62.612V62.6267ZM62.8169 62.6267C62.927 62.5383 62.9205 62.3468 62.9529 62.2068C63.0587 61.1404 63.1127 60.0682 63.1148 58.9951C63.1602 55.3119 63.1148 51.6286 63.0436 47.9454C63.0047 46.9362 62.7392 31.8498 62.668 31.3784C62.2934 29.6006 61.7096 27.8884 60.9324 26.2882L59.4559 23.0028C58.9119 21.64 58.0182 20.2404 58.0053 18.6713C58.0053 18.0231 58.0053 16.5498 58.0053 15.9015C58.0053 13.5001 58.0053 7.31967 57.9664 4.85192L58.1672 5.07293H51.3739L51.6005 4.82247C51.6005 8.04405 51.6005 11.2632 51.6005 14.4798C51.6005 15.6364 51.6005 17.5884 51.6005 18.7081C51.6005 19.8278 51.0954 20.7413 50.7457 21.6547C49.8132 23.8204 48.7641 25.9346 47.9028 28.1298C47.3394 29.6031 46.7889 31.0764 46.886 32.6896C46.7501 42.0376 46.2384 52.3653 46.5946 61.6544C46.6045 61.9468 46.6481 62.2366 46.7241 62.5162C46.7241 62.553 46.8407 62.5162 46.9119 62.5162H50.0981L62.8428 62.5751L62.8169 62.6267Z" fill="#263238"/>
<path d="M61.6254 60.8514H47.8899C47.2423 60.8514 47.8899 34.767 47.8899 32.1224C47.8899 29.4779 52.423 21.4338 52.423 19.9457V13.4338H57.1246V19.9457C57.1246 21.419 61.6578 29.5221 61.6578 32.1224C61.6578 34.7228 62.2795 60.8514 61.6254 60.8514Z" fill="#B3D74C"/>
<g opacity="0.1">
<path d="M60.8806 41.6251C60.7748 41.5146 60.6427 41.4424 60.5008 41.4175C60.3589 41.3926 60.2138 41.4161 60.0837 41.4851C59.9536 41.5541 59.8444 41.6654 59.7699 41.805C59.6955 41.9447 59.6592 42.1063 59.6655 42.2694C59.6719 42.4325 59.7206 42.5898 59.8056 42.7214C59.8906 42.853 60.008 42.9529 60.143 43.0085C60.2779 43.0642 60.4244 43.073 60.5637 43.0339C60.7031 42.9948 60.8292 42.9096 60.9259 42.7889C61.0553 42.6276 61.1232 42.4145 61.1147 42.1964C61.1062 41.9782 61.022 41.7727 60.8806 41.6251Z" fill="black"/>
<path d="M56.8137 22.907C56.7079 22.7966 56.5757 22.7244 56.4339 22.6995C56.292 22.6746 56.1469 22.6981 56.0168 22.7671C55.8867 22.8361 55.7775 22.9474 55.703 23.087C55.6286 23.2266 55.5923 23.3882 55.5986 23.5514C55.605 23.7145 55.6537 23.8718 55.7387 24.0034C55.8237 24.135 55.9411 24.2349 56.0761 24.2905C56.211 24.3462 56.3575 24.355 56.4968 24.3159C56.6362 24.2768 56.7622 24.1915 56.859 24.0709C56.9239 23.9915 56.9742 23.8982 57.0071 23.7964C57.04 23.6947 57.0547 23.5865 57.0505 23.4782C57.0463 23.3699 57.0232 23.2636 56.9825 23.1656C56.9418 23.0675 56.8845 22.9796 56.8137 22.907Z" fill="black"/>
<path d="M60.9713 38.7595C60.8682 38.656 60.7332 38.6033 60.596 38.6129C60.4588 38.6226 60.3305 38.6939 60.2395 38.8111C60.1485 38.9283 60.1021 39.0819 60.1106 39.238C60.1191 39.3941 60.1818 39.54 60.2848 39.6435C60.334 39.6984 60.3924 39.7414 60.4566 39.77C60.5207 39.7985 60.5893 39.812 60.6581 39.8097C60.727 39.8074 60.7947 39.7893 60.8573 39.7565C60.9199 39.7237 60.976 39.6768 61.0222 39.6187C61.0685 39.5607 61.1039 39.4926 61.1265 39.4185C61.149 39.3445 61.1582 39.2661 61.1534 39.1879C61.1487 39.1097 61.1301 39.0334 61.0988 38.9636C61.0675 38.8938 61.0241 38.8319 60.9713 38.7816V38.7595Z" fill="black"/>
<path d="M53.6664 57.4408C53.5948 57.3597 53.5036 57.3046 53.4044 57.2823C53.3053 57.2601 53.2025 57.2718 53.1092 57.3159C53.0159 57.3601 52.9361 57.4347 52.88 57.5303C52.8239 57.6259 52.7939 57.7383 52.7939 57.8533C52.7939 57.9683 52.8239 58.0807 52.88 58.1763C52.9361 58.272 53.0159 58.3466 53.1092 58.3907C53.2025 58.4348 53.3053 58.4465 53.4044 58.4243C53.5036 58.4021 53.5948 58.3469 53.6664 58.2658C53.7142 58.2118 53.7521 58.1475 53.778 58.0767C53.8039 58.0059 53.8172 57.93 53.8172 57.8533C53.8172 57.7766 53.8039 57.7007 53.778 57.6299C53.7521 57.5592 53.7142 57.4949 53.6664 57.4408Z" fill="black"/>
<path d="M50.2211 33.301C50.1201 33.1978 49.9875 33.1438 49.8519 33.1507C49.7162 33.1576 49.5884 33.2248 49.4958 33.3378C49.4257 33.4235 49.3797 33.5309 49.3634 33.6464C49.3472 33.762 49.3616 33.8804 49.4047 33.9866C49.4478 34.0928 49.5178 34.1821 49.6057 34.2429C49.6936 34.3037 49.7953 34.3334 49.8981 34.3282C50.0009 34.323 50.0999 34.2831 50.1827 34.2136C50.2654 34.1441 50.3282 34.0481 50.3628 33.938C50.3975 33.8278 50.4025 33.7084 50.3773 33.5949C50.3521 33.4815 50.2977 33.3792 50.2211 33.301Z" fill="black"/>
<path d="M58.5362 42.0819C58.4856 42.024 58.421 41.9845 58.3506 41.9684C58.2802 41.9523 58.2072 41.9604 58.1408 41.9915C58.0744 42.0227 58.0177 42.0756 57.9778 42.1434C57.9378 42.2113 57.9165 42.2912 57.9165 42.3728C57.9165 42.4545 57.9378 42.5344 57.9778 42.6022C58.0177 42.6701 58.0744 42.723 58.1408 42.7541C58.2072 42.7853 58.2802 42.7934 58.3506 42.7773C58.421 42.7612 58.4856 42.7217 58.5362 42.6638C58.6023 42.5856 58.6392 42.4813 58.6392 42.3728C58.6392 42.2643 58.6023 42.1601 58.5362 42.0819Z" fill="black"/>
<path d="M52.2093 56.1074C52.1372 56.0404 52.0453 56.0074 51.9524 56.0153C51.8596 56.0233 51.773 56.0715 51.7105 56.1501C51.6481 56.2287 51.6146 56.3316 51.6171 56.4375C51.6195 56.5433 51.6576 56.6441 51.7236 56.7188C51.7923 56.794 51.884 56.836 51.9794 56.836C52.0748 56.836 52.1665 56.794 52.2352 56.7188C52.2712 56.6782 52.2992 56.6293 52.3175 56.5756C52.3358 56.5218 52.3441 56.4642 52.3416 56.4066C52.3392 56.349 52.3262 56.2926 52.3034 56.2411C52.2806 56.1895 52.2485 56.144 52.2093 56.1074Z" fill="black"/>
</g>
<path d="M58.7371 2.95142H50.7847V4.84459H58.7371V2.95142Z" fill="white"/>
<path d="M58.7371 2.95136C56.0626 3.07659 53.4269 3.19446 50.7847 3.20919L51.0113 2.95136V4.84453L50.7717 4.56461C53.116 4.56461 56.4122 4.61616 58.7242 4.74139L58.6335 4.84453L58.7242 2.95136H58.7371ZM58.7371 2.95136L58.8213 4.84453V4.93293C57.4678 5.00659 56.1144 5.03606 54.7609 5.07289L50.7847 5.11709H50.5386C50.5386 4.7414 50.5386 3.06921 50.5386 2.68616C53.2067 2.68616 56.0885 2.8114 58.7177 2.95136H58.7371Z" fill="#263238"/>
<path d="M58.7371 0.756226H50.7847V2.6494H58.7371V0.756226Z" fill="white"/>
<path d="M58.7371 0.756249C56.0626 0.881478 53.4269 0.999345 50.7847 1.01408L51.0113 0.756249V2.64942L50.7717 2.3695C53.116 2.3695 56.4122 2.42106 58.7242 2.55366L58.6335 2.64942L58.7242 0.756249H58.7371ZM58.7371 0.756249L58.8213 2.64942V2.73782C57.4678 2.81885 56.1144 2.84096 54.7609 2.88515H50.7847H50.5386V2.60523C50.5386 2.45053 50.5386 0.535254 50.5386 0.454224C53.2067 0.454224 56.0885 0.572091 58.7177 0.712053L58.7371 0.756249Z" fill="#263238"/>
<path d="M53.6535 36.1519C56.4123 36.1519 58.6465 40.1886 58.6465 45.161C58.6465 50.1333 56.4123 54.1701 53.6535 54.1701C50.8948 54.1701 48.6541 50.1407 48.6541 45.161C48.6541 40.1813 50.8948 36.1519 53.6535 36.1519Z" fill="white"/>
<path d="M58.1606 15.0986H51.3608V18.7303H58.1606V15.0986Z" fill="#455A64"/>
<path d="M63.0437 42.2365H46.4717V48.0928H63.0437V42.2365Z" fill="#455A64"/>
<path d="M74.3701 62.6268H58.2579C57.5002 62.6268 58.2579 34.9438 58.2579 31.8572C58.2579 28.7707 62.9206 20.8076 62.9206 19.0397V4.8446H69.7139V19.0176C69.7139 20.7634 74.3701 28.7633 74.3701 31.8351C74.3701 34.9069 75.1343 62.6268 74.3701 62.6268Z" fill="white"/>
<path d="M74.3701 62.6267L59.4754 62.693H58.2838C58.256 62.6998 58.2273 62.6998 58.1996 62.693C58.0701 62.6341 58.0701 62.4131 58.0312 62.2952C57.552 55.6655 57.8953 49.0357 57.9082 42.3617L58.0571 32.7043C58.0594 31.0629 58.4081 29.4461 59.0739 27.9898C60.1359 24.9622 61.9363 22.1704 62.6745 19.0396C62.6745 18.4503 62.6745 17.5148 62.6745 16.9255C62.6745 12.9255 62.6745 8.82242 62.6745 4.85192V4.59412H62.9012H69.6944H69.8952V4.82247C69.8952 8.28469 69.8952 14.3325 69.8499 17.7211V18.6419C69.8499 20.1593 70.7112 21.4558 71.2422 22.8333C72.2612 25.0056 73.182 27.2356 74.001 29.5147C74.3866 30.6903 74.5477 31.9459 74.4737 33.1979L74.6874 47.9307C74.6874 51.6139 74.7522 55.2971 74.6874 58.9803C74.6821 60.054 74.6215 61.1264 74.5061 62.1921C74.5061 62.3394 74.5061 62.5236 74.3636 62.612L74.3701 62.6267ZM74.3701 62.6267C74.4867 62.5383 74.4802 62.3468 74.5126 62.2068C74.6162 61.1403 74.668 60.0681 74.668 58.9951C74.7198 55.3119 74.668 51.6287 74.6032 47.9454C74.5579 46.9362 74.2989 31.8498 74.2276 31.3784C73.8508 29.6003 73.2648 27.8881 72.4856 26.2882L71.0091 23.0028C70.4716 21.64 69.5714 20.2404 69.5585 18.6713C69.5585 18.0231 69.5585 16.5498 69.5585 15.9015C69.5585 13.5001 69.5585 7.31967 69.5196 4.85192L69.7204 5.07293H62.9271L63.1537 4.82247C63.1537 8.0416 63.1537 11.2607 63.1537 14.4798C63.1537 15.6364 63.1537 17.5885 63.1537 18.7081C63.1537 19.8278 62.6486 20.7413 62.2989 21.6547C61.3599 23.8204 60.3172 25.9346 59.4495 28.1298C58.886 29.6031 58.3356 31.0764 58.4328 32.6896C58.2968 42.0376 57.7852 52.3653 58.1413 61.6544C58.1564 61.9468 58.202 62.2361 58.2773 62.5162C58.2773 62.553 58.3874 62.5162 58.4651 62.5162H61.6513L74.3895 62.5752L74.3701 62.6267Z" fill="#263238"/>
<path d="M73.185 60.8514H59.4494C58.8018 60.8514 59.4494 34.767 59.4494 32.1224C59.4494 29.4779 63.9826 21.4338 63.9826 19.9457V13.4338H68.6842V19.9457C68.6842 21.419 73.2174 29.5221 73.2174 32.1224C73.2174 34.7228 73.8326 60.8514 73.185 60.8514Z" fill="#B3D74C"/>
<g opacity="0.1">
<path d="M72.4336 41.6252C72.3278 41.5181 72.1964 41.4489 72.0561 41.4264C71.9158 41.404 71.7728 41.4292 71.645 41.4989C71.5173 41.5686 71.4105 41.6797 71.3381 41.8182C71.2656 41.9567 71.2308 42.1165 71.238 42.2775C71.2451 42.4384 71.294 42.5934 71.3783 42.7229C71.4627 42.8524 71.5788 42.9507 71.7121 43.0053C71.8454 43.06 71.9899 43.0686 72.1275 43.0302C72.2651 42.9917 72.3896 42.9078 72.4854 42.7891C72.614 42.6268 72.6808 42.4131 72.6711 42.1949C72.6614 41.9768 72.576 41.7718 72.4336 41.6252Z" fill="black"/>
<path d="M68.3668 22.907C68.2609 22.7999 68.1295 22.7308 67.9892 22.7083C67.8489 22.6858 67.7059 22.711 67.5782 22.7807C67.4504 22.8504 67.3436 22.9615 67.2712 23.1C67.1987 23.2386 67.1639 23.3984 67.1711 23.5593C67.1783 23.7203 67.2271 23.8753 67.3114 24.0048C67.3958 24.1343 67.5119 24.2325 67.6452 24.2872C67.7785 24.3419 67.923 24.3505 68.0606 24.312C68.1982 24.2735 68.3228 24.1897 68.4186 24.0709C68.483 23.991 68.5329 23.8973 68.5653 23.7953C68.5976 23.6933 68.6117 23.585 68.6069 23.4766C68.6021 23.3683 68.5784 23.2622 68.5371 23.1644C68.4959 23.0666 68.438 22.9791 68.3668 22.907Z" fill="black"/>
<path d="M72.5307 38.7595C72.459 38.6784 72.3679 38.6233 72.2687 38.6011C72.1695 38.5788 72.0668 38.5905 71.9735 38.6347C71.8801 38.6788 71.8004 38.7534 71.7443 38.849C71.6881 38.9447 71.6582 39.057 71.6582 39.172C71.6582 39.287 71.6881 39.3994 71.7443 39.495C71.8004 39.5907 71.8801 39.6653 71.9735 39.7094C72.0668 39.7535 72.1695 39.7652 72.2687 39.743C72.3679 39.7208 72.459 39.6657 72.5307 39.5846C72.5784 39.5305 72.6164 39.4662 72.6422 39.3954C72.6681 39.3246 72.6814 39.2487 72.6814 39.172C72.6814 39.0954 72.6681 39.0194 72.6422 38.9487C72.6164 38.8779 72.5784 38.8136 72.5307 38.7595Z" fill="black"/>
<path d="M65.2195 57.4407C65.1181 57.3443 64.9878 57.2962 64.8559 57.3066C64.724 57.3169 64.6008 57.385 64.5121 57.4964C64.4233 57.6078 64.376 57.754 64.3799 57.9043C64.3838 58.0546 64.4387 58.1973 64.533 58.3026C64.5822 58.3575 64.6406 58.4005 64.7048 58.429C64.7689 58.4576 64.8375 58.4711 64.9064 58.4688C64.9752 58.4665 65.0429 58.4484 65.1055 58.4156C65.168 58.3828 65.2241 58.3359 65.2704 58.2779C65.3166 58.2198 65.3521 58.1517 65.3747 58.0776C65.3972 58.0036 65.4064 57.9251 65.4016 57.847C65.3969 57.7688 65.3783 57.6925 65.347 57.6227C65.3157 57.5529 65.2723 57.491 65.2195 57.4407Z" fill="black"/>
<path d="M61.7742 33.3011C61.7244 33.2494 61.6662 33.2093 61.6028 33.1831C61.5394 33.1569 61.4721 33.1452 61.4048 33.1487C61.3374 33.1521 61.2713 33.1706 61.2103 33.203C61.1492 33.2355 61.0943 33.2813 61.0489 33.3379C61.0034 33.3945 60.9681 33.4608 60.9451 33.5328C60.9221 33.6049 60.9118 33.6815 60.9148 33.7581C60.9178 33.8347 60.9341 33.9099 60.9626 33.9794C60.9912 34.0488 61.0315 34.1112 61.0812 34.163C61.1309 34.215 61.1891 34.2553 61.2525 34.2816C61.3158 34.3079 61.3832 34.3197 61.4506 34.3163C61.5181 34.3128 61.5842 34.2943 61.6453 34.2617C61.7063 34.229 61.7612 34.183 61.8065 34.1262C61.8973 34.0112 61.9447 33.8604 61.9387 33.7061C61.9326 33.5518 61.8735 33.4064 61.7742 33.3011Z" fill="black"/>
<path d="M70.0828 42.0818C70.048 42.0423 70.0065 42.0113 69.9609 41.9907C69.9152 41.97 69.8664 41.9601 69.8173 41.9616C69.7682 41.963 69.7198 41.9758 69.6752 41.9992C69.6306 42.0225 69.5906 42.0559 69.5577 42.0974C69.5247 42.1388 69.4995 42.1875 69.4836 42.2403C69.4677 42.2932 69.4615 42.3492 69.4651 42.4049C69.4688 42.4606 69.4824 42.5149 69.5051 42.5644C69.5278 42.614 69.5591 42.6578 69.5971 42.6932C69.6658 42.7684 69.7575 42.8103 69.8528 42.8103C69.9482 42.8103 70.0399 42.7684 70.1087 42.6932C70.1446 42.6525 70.1727 42.6037 70.191 42.5499C70.2093 42.4961 70.2175 42.4386 70.2151 42.3809C70.2126 42.3233 70.1996 42.2669 70.1768 42.2154C70.154 42.1639 70.122 42.1183 70.0828 42.0818Z" fill="black"/>
<path d="M63.7689 56.1074C63.701 56.0305 63.609 55.9873 63.5131 55.9873C63.4172 55.9873 63.3252 56.0305 63.2573 56.1074C63.2181 56.1453 63.1865 56.1923 63.1645 56.2452C63.1425 56.2981 63.1306 56.3557 63.1297 56.4142C63.1288 56.4727 63.1388 56.5308 63.1591 56.5845C63.1795 56.6383 63.2096 56.6865 63.2475 56.726C63.2855 56.7655 63.3304 56.7953 63.3793 56.8136C63.4282 56.8318 63.4799 56.838 63.531 56.8318C63.5822 56.8255 63.6316 56.8069 63.6759 56.7773C63.7203 56.7477 63.7586 56.7077 63.7883 56.6599C63.8458 56.5814 63.8756 56.4815 63.872 56.3794C63.8684 56.2773 63.8317 56.1804 63.7689 56.1074Z" fill="black"/>
</g>
<path d="M70.2902 2.95142H62.3376V4.84459H70.2902V2.95142Z" fill="white"/>
<path d="M70.2902 2.95136C67.6221 3.07659 64.9863 3.19446 62.3376 3.20919L62.5643 2.95136V4.84453L62.3182 4.56461C64.669 4.56461 67.9588 4.61616 70.2707 4.74139L70.1865 4.84453L70.2707 2.95136H70.2902ZM70.2902 2.95136L70.3743 4.84453V4.93293C69.0209 5.00659 67.6609 5.03606 66.3074 5.07289L62.3312 5.11709H62.0916C62.0916 4.7414 62.0916 3.06921 62.0916 2.68616C64.7597 2.68616 67.635 2.8114 70.2642 2.95136H70.2902Z" fill="#263238"/>
<path d="M70.2902 0.756226H62.3376V2.6494H70.2902V0.756226Z" fill="white"/>
<path d="M70.2902 0.756249C67.6221 0.881478 64.9863 0.999345 62.3376 1.01408L62.5643 0.756249V2.64942L62.3182 2.3695C64.669 2.3695 67.9588 2.42106 70.2707 2.55366L70.1865 2.64942L70.2707 0.756249H70.2902ZM70.2902 0.756249L70.3743 2.64942V2.73782C69.0209 2.81885 67.6609 2.84096 66.3074 2.88515H62.3312H62.0916C62.0916 2.5021 62.0916 0.837277 62.0916 0.454224C64.7597 0.454224 67.635 0.572091 70.2642 0.712053L70.2902 0.756249Z" fill="#263238"/>
<path d="M65.2066 54.1701C67.9641 54.1701 70.1996 50.1366 70.1996 45.161C70.1996 40.1854 67.9641 36.1519 65.2066 36.1519C62.449 36.1519 60.2136 40.1854 60.2136 45.161C60.2136 50.1366 62.449 54.1701 65.2066 54.1701Z" fill="white"/>
<path d="M69.7204 15.0986H62.9207V18.7303H69.7204V15.0986Z" fill="#455A64"/>
<path d="M74.6033 42.2365H58.0312V48.0928H74.6033V42.2365Z" fill="#455A64"/>
<path d="M76.436 18.7229H7.97852V66.7814H76.436V18.7229Z" fill="#B3D74C"/>
<path opacity="0.2" d="M76.4293 18.7229H49.5735V66.7888H76.4293V18.7229Z" fill="black"/>
<path d="M74.5839 64.3505C72.5893 60.6967 70.6184 57.0307 68.6713 53.3524L62.8429 42.3028L57.0923 31.2016C55.184 27.4988 53.2909 23.7787 51.4128 20.0415C53.4031 23.6952 55.374 27.3613 57.3254 31.0396L63.1538 42.0892L68.898 53.1904C70.8148 56.9276 72.7102 60.6476 74.5839 64.3505Z" fill="#B3D74C"/>
<path d="M74.5838 20.0415C72.7144 23.7787 70.8191 27.4963 68.8978 31.1942L63.1472 42.2954L57.3188 53.3451C55.3717 57.0234 53.4008 60.6894 51.4062 64.3431C53.28 60.6157 55.1688 56.8957 57.0727 53.183L62.8234 42.0818L68.6518 31.0322C70.6161 27.3539 72.5935 23.6903 74.5838 20.0415Z" fill="#B3D74C"/>
<path d="M20.3153 62.6267H20.7556V55.5991H20.3153V62.6267Z" fill="#263238"/>
<path d="M19.2659 62.6267H19.7063V55.5991H19.2659V62.6267Z" fill="#263238"/>
<path d="M18.2169 62.6267H18.6572V55.5991H18.2169V62.6267Z" fill="#263238"/>
<path d="M17.1612 62.6267H17.6016V55.5991H17.1612V62.6267Z" fill="#263238"/>
<path d="M16.1121 62.6267H16.5525V55.5991H16.1121V62.6267Z" fill="#263238"/>
<path d="M15.0567 62.6267H15.4971V55.5991H15.0567V62.6267Z" fill="#263238"/>
<path d="M14.0076 62.6267H14.448V55.5991H14.0076V62.6267Z" fill="#263238"/>
<path d="M12.9583 62.6267H13.3987V55.5991H12.9583V62.6267Z" fill="#263238"/>
<path d="M11.9029 62.6267H12.3433V55.5991H11.9029V62.6267Z" fill="#263238"/>
<path d="M25.0556 62.089L23.3718 62.6268H27.3286L25.6384 62.0816V59.5329C26.8494 59.3487 27.3286 58.0006 27.3286 55.6287H23.3718C23.3718 57.9933 23.851 59.3119 25.0556 59.5329V62.089Z" fill="#263238"/>
<path d="M28.2483 59.1866H29.2845V62.6267H31.9266V59.1866H32.9628L30.6056 55.5991L28.2483 59.1866Z" fill="#263238"/>
<path opacity="0.1" d="M7.97192 66.7887V62.3984L49.5735 54.2732V66.7814L7.97192 66.7887Z" fill="black"/>
<path d="M84.4077 9.88318H57.5519L49.5735 18.7229H76.4358L84.4077 9.88318Z" fill="#B3D74C"/>
<path opacity="0.1" d="M84.4077 9.88318H57.5519L49.5735 18.7229H76.4358L84.4077 9.88318Z" fill="black"/>
</svg>
