<svg width="376" height="280" viewBox="0 0 376 280" fill="none" xmlns="http://www.w3.org/2000/svg">
<path d="M375.778 246.06H0V246.248H375.778V246.06Z" fill="#EBEBEB"/>
<path d="M338.125 258.152H321.831V258.34H338.125V258.152Z" fill="#EBEBEB"/>
<path d="M259.039 254.259H233.404V254.447H259.039V254.259Z" fill="#EBEBEB"/>
<path d="M331.527 251.178H298.06V251.366H331.527V251.178Z" fill="#EBEBEB"/>
<path d="M130.034 254.966H121.662V255.154H130.034V254.966Z" fill="#EBEBEB"/>
<path d="M114.966 254.966H86.1133V255.154H114.966V254.966Z" fill="#EBEBEB"/>
<path d="M70.6538 251.794H49.8357V251.982H70.6538V251.794Z" fill="#EBEBEB"/>
<path d="M178.119 212.54H33.0009C31.8641 212.538 30.7745 212.085 29.9713 211.281C29.1681 210.476 28.717 209.386 28.717 208.249V4.25381C28.7269 3.12349 29.1824 2.04272 29.9845 1.24625C30.7866 0.449775 31.8706 0.0019363 33.0009 0H178.119C179.257 0 180.349 0.452127 181.153 1.25692C181.958 2.06171 182.41 3.15324 182.41 4.29139V208.249C182.41 209.387 181.958 210.479 181.153 211.283C180.349 212.088 179.257 212.54 178.119 212.54ZM33.0009 0.150312C31.9139 0.152303 30.8721 0.585512 30.1042 1.35485C29.3362 2.12419 28.9049 3.1668 28.9049 4.25381V208.249C28.9049 209.336 29.3362 210.378 30.1042 211.148C30.8721 211.917 31.9139 212.35 33.0009 212.352H178.119C179.207 212.35 180.249 211.917 181.018 211.148C181.788 210.379 182.221 209.337 182.223 208.249V4.25381C182.221 3.16611 181.788 2.12352 181.018 1.35439C180.249 0.585268 179.207 0.152299 178.119 0.150312H33.0009Z" fill="#EBEBEB"/>
<path d="M340.688 212.54H195.562C194.425 212.538 193.334 212.085 192.53 211.281C191.726 210.477 191.273 209.386 191.271 208.249V4.25381C191.283 3.1228 191.74 2.04204 192.543 1.24578C193.347 0.449513 194.431 0.00191518 195.562 0H340.688C341.817 0.00391147 342.899 0.452624 343.7 1.24888C344.5 2.04514 344.954 3.12479 344.964 4.25381V208.249C344.964 209.384 344.514 210.474 343.713 211.278C342.911 212.082 341.824 212.536 340.688 212.54ZM195.562 0.150312C194.475 0.152299 193.432 0.585268 192.663 1.35439C191.894 2.12352 191.461 3.16611 191.459 4.25381V208.249C191.461 209.337 191.894 210.379 192.663 211.148C193.432 211.917 194.475 212.35 195.562 212.352H340.688C341.776 212.35 342.818 211.917 343.587 211.148C344.357 210.379 344.789 209.337 344.791 208.249V4.25381C344.789 3.16611 344.357 2.12352 343.587 1.35439C342.818 0.585268 341.776 0.152299 340.688 0.150312H195.562Z" fill="#EBEBEB"/>
<path d="M86.4293 89.9087C90.5972 89.9087 94.5944 88.253 97.5415 85.3059C100.489 82.3588 102.144 78.3616 102.144 74.1937C102.144 70.0258 100.489 66.0286 97.5415 63.0815C94.5944 60.1343 90.5972 58.4786 86.4293 58.4786H84.4978V89.9087H86.4293Z" fill="#E0E0E0"/>
<path d="M84.4826 89.9087C93.1618 89.9087 100.198 82.8729 100.198 74.1937C100.198 65.5145 93.1618 58.4786 84.4826 58.4786C75.8034 58.4786 68.7676 65.5145 68.7676 74.1937C68.7676 82.8729 75.8034 89.9087 84.4826 89.9087Z" fill="#F5F5F5"/>
<path d="M83.7611 76.1628C78.18 76.1628 72.8275 73.9457 68.8811 69.9992C64.9346 66.0528 62.7175 60.7003 62.7175 55.1192V42.5607C62.7175 42.0364 62.9258 41.5337 63.2965 41.163C63.6671 40.7923 64.1699 40.5841 64.6941 40.5841C65.2184 40.5841 65.7211 40.7923 66.0918 41.163C66.4625 41.5337 66.6707 42.0364 66.6707 42.5607V55.1267C66.6747 59.6568 68.4755 64.0004 71.6781 67.2044C74.8807 70.4084 79.2235 72.2111 83.7536 72.2171C84.0229 72.2004 84.2928 72.2391 84.5466 72.3308C84.8004 72.4224 85.0327 72.565 85.2293 72.7498C85.4259 72.9347 85.5826 73.1578 85.6897 73.4054C85.7968 73.6531 85.852 73.9201 85.852 74.1899C85.852 74.4597 85.7968 74.7267 85.6897 74.9744C85.5826 75.2221 85.4259 75.4452 85.2293 75.63C85.0327 75.8148 84.8004 75.9574 84.5466 76.0491C84.2928 76.1407 84.0229 76.1794 83.7536 76.1628H83.7611Z" fill="#E0E0E0"/>
<path d="M47.2203 53.6236H82.1827C82.7418 53.6237 83.2935 53.4954 83.7953 53.2487C84.297 53.0019 84.7354 52.6432 85.0767 52.2003C85.4179 51.7574 85.653 51.242 85.7636 50.694C85.8743 50.1459 85.8577 49.5797 85.715 49.0391L82.6712 37.5778C82.4657 36.7992 82.0088 36.1104 81.3713 35.6183C80.7338 35.1263 79.9517 34.8587 79.1464 34.8572H50.2566C49.4503 34.8583 48.6671 35.1256 48.0283 35.6176C47.3896 36.1096 46.9312 36.7986 46.7242 37.5778L43.718 49.0241C43.5717 49.5633 43.5513 50.129 43.6584 50.6774C43.7656 51.2258 43.9973 51.7422 44.3358 52.1868C44.6743 52.6313 45.1105 52.9921 45.6106 53.2412C46.1108 53.4904 46.6615 53.6212 47.2203 53.6236Z" fill="#F5F5F5"/>
<path d="M308.349 89.9087C312.517 89.9087 316.514 88.253 319.461 85.3059C322.408 82.3588 324.064 78.3616 324.064 74.1937C324.064 70.0258 322.408 66.0286 319.461 63.0815C316.514 60.1343 312.517 58.4786 308.349 58.4786H306.417V89.9087H308.349Z" fill="#E0E0E0"/>
<path d="M306.417 89.9087C315.096 89.9087 322.132 82.8729 322.132 74.1937C322.132 65.5145 315.096 58.4786 306.417 58.4786C297.738 58.4786 290.702 65.5145 290.702 74.1937C290.702 82.8729 297.738 89.9087 306.417 89.9087Z" fill="#F5F5F5"/>
<path d="M305.696 76.1628C300.115 76.1628 294.762 73.9457 290.816 69.9992C286.869 66.0528 284.652 60.7003 284.652 55.1192V42.5607C284.652 42.0364 284.861 41.5337 285.231 41.163C285.602 40.7923 286.105 40.5841 286.629 40.5841C287.153 40.5841 287.656 40.7923 288.027 41.163C288.397 41.5337 288.606 42.0364 288.606 42.5607V55.1267C288.61 59.6568 290.41 64.0004 293.613 67.2044C296.816 70.4084 301.158 72.2111 305.688 72.2171C305.958 72.2004 306.228 72.2391 306.481 72.3308C306.735 72.4224 306.968 72.565 307.164 72.7498C307.361 72.9347 307.517 73.1578 307.625 73.4054C307.732 73.6531 307.787 73.9201 307.787 74.1899C307.787 74.4597 307.732 74.7267 307.625 74.9744C307.517 75.2221 307.361 75.4452 307.164 75.63C306.968 75.8148 306.735 75.9574 306.481 76.0491C306.228 76.1407 305.958 76.1794 305.688 76.1628H305.696Z" fill="#E0E0E0"/>
<path d="M269.155 53.6236H304.117C304.676 53.6237 305.228 53.4954 305.73 53.2486C306.231 53.0019 306.67 52.6432 307.011 52.2003C307.352 51.7574 307.587 51.242 307.698 50.6939C307.809 50.1459 307.792 49.5797 307.649 49.0391L304.643 37.5929C304.438 36.8142 303.981 36.1254 303.343 35.6333C302.706 35.1413 301.924 34.8737 301.118 34.8722H272.191C271.385 34.8734 270.601 35.1407 269.963 35.6326C269.324 36.1246 268.866 36.8136 268.659 37.5929L265.652 49.0391C265.509 49.5773 265.491 50.1414 265.599 50.6878C265.707 51.2343 265.94 51.7486 266.278 52.1913C266.616 52.634 267.051 52.9933 267.55 53.2416C268.049 53.4899 268.598 53.6206 269.155 53.6236Z" fill="#F5F5F5"/>
<path d="M100.694 196.051H112.125V151.762H100.694V196.051Z" fill="#E6E6E6"/>
<path d="M69.7068 196.044H107.638L113.365 144.209H75.4337L69.7068 196.044Z" fill="#F0F0F0"/>
<path d="M65.5957 196.044H104.782L110.509 144.209H71.3301L65.5957 196.044Z" fill="#F5F5F5"/>
<path d="M101.949 191.963L106.774 148.297H74.156L69.3311 191.963H101.949Z" fill="white"/>
<path d="M95.2146 181.373L95.4476 179.622C96.6576 168.664 89.8184 158.902 80.935 158.902L80.7321 160.683C79.5221 171.633 86.3613 181.396 95.2522 181.396L95.2146 181.373Z" fill="#F5F5F5"/>
<path d="M44.4096 246.06H78.1094V196.044H44.4096L44.4096 246.06Z" fill="#E6E6E6"/>
<path d="M47.7914 246.06H44.4019V236.417H51.3462L47.7914 246.06Z" fill="#F0F0F0"/>
<path d="M138.858 246.06H172.558V196.044H138.858V246.06Z" fill="#E6E6E6"/>
<path d="M44.4018 240.145H141.811V196.051H44.4018V240.145Z" fill="#F0F0F0"/>
<path d="M138.422 246.06H141.811V236.417H134.867L138.422 246.06Z" fill="#F0F0F0"/>
<path d="M47.032 216.599H139.18V198.802H47.032V216.599Z" fill="#E6E6E6"/>
<path d="M86.9626 210.436H99.2506C101.893 210.437 104.507 209.899 106.934 208.855C109.361 207.811 111.549 206.282 113.365 204.363H72.8484C74.665 206.281 76.8535 207.809 79.2802 208.853C81.7069 209.897 84.3209 210.436 86.9626 210.436Z" fill="#F0F0F0"/>
<path d="M47.032 237.266H139.18V219.47H47.032V237.266Z" fill="#E6E6E6"/>
<path d="M86.9626 231.074H99.2506C101.893 231.075 104.507 230.537 106.934 229.493C109.361 228.448 111.549 226.92 113.365 225.001H72.8484C74.665 226.919 76.8535 228.447 79.2802 229.491C81.7069 230.535 84.3209 231.073 86.9626 231.074Z" fill="#F0F0F0"/>
<path d="M135.641 194.007H136.513C136.513 192.211 136.513 187.664 136.603 177.24C136.761 158.338 137.061 157.188 137.061 157.188L134.987 165.914C133.672 175.571 135.37 185.281 135.641 194.007Z" fill="#E6E6E6"/>
<path d="M133.92 164.591C130.913 161.036 124.563 159.999 118.039 159.112C115.476 158.766 124.766 164.621 129.313 168.777C132.845 172.009 135.1 172.903 136.077 176.12C136.573 172.107 136.49 167.68 133.92 164.591Z" fill="#E6E6E6"/>
<path d="M137.881 170.964C140.887 167.409 147.238 166.38 153.761 165.493C156.324 165.147 146.997 171.002 142.488 175.158C138.955 178.389 136.701 179.284 135.724 182.5C135.228 178.487 135.28 174.03 137.881 170.964Z" fill="#E6E6E6"/>
<path d="M136.603 156.324C138.858 152.07 144.464 148.057 150.785 146.554C153.265 145.96 145.035 154.4 141.909 159.849C139.481 164.072 136.265 169.048 135.761 172.625C135.01 165.575 134.363 160.6 136.603 156.324Z" fill="#E6E6E6"/>
<path d="M136.332 196.044C133.672 196.044 131.47 194.713 131.312 193L130.869 190.084H141.804L141.353 193C141.203 194.713 139.038 196.044 136.332 196.044Z" fill="#F0F0F0"/>
<path d="M142.51 191.204H130.162L129.809 187.949H142.863L142.51 191.204Z" fill="#F0F0F0"/>
<path d="M127.419 129.057L247.826 129.057V19.2323L127.419 19.2323L127.419 129.057Z" fill="#E6E6E6"/>
<path d="M124.713 129.057L246.646 129.057V19.2323L124.713 19.2323L124.713 129.057Z" fill="#F5F5F5"/>
<path d="M241.776 124.142V24.155L129.568 24.155V124.142H241.776Z" fill="#FAFAFA"/>
<path d="M228.015 124.142L183.853 24.155H168.852L213.014 124.142H228.015Z" fill="white"/>
<path d="M208.76 124.142L164.598 24.155H154.272L198.433 124.142H208.76Z" fill="white"/>
<path d="M171.235 124.135V24.1475H165.433V124.135H171.235Z" fill="#E6E6E6"/>
<path d="M209.804 124.135V24.1475H204.002V124.135H209.804Z" fill="#E6E6E6"/>
<path d="M170.19 127.261V20.495H162.855V127.261H170.19Z" fill="#F5F5F5"/>
<path d="M208.76 127.261V20.495H201.425V127.261H208.76Z" fill="#F5F5F5"/>
<path d="M130.095 124.142V24.155H129.576V124.142H130.095Z" fill="#E6E6E6"/>
<path d="M122.669 12.9042H253.109C253.276 12.9062 253.436 12.9733 253.554 13.0913C253.672 13.2093 253.739 13.3687 253.741 13.5356C253.739 13.7017 253.671 13.8603 253.553 13.9771C253.435 14.0939 253.275 14.1594 253.109 14.1593H122.669C122.503 14.1594 122.344 14.0939 122.225 13.9771C122.107 13.8603 122.04 13.7017 122.038 13.5356C122.04 13.3687 122.107 13.2093 122.225 13.0913C122.343 12.9733 122.502 12.9062 122.669 12.9042Z" fill="#E6E6E6"/>
<path d="M247.826 17.0453C248.05 17.0433 248.264 16.953 248.422 16.7939C248.579 16.6349 248.668 16.42 248.668 16.1961V14.3773C248.669 14.2661 248.648 14.1558 248.606 14.0529C248.564 13.9499 248.502 13.8562 248.424 13.7772C248.346 13.6983 248.253 13.6356 248.15 13.5928C248.047 13.55 247.937 13.528 247.826 13.528C247.602 13.528 247.387 13.6165 247.228 13.7741C247.069 13.9317 246.979 14.1458 246.977 14.3698V16.1885C246.977 16.4145 247.066 16.6313 247.225 16.7917C247.384 16.9522 247.6 17.0433 247.826 17.0453Z" fill="#E6E6E6"/>
<path d="M132.124 17.0453C132.348 17.0433 132.563 16.9532 132.722 16.7944C132.881 16.6356 132.971 16.4207 132.973 16.1961V14.3773C132.973 14.152 132.883 13.936 132.724 13.7768C132.565 13.6175 132.349 13.528 132.124 13.528C131.9 13.528 131.686 13.6167 131.528 13.7746C131.37 13.9324 131.282 14.1465 131.282 14.3698V16.1885C131.281 16.3001 131.302 16.4107 131.344 16.5141C131.385 16.6175 131.447 16.7117 131.525 16.7913C131.603 16.8708 131.696 16.9342 131.799 16.9778C131.902 17.0214 132.012 17.0443 132.124 17.0453Z" fill="#E6E6E6"/>
<path opacity="0.6" d="M122.864 99.5362L244.714 99.5362V13.528L122.864 13.528L122.864 99.5362Z" fill="#E0E0E0"/>
<path d="M255.747 154.047H234.734C232.501 154.047 230.69 155.857 230.69 158.09V167.815C230.69 170.048 232.501 171.858 234.734 171.858H255.747C257.98 171.858 259.791 170.048 259.791 167.815V158.09C259.791 155.857 257.98 154.047 255.747 154.047Z" fill="#FAFAFA"/>
<path d="M258.43 150.755H232.051C231.299 150.755 230.69 151.364 230.69 152.115V153.212C230.69 153.964 231.299 154.573 232.051 154.573H258.43C259.182 154.573 259.791 153.964 259.791 153.212V152.115C259.791 151.364 259.182 150.755 258.43 150.755Z" fill="#E6E6E6"/>
<path d="M231.119 191.647C231.119 191.647 231.502 204.175 246.097 204.175C260.692 204.175 261.076 191.647 261.076 191.647H231.119Z" fill="#F0F0F0"/>
<path d="M264.397 191.647C264.397 191.647 264.781 204.175 279.376 204.175C293.971 204.175 294.355 191.647 294.355 191.647H264.397Z" fill="#F0F0F0"/>
<path d="M287.125 145.982H258.265C255.194 145.982 252.704 148.472 252.704 151.544V166.304C252.704 169.376 255.194 171.866 258.265 171.866H287.125C290.196 171.866 292.686 169.376 292.686 166.304V151.544C292.686 148.472 290.196 145.982 287.125 145.982Z" fill="#F0F0F0"/>
<path d="M290.823 141.458H254.567C253.538 141.458 252.704 142.292 252.704 143.322V144.84C252.704 145.869 253.538 146.704 254.567 146.704H290.823C291.852 146.704 292.686 145.869 292.686 144.84V143.322C292.686 142.292 291.852 141.458 290.823 141.458Z" fill="#F5F5F5"/>
<path d="M220.123 246.06H223.911V183.951H220.123V246.06Z" fill="#E6E6E6"/>
<path d="M329.498 171.858H308.988V183.944H329.498V171.858Z" fill="#E6E6E6"/>
<path d="M207.009 183.951H308.98V171.866H207.009V183.951Z" fill="#F5F5F5"/>
<path d="M329.498 204.138H308.988V216.223H329.498V204.138Z" fill="#E6E6E6"/>
<path d="M207.009 216.223H308.98V204.138H207.009V216.223Z" fill="#F5F5F5"/>
<path d="M322.095 246.06H325.883V183.951H322.095V246.06Z" fill="#E6E6E6"/>
<path d="M305.2 246.06H308.988V183.951H305.2V246.06Z" fill="#F5F5F5"/>
<path d="M207.009 246.06H210.797V183.951H207.009V246.06Z" fill="#F5F5F5"/>
<path d="M187.89 280C268.368 280 333.609 276.191 333.609 271.492C333.609 266.794 268.368 262.985 187.89 262.985C107.411 262.985 42.1702 266.794 42.1702 271.492C42.1702 276.191 107.411 280 187.89 280Z" fill="#F5F5F5"/>
<path d="M195.713 233.358H99.8367C98.295 233.336 96.8185 232.733 95.7034 231.668C94.5883 230.603 93.917 229.156 93.8243 227.616L85.2265 61.109C85.1788 60.3684 85.2846 59.6259 85.5373 58.9281C85.7901 58.2303 86.1842 57.5922 86.695 57.0538C87.2059 56.5154 87.8225 56.0884 88.5061 55.7994C89.1897 55.5105 89.9256 55.3659 90.6677 55.3747H186.544C188.085 55.3946 189.561 55.997 190.677 57.0607C191.792 58.1244 192.463 59.5706 192.556 61.109L201.139 227.616C201.187 228.356 201.081 229.098 200.829 229.795C200.578 230.492 200.185 231.13 199.676 231.669C199.167 232.207 198.552 232.635 197.87 232.926C197.188 233.217 196.454 233.364 195.713 233.358Z" fill="#B3D74C"/>
<path opacity="0.8" d="M195.713 233.358H99.8367C98.295 233.336 96.8185 232.733 95.7034 231.668C94.5883 230.603 93.917 229.156 93.8243 227.616L85.2265 61.109C85.1788 60.3684 85.2846 59.6259 85.5373 58.9281C85.7901 58.2303 86.1842 57.5922 86.695 57.0538C87.2059 56.5154 87.8225 56.0884 88.5061 55.7994C89.1897 55.5105 89.9256 55.3659 90.6677 55.3747H186.544C188.085 55.3946 189.561 55.997 190.677 57.0607C191.792 58.1244 192.463 59.5706 192.556 61.109L201.139 227.616C201.187 228.356 201.081 229.098 200.829 229.795C200.578 230.492 200.185 231.13 199.676 231.669C199.167 232.207 198.552 232.635 197.87 232.926C197.188 233.217 196.454 233.364 195.713 233.358Z" fill="white"/>
<path d="M177.082 49.9484H166.477V50.7H177.082V49.9484Z" fill="#B3D74C"/>
<path d="M162.802 49.9484H158.917V50.7H162.802V49.9484Z" fill="#B3D74C"/>
<path d="M199.839 222.791H108.149C106.672 222.777 105.256 222.204 104.185 221.187C103.114 220.171 102.468 218.786 102.377 217.313L94.1701 58.0577C94.1245 57.3489 94.2258 56.6383 94.4677 55.9705C94.7096 55.3027 95.0869 54.6921 95.576 54.177C96.065 53.6619 96.6551 53.2534 97.3095 52.9771C97.9638 52.7008 98.6681 52.5626 99.3783 52.5714H191.068C192.545 52.5877 193.96 53.1627 195.03 54.1806C196.099 55.1986 196.743 56.5839 196.833 58.0577L205.04 217.313C205.085 218.02 204.984 218.73 204.743 219.397C204.501 220.064 204.124 220.674 203.636 221.188C203.148 221.702 202.558 222.11 201.905 222.386C201.252 222.662 200.548 222.8 199.839 222.791Z" fill="#B3D74C"/>
<path d="M199.839 219.131H108.149C107.611 219.113 107.099 218.898 106.71 218.526C106.32 218.155 106.081 217.653 106.037 217.117L97.8224 57.8698C97.8038 57.658 97.8304 57.4446 97.9003 57.2438C97.9703 57.043 98.0821 56.8593 98.2282 56.7049C98.3749 56.5508 98.5525 56.4296 98.7494 56.3493C98.9464 56.269 99.1581 56.2314 99.3706 56.2389H191.061C191.597 56.2592 192.107 56.4754 192.495 56.8465C192.883 57.2177 193.121 57.7181 193.165 58.2531L201.417 217.5C201.435 217.712 201.408 217.924 201.339 218.124C201.269 218.324 201.157 218.507 201.012 218.661C200.867 218.815 200.69 218.937 200.494 219.018C200.299 219.099 200.088 219.137 199.876 219.131H199.839ZM99.3706 56.4268C99.1838 56.4208 98.9977 56.4538 98.8243 56.5236C98.6509 56.5935 98.494 56.6988 98.3635 56.8327C98.2381 56.9715 98.1421 57.1343 98.0813 57.3113C98.0206 57.4882 97.9965 57.6757 98.0103 57.8623L106.217 217.11C106.259 217.597 106.478 218.053 106.832 218.391C107.187 218.729 107.652 218.925 108.141 218.943H199.831C200.017 218.951 200.202 218.918 200.375 218.848C200.547 218.778 200.703 218.672 200.831 218.538C200.959 218.401 201.057 218.238 201.118 218.061C201.179 217.883 201.202 217.695 201.184 217.508L192.985 58.2606C192.944 57.7735 192.727 57.318 192.374 56.9801C192.021 56.6422 191.556 56.4454 191.068 56.4268H99.3706Z" fill="white"/>
<path opacity="0.3" d="M167.767 114.279C178.196 103.577 177.517 86.0012 166.251 75.0221C154.984 64.043 137.397 63.818 126.968 74.5197C116.539 85.2213 117.218 102.797 128.485 113.776C139.751 124.755 157.339 124.98 167.767 114.279Z" fill="white"/>
<path d="M169.852 94.403C170.062 98.0963 169.32 101.782 167.695 105.105C165.937 108.67 163.207 111.665 159.82 113.746C156.433 115.827 152.528 116.909 148.553 116.867C144.434 116.83 140.395 115.727 136.828 113.666C133.262 111.605 130.289 108.656 128.201 105.105C126.254 101.858 125.134 98.1835 124.939 94.403C124.754 91.5037 125.169 88.5973 126.158 85.8658C127.148 83.1343 128.691 80.6364 130.69 78.5285C132.689 76.4206 135.102 74.748 137.777 73.6155C140.453 72.4829 143.333 71.9147 146.238 71.9465C152.284 72.0095 158.082 74.3613 162.464 78.5282C166.846 82.6951 169.485 88.3675 169.852 94.403Z" fill="white"/>
<path d="M167.673 105.105C165.914 108.67 163.184 111.665 159.797 113.746C156.411 115.827 152.505 116.909 148.53 116.867C144.411 116.83 140.372 115.727 136.806 113.666C133.239 111.605 130.267 108.656 128.178 105.105C133.889 101.161 140.673 99.0625 147.613 99.0927C154.74 99.1196 161.706 101.208 167.673 105.105Z" fill="#B3D74C"/>
<path d="M154.33 93.8808C158.087 90.0253 157.841 83.6918 153.781 79.7347C149.72 75.7776 143.382 75.6953 139.625 79.5508C135.868 83.4064 136.114 89.7398 140.175 93.6969C144.235 97.654 150.573 97.7364 154.33 93.8808Z" fill="#B3D74C"/>
<path d="M186.694 160.833H114.898C114.273 160.827 113.673 160.584 113.22 160.153C112.767 159.722 112.493 159.135 112.455 158.511L111.914 147.989C111.896 147.69 111.939 147.39 112.042 147.108C112.144 146.826 112.304 146.569 112.511 146.351C112.717 146.134 112.967 145.962 113.243 145.845C113.519 145.729 113.817 145.671 114.116 145.674H185.913C186.537 145.681 187.135 145.923 187.588 146.352C188.041 146.781 188.315 147.366 188.355 147.989L188.896 158.511C188.916 158.811 188.874 159.111 188.771 159.394C188.669 159.677 188.51 159.935 188.303 160.153C188.096 160.372 187.847 160.545 187.57 160.661C187.293 160.778 186.995 160.837 186.694 160.833Z" fill="white"/>
<path opacity="0.3" d="M164.711 139.865H134.724C134.096 139.86 133.494 139.617 133.039 139.184C132.584 138.751 132.31 138.162 132.274 137.535L132.161 135.28C132.141 134.98 132.184 134.68 132.286 134.397C132.388 134.114 132.548 133.856 132.754 133.638C132.961 133.419 133.211 133.246 133.488 133.13C133.765 133.013 134.063 132.954 134.363 132.958H164.343C164.968 132.964 165.568 133.207 166.021 133.638C166.474 134.069 166.747 134.656 166.785 135.28L166.906 137.535C166.924 137.834 166.881 138.134 166.779 138.416C166.677 138.698 166.518 138.957 166.313 139.175C166.107 139.393 165.859 139.567 165.583 139.686C165.308 139.804 165.011 139.865 164.711 139.865Z" fill="black"/>
<path opacity="0.3" d="M175.864 211.42H130.944C129.88 211.407 128.861 210.993 128.09 210.259C127.319 209.526 126.854 208.529 126.788 207.467L126.525 202.281C126.498 201.772 126.576 201.262 126.753 200.783C126.929 200.305 127.202 199.867 127.554 199.497C127.905 199.127 128.329 198.833 128.798 198.632C129.267 198.431 129.772 198.328 130.282 198.328H175.188C176.252 198.341 177.271 198.756 178.042 199.489C178.813 200.222 179.278 201.22 179.344 202.281L179.607 207.467C179.634 207.976 179.556 208.484 179.38 208.962C179.204 209.439 178.933 209.876 178.583 210.246C178.233 210.616 177.812 210.911 177.344 211.112C176.877 211.314 176.373 211.419 175.864 211.42Z" fill="black"/>
<path d="M188.009 186.281H116.206C115.581 186.273 114.982 186.029 114.529 185.598C114.076 185.168 113.803 184.582 113.763 183.959L113.222 173.437C113.203 173.137 113.247 172.837 113.349 172.555C113.452 172.272 113.611 172.014 113.818 171.797C114.024 171.579 114.274 171.406 114.55 171.288C114.826 171.171 115.124 171.112 115.424 171.114H187.22C187.846 171.121 188.445 171.364 188.898 171.795C189.352 172.226 189.625 172.812 189.663 173.437L190.211 183.959C190.229 184.258 190.185 184.558 190.082 184.839C189.979 185.121 189.819 185.379 189.613 185.596C189.407 185.814 189.158 185.987 188.882 186.105C188.606 186.222 188.309 186.282 188.009 186.281Z" fill="white"/>
<path d="M124.007 153.25C124.028 153.582 123.98 153.915 123.866 154.228C123.752 154.54 123.575 154.826 123.346 155.067C123.117 155.309 122.84 155.5 122.534 155.63C122.227 155.759 121.897 155.824 121.564 155.82C120.873 155.812 120.211 155.542 119.71 155.065C119.209 154.589 118.908 153.94 118.866 153.25C118.844 152.918 118.892 152.585 119.004 152.273C119.117 151.96 119.294 151.674 119.522 151.433C119.751 151.191 120.027 151 120.333 150.87C120.639 150.741 120.969 150.676 121.301 150.68C121.993 150.688 122.657 150.957 123.159 151.434C123.66 151.91 123.963 152.559 124.007 153.25Z" fill="#263238"/>
<path d="M131.921 153.25C131.943 153.582 131.896 153.914 131.783 154.227C131.67 154.54 131.493 154.826 131.265 155.067C131.036 155.308 130.76 155.5 130.454 155.629C130.148 155.759 129.818 155.824 129.486 155.82C128.794 155.814 128.13 155.545 127.629 155.067C127.129 154.59 126.828 153.941 126.788 153.25C126.766 152.918 126.813 152.585 126.926 152.273C127.039 151.96 127.215 151.674 127.444 151.433C127.672 151.191 127.948 151 128.254 150.87C128.561 150.741 128.89 150.676 129.223 150.68C129.915 150.686 130.578 150.955 131.079 151.432C131.58 151.91 131.881 152.559 131.921 153.25Z" fill="#263238"/>
<path d="M139.79 153.25C139.811 153.582 139.764 153.914 139.651 154.227C139.539 154.54 139.362 154.826 139.134 155.067C138.905 155.308 138.629 155.5 138.323 155.629C138.017 155.759 137.687 155.824 137.355 155.82C136.663 155.812 135.999 155.543 135.497 155.066C134.996 154.589 134.693 153.941 134.649 153.25C134.628 152.918 134.676 152.585 134.79 152.272C134.904 151.959 135.081 151.674 135.31 151.432C135.539 151.191 135.816 151 136.122 150.87C136.429 150.741 136.759 150.676 137.092 150.68C137.783 150.688 138.445 150.957 138.946 151.434C139.446 151.911 139.748 152.56 139.79 153.25Z" fill="#263238"/>
<path d="M147.718 153.25C147.739 153.581 147.691 153.914 147.578 154.226C147.465 154.538 147.288 154.824 147.06 155.065C146.831 155.306 146.556 155.497 146.25 155.627C145.945 155.757 145.615 155.823 145.283 155.82C144.591 155.812 143.928 155.543 143.426 155.066C142.924 154.589 142.621 153.941 142.578 153.25C142.557 152.918 142.605 152.586 142.718 152.274C142.831 151.962 143.008 151.676 143.236 151.435C143.465 151.194 143.74 151.003 144.046 150.873C144.351 150.743 144.681 150.677 145.013 150.68C145.705 150.688 146.368 150.957 146.87 151.434C147.372 151.91 147.675 152.559 147.718 153.25Z" fill="#263238"/>
<path d="M125.337 178.683C125.359 179.014 125.312 179.347 125.199 179.66C125.086 179.972 124.91 180.258 124.681 180.5C124.453 180.741 124.177 180.933 123.87 181.062C123.564 181.192 123.235 181.257 122.902 181.253C122.21 181.245 121.547 180.975 121.045 180.499C120.543 180.022 120.24 179.373 120.197 178.683C120.176 178.35 120.224 178.018 120.338 177.705C120.451 177.392 120.628 177.106 120.858 176.865C121.087 176.624 121.363 176.432 121.67 176.303C121.976 176.173 122.306 176.109 122.639 176.112C123.33 176.12 123.993 176.39 124.493 176.867C124.994 177.344 125.295 177.993 125.337 178.683Z" fill="#263238"/>
<path d="M133.236 178.683C133.256 179.014 133.208 179.346 133.095 179.658C132.982 179.971 132.806 180.256 132.577 180.497C132.349 180.738 132.073 180.93 131.767 181.06C131.462 181.19 131.133 181.256 130.801 181.253C130.109 181.245 129.445 180.975 128.943 180.499C128.442 180.022 128.139 179.373 128.095 178.683C128.073 178.351 128.12 178.018 128.233 177.705C128.346 177.393 128.522 177.107 128.751 176.865C128.98 176.624 129.256 176.433 129.562 176.303C129.868 176.173 130.198 176.108 130.53 176.112C131.222 176.12 131.886 176.39 132.387 176.866C132.889 177.343 133.192 177.992 133.236 178.683Z" fill="#263238"/>
<path d="M141.135 178.683C141.155 179.015 141.107 179.348 140.994 179.66C140.88 179.973 140.703 180.259 140.474 180.5C140.244 180.741 139.968 180.933 139.661 181.062C139.355 181.192 139.025 181.257 138.692 181.253C138 181.246 137.337 180.977 136.836 180.5C136.335 180.023 136.034 179.373 135.994 178.683C135.972 178.351 136.019 178.018 136.132 177.705C136.245 177.393 136.421 177.107 136.65 176.865C136.879 176.624 137.155 176.433 137.461 176.303C137.767 176.173 138.097 176.108 138.429 176.112C139.121 176.12 139.784 176.39 140.286 176.866C140.788 177.343 141.091 177.992 141.135 178.683Z" fill="#263238"/>
<path d="M149.026 178.683C149.048 179.014 149.001 179.347 148.888 179.66C148.775 179.972 148.599 180.258 148.37 180.5C148.142 180.741 147.866 180.933 147.559 181.062C147.253 181.192 146.924 181.257 146.591 181.253C145.899 181.245 145.236 180.975 144.734 180.499C144.232 180.022 143.929 179.373 143.886 178.683C143.865 178.35 143.913 178.018 144.027 177.705C144.14 177.392 144.317 177.106 144.547 176.865C144.776 176.624 145.052 176.432 145.359 176.303C145.665 176.173 145.995 176.109 146.328 176.112C147.02 176.119 147.683 176.388 148.184 176.865C148.685 177.342 148.986 177.992 149.026 178.683Z" fill="#263238"/>
<path d="M156.925 178.683C156.947 179.014 156.9 179.347 156.787 179.66C156.674 179.972 156.498 180.258 156.269 180.5C156.04 180.741 155.764 180.933 155.458 181.062C155.152 181.192 154.822 181.257 154.49 181.253C153.798 181.245 153.134 180.975 152.633 180.499C152.131 180.022 151.828 179.373 151.784 178.683C151.764 178.351 151.811 178.019 151.925 177.707C152.038 177.394 152.214 177.109 152.443 176.868C152.671 176.627 152.947 176.435 153.252 176.305C153.558 176.175 153.887 176.11 154.219 176.112C154.911 176.12 155.575 176.39 156.076 176.866C156.578 177.343 156.881 177.992 156.925 178.683Z" fill="#263238"/>
<path d="M164.824 178.683C164.844 179.015 164.796 179.348 164.683 179.66C164.569 179.973 164.392 180.259 164.163 180.5C163.933 180.741 163.657 180.933 163.35 181.062C163.044 181.192 162.714 181.257 162.381 181.253C161.69 181.245 161.027 180.975 160.527 180.498C160.026 180.021 159.725 179.373 159.683 178.683C159.661 178.351 159.708 178.018 159.821 177.705C159.934 177.393 160.11 177.107 160.339 176.865C160.568 176.624 160.844 176.433 161.15 176.303C161.456 176.173 161.786 176.108 162.118 176.112C162.81 176.12 163.474 176.39 163.975 176.866C164.477 177.343 164.78 177.992 164.824 178.683Z" fill="#263238"/>
<path d="M250.269 91.4043C250.457 91.6899 250.554 91.8402 250.675 92.0431L251.013 92.5993C251.231 92.9751 251.426 93.3508 251.614 93.7191C251.99 94.4707 252.366 95.2222 252.666 95.9738C253.296 97.4664 253.838 98.9947 254.29 100.551C255.199 103.625 255.799 106.782 256.078 109.975L256.131 110.569C256.137 110.689 256.137 110.81 256.131 110.93V111.328C256.143 111.851 256.113 112.374 256.041 112.891C255.897 113.851 255.644 114.791 255.289 115.695C254.629 117.308 253.754 118.825 252.689 120.204C250.701 122.749 248.343 124.981 245.692 126.825L243.617 124.398C245.505 122.266 247.177 119.952 248.608 117.491C249.252 116.374 249.757 115.183 250.111 113.944C250.254 113.419 250.338 112.879 250.359 112.335C250.382 112.103 250.382 111.869 250.359 111.636V111.478C250.366 111.408 250.366 111.338 250.359 111.268L250.269 110.742C249.785 107.941 249.102 105.178 248.224 102.475C247.789 101.129 247.255 99.8293 246.721 98.5591C246.458 97.9203 246.158 97.2965 245.857 96.6953L245.391 95.8084L245.158 95.3951L244.963 95.0644L250.269 91.4043Z" fill="#803E3C"/>
<path d="M243.279 126.84L246 132.59L248.157 127.727C248.157 127.727 246.24 123.518 243.647 123.909L243.279 126.84Z" fill="#7F3E3B"/>
<path d="M247.946 132.875L250.111 129.328L248.157 127.727L246 132.59L247.946 132.875Z" fill="#7F3E3B"/>
<path d="M235.711 265.465C236.273 265.451 236.833 265.375 237.379 265.239C237.407 265.231 237.432 265.215 237.452 265.194C237.471 265.173 237.485 265.147 237.492 265.119C237.497 265.09 237.493 265.061 237.481 265.034C237.469 265.007 237.449 264.985 237.424 264.969C237.206 264.826 235.297 263.594 234.561 263.924C234.479 263.962 234.409 264.021 234.358 264.095C234.306 264.169 234.275 264.255 234.268 264.345C234.245 264.481 234.256 264.621 234.299 264.752C234.342 264.882 234.417 265.001 234.516 265.097C234.857 265.36 235.281 265.491 235.711 265.465ZM236.951 265.021C235.861 265.247 235.034 265.209 234.696 264.916C234.627 264.848 234.576 264.763 234.549 264.67C234.521 264.576 234.518 264.478 234.538 264.383C234.538 264.255 234.613 264.217 234.666 264.195C235.072 264.014 236.177 264.548 236.951 265.021Z" fill="#B3D74C"/>
<path d="M237.342 265.239H237.417C237.44 265.225 237.458 265.205 237.472 265.181C237.485 265.157 237.492 265.131 237.492 265.104C237.492 265.029 237.492 263.218 236.801 262.609C236.716 262.533 236.616 262.476 236.507 262.442C236.398 262.408 236.283 262.399 236.17 262.414C236.051 262.414 235.936 262.456 235.845 262.531C235.753 262.606 235.69 262.711 235.666 262.827C235.523 263.541 236.666 264.894 237.267 265.239H237.342ZM236.267 262.692C236.328 262.69 236.389 262.7 236.445 262.722C236.502 262.744 236.554 262.777 236.598 262.819C236.994 263.404 237.199 264.097 237.184 264.803C236.583 264.322 235.869 263.3 235.959 262.872C235.959 262.804 236.012 262.714 236.2 262.692H236.267Z" fill="#B3D74C"/>
<path d="M228.616 262.398C228.634 262.376 228.645 262.35 228.649 262.322C228.653 262.294 228.65 262.266 228.639 262.24C228.628 262.214 228.611 262.191 228.588 262.174C228.566 262.157 228.539 262.146 228.511 262.143C228.203 262.143 225.505 262.015 224.889 262.677V262.722C224.838 262.787 224.805 262.864 224.793 262.946C224.781 263.027 224.791 263.111 224.821 263.188C224.861 263.317 224.932 263.434 225.028 263.53C225.123 263.625 225.241 263.696 225.37 263.736C226.241 264.007 227.782 263.022 228.624 262.413L228.616 262.398ZM225.114 262.872C225.452 262.511 226.94 262.413 228.053 262.429C226.888 263.225 225.918 263.601 225.43 263.451C225.345 263.425 225.267 263.378 225.204 263.315C225.141 263.253 225.095 263.175 225.069 263.09C225.054 263.061 225.046 263.029 225.046 262.996C225.046 262.963 225.054 262.931 225.069 262.902L225.114 262.872Z" fill="#B3D74C"/>
<path d="M228.617 262.399C228.628 262.375 228.634 262.349 228.634 262.323C228.634 262.297 228.628 262.272 228.617 262.248C228.579 262.188 227.737 260.745 226.745 260.444C226.603 260.403 226.453 260.391 226.306 260.409C226.159 260.427 226.017 260.475 225.889 260.55C225.528 260.76 225.505 261.008 225.55 261.166C225.746 261.865 227.662 262.481 228.489 262.474C228.515 262.473 228.54 262.466 228.563 262.453C228.585 262.44 228.604 262.421 228.617 262.399ZM225.919 260.895C225.961 260.854 226.009 260.818 226.061 260.79C226.154 260.731 226.259 260.693 226.368 260.679C226.477 260.664 226.588 260.674 226.693 260.708C227.347 260.88 227.955 261.722 228.233 262.135C227.339 262.038 225.979 261.489 225.866 261.068C225.856 261.036 225.856 261.002 225.866 260.97C225.875 260.938 225.893 260.91 225.919 260.888V260.895Z" fill="#B3D74C"/>
<path d="M236.891 69.3912C236.139 73.149 234.516 81.2734 237.124 83.7685C237.124 83.7685 236.102 87.5263 229.165 87.5263C221.529 87.5263 225.52 83.7685 225.52 83.7685C229.684 82.7765 229.578 79.68 228.849 76.779L236.891 69.3912Z" fill="#7F3E3B"/>
<path d="M224.175 60.583C224.217 60.5899 224.26 60.5899 224.303 60.583C224.338 60.5654 224.37 60.5409 224.396 60.5109C224.422 60.481 224.442 60.4461 224.455 60.4083C224.468 60.3706 224.473 60.3307 224.47 60.291C224.467 60.2513 224.456 60.2126 224.438 60.1772C224.236 59.7484 223.934 59.3745 223.557 59.0868C223.18 58.7991 222.74 58.606 222.273 58.5237C222.195 58.5172 222.117 58.5407 222.056 58.5896C221.994 58.6385 221.954 58.709 221.943 58.7868C221.934 58.8654 221.957 58.9442 222.006 59.0061C222.056 59.068 222.127 59.108 222.206 59.1175C222.574 59.1882 222.92 59.3458 223.216 59.5771C223.511 59.8085 223.747 60.1069 223.904 60.4477C223.933 60.4922 223.974 60.5281 224.021 60.5519C224.069 60.5756 224.122 60.5864 224.175 60.583Z" fill="#263238"/>
<path d="M221.897 63.8823C221.306 64.9794 220.567 65.9908 219.703 66.8886C219.937 67.1027 220.215 67.2634 220.517 67.3594C220.819 67.4555 221.139 67.4846 221.454 67.4447L221.897 63.8823Z" fill="#630F0F"/>
<path d="M222.461 63.0331C222.401 63.5366 222.078 63.9124 221.755 63.8748C221.431 63.8372 221.206 63.3938 221.266 62.8903C221.326 62.3867 221.649 62.0109 222.018 62.0485C222.386 62.0861 222.514 62.5295 222.461 63.0331Z" fill="#263238"/>
<path d="M222.115 62.0936L220.958 61.6276C220.958 61.6276 221.447 62.6197 222.115 62.0936Z" fill="#263238"/>
<path d="M235.253 260.971L229.12 262.399L225.392 248.299L231.525 246.871L235.253 260.971Z" fill="#7F3E3B"/>
<path d="M244.662 265.089H238.372L238.86 250.516H245.158L244.662 265.089Z" fill="#7F3E3B"/>
<path d="M237.868 264.36H244.94C245.063 264.359 245.182 264.403 245.274 264.483C245.367 264.563 245.427 264.674 245.444 264.796L246.248 270.388C246.264 270.529 246.25 270.672 246.206 270.808C246.163 270.943 246.091 271.068 245.996 271.174C245.901 271.28 245.784 271.364 245.654 271.421C245.524 271.479 245.383 271.508 245.241 271.507C242.776 271.47 241.588 271.319 238.477 271.319C236.56 271.319 233.765 271.522 231.127 271.522C228.489 271.522 228.338 268.907 229.443 268.674C234.373 267.607 235.155 266.149 236.816 264.751C237.109 264.5 237.482 264.362 237.868 264.36Z" fill="#263238"/>
<path d="M228.579 261.459L235.005 258.505C235.114 258.453 235.238 258.443 235.355 258.476C235.471 258.509 235.571 258.584 235.636 258.686L238.71 263.436C238.782 263.558 238.827 263.694 238.843 263.835C238.859 263.976 238.845 264.118 238.803 264.253C238.76 264.389 238.69 264.514 238.596 264.62C238.503 264.726 238.388 264.812 238.259 264.871C236.004 265.863 234.862 266.231 232.036 267.532C230.3 268.328 226.775 270.162 224.385 271.289C221.995 272.417 220.763 270.079 221.665 269.403C225.701 266.397 226.858 264.24 227.782 262.278C227.939 261.917 228.222 261.625 228.579 261.459Z" fill="#263238"/>
<path opacity="0.2" d="M225.392 248.299L227.391 255.86L233.449 254.139L231.533 246.871L225.392 248.299Z" fill="black"/>
<path opacity="0.2" d="M245.158 250.516H238.86L238.612 258.032H244.91L245.158 250.516Z" fill="black"/>
<path d="M248.014 85.1965C250.629 85.7752 253.425 95.1772 253.425 95.1772L246.03 103.046C246.03 103.046 239.889 94.2076 241.145 90.9609C242.415 87.5714 244.895 84.5201 248.014 85.1965Z" fill="#263238"/>
<path opacity="0.4" d="M243.836 91.1864C242.513 89.9764 241.619 90.3371 241.01 91.2991C240.409 94.0949 243.971 99.9495 245.406 102.167C246.068 99.5211 246.827 93.9446 243.836 91.1864Z" fill="black"/>
<path d="M214.878 85.3844C214.878 85.3844 211.872 86.4365 217.884 123.376H243.437C243.009 112.974 242.994 106.556 247.947 85.1965C244.366 84.4577 240.736 83.9805 237.087 83.7685C233.224 83.4901 229.345 83.4901 225.482 83.7685C220.53 84.227 214.878 85.3844 214.878 85.3844Z" fill="#263238"/>
<path opacity="0.4" d="M214.645 99.5587C214.81 101.355 215.028 103.377 215.314 105.661C217.41 103.775 219.124 98.4089 218.493 95.2824C216.995 96.4982 215.696 97.9412 214.645 99.5587Z" fill="black"/>
<path d="M217.38 93.9446C216.001 97.415 214.449 100.814 212.728 104.128C211.027 107.562 209.015 110.833 206.716 113.898L206.235 114.492L205.994 114.785C205.912 114.883 205.844 114.973 205.716 115.108C205.264 115.602 204.76 116.045 204.213 116.431C203.246 117.1 202.188 117.627 201.072 117.994C199.124 118.616 197.102 118.975 195.059 119.062C191.233 119.214 187.404 118.873 183.666 118.047L184.079 114.89C185.807 114.89 187.619 114.89 189.34 114.748C191.068 114.663 192.79 114.472 194.495 114.177C196.079 113.929 197.628 113.495 199.11 112.884C199.708 112.628 200.268 112.289 200.771 111.877C200.963 111.716 201.137 111.534 201.29 111.336C201.29 111.336 201.38 111.215 201.44 111.133L201.613 110.885L201.966 110.389C203.852 107.476 205.532 104.434 206.994 101.287C208.497 98.0932 210 94.7788 211.375 91.5171L217.38 93.9446Z" fill="#803E3C"/>
<path d="M214.878 85.3844C211.744 86.1359 207.896 94.7337 207.896 94.7337L214.389 104.278C214.389 104.278 223.04 93.3884 222.01 90.0666C220.958 86.6019 218.703 84.4524 214.878 85.3844Z" fill="#263238"/>
<path d="M185.883 115.371L180.464 112.869L179.923 118.257C179.923 118.257 184.432 119.588 186.687 118.257L185.883 115.371Z" fill="#7F3E3B"/>
<path d="M177.225 112.328L176.706 116.431L179.923 118.257L180.464 112.869L177.225 112.328Z" fill="#7F3E3B"/>
<path d="M239.612 63.4013C238.462 69.5415 238.109 72.172 234.591 74.9603C229.33 79.1539 222.003 76.4032 221.296 70.0451C220.65 64.3182 222.634 55.2394 229 53.5108C230.402 53.124 231.88 53.1028 233.293 53.4493C234.705 53.7958 236.006 54.4984 237.07 55.4902C238.134 56.4819 238.926 57.7298 239.371 59.1147C239.816 60.4996 239.899 61.9753 239.612 63.4013Z" fill="#7F3E3B"/>
<path d="M226.121 64.694C225.768 67.828 225.633 75.9674 232.517 76.2229C240.942 76.531 243.467 69.3311 242.715 66.4526C247.105 62.8828 247.736 56.7425 242.806 52.0453C237.875 47.3481 227.023 49.971 224.017 54.548C220.206 60.2222 226.121 64.694 226.121 64.694Z" fill="#263238"/>
<path d="M234.561 53.8716C234.155 50.5647 234.471 48.2875 237.567 48.2875C240.664 48.2875 244.888 49.4073 246.436 52.5714C247.984 55.7354 248.112 60.6882 243.79 60.1847C239.469 59.6811 235.05 57.8248 234.561 53.8716Z" fill="#B3D74C"/>
<path d="M239.356 53.0749C238.604 49.1368 242.129 38.0438 250.689 37.2923C254.658 36.9541 256.491 41.2229 254.447 41.9294C258.205 41.8843 260.61 46.8521 257.108 47.5961C259.873 49.3698 259.189 53.0073 255.244 54.796C252.305 56.1488 240.37 58.5312 239.356 53.0749Z" fill="#263238"/>
<path d="M248.502 57.3062C245.744 57.3062 242.866 56.9003 241.077 55.7054C240.577 55.4039 240.156 54.9876 239.849 54.4909C239.541 53.9943 239.357 53.4316 239.311 52.8495C239.309 52.8 239.325 52.7516 239.357 52.714C239.389 52.6763 239.434 52.6522 239.484 52.6465C239.508 52.6434 239.534 52.6455 239.558 52.6526C239.582 52.6598 239.604 52.6719 239.623 52.6882C239.642 52.7044 239.658 52.7245 239.669 52.7471C239.68 52.7697 239.686 52.7943 239.687 52.8194C239.732 53.3447 239.9 53.8519 240.179 54.2998C240.457 54.7478 240.837 55.1237 241.287 55.3972C244.692 57.6519 252.561 56.9004 255.011 56.1488C257.13 55.4574 258.566 54.1121 258.851 52.5639C258.94 51.9957 258.87 51.414 258.649 50.8834C258.427 50.3527 258.063 49.8938 257.596 49.5576C257.578 49.5408 257.564 49.5204 257.554 49.4978C257.544 49.4752 257.539 49.4508 257.539 49.4261C257.539 49.4015 257.544 49.3771 257.554 49.3545C257.564 49.3318 257.578 49.3115 257.596 49.2946C257.631 49.2602 257.678 49.2409 257.728 49.2409C257.777 49.2409 257.824 49.2602 257.859 49.2946C258.384 49.6774 258.792 50.1985 259.037 50.7997C259.283 51.4009 259.356 52.0586 259.25 52.6992C258.941 54.3902 257.416 55.8331 255.161 56.5697C252.986 57.1181 250.745 57.3659 248.502 57.3062Z" fill="#263238"/>
<path d="M224.205 63.8823C223.505 64.864 223.216 66.0804 223.401 67.2718C223.649 68.8501 225.182 68.9553 226.294 67.9482C227.406 66.9412 228.376 65.1224 227.557 63.8147C227.375 63.5322 227.123 63.301 226.827 63.1431C226.53 62.9852 226.198 62.9059 225.862 62.9127C225.526 62.9195 225.197 63.0121 224.907 63.1819C224.617 63.3516 224.375 63.5927 224.205 63.8823Z" fill="#7F3E3B"/>
<path d="M224.633 123.376C224.633 123.376 228.286 166.583 232.081 190.933C235.14 210.601 237.56 256.574 237.56 256.574H246.143C246.143 256.574 249.194 211.977 247.646 192.526C243.715 143.299 252.486 139.286 243.46 123.383L224.633 123.376Z" fill="#B3D74C"/>
<path opacity="0.4" d="M235.441 139.707C232.039 143.277 229.294 147.419 227.331 151.942C228.331 161.652 229.518 172.43 230.781 181.869C235.962 168.456 237.568 153.927 235.441 139.707Z" fill="black"/>
<path d="M218.628 123.105C218.628 123.105 210.699 170.295 209.452 191.564C212.563 211.233 225.294 252.809 225.294 252.809L233.103 249.975C233.103 249.975 228.782 204.641 224.084 192.233C234.659 156.632 242.43 147.628 240.168 123.376C234.749 123.376 218.628 123.105 218.628 123.105Z" fill="#B3D74C"/>
<path d="M224.25 254.883L234.802 252.019L234.2 247.811L222.905 250.87L224.25 254.883Z" fill="#263238"/>
<path d="M236.38 256.747H247.315L247.886 252.914L236.32 252.523L236.38 256.747Z" fill="#263238"/>
<path d="M243.836 121.872L244.985 124.165C245.076 124.345 244.865 124.525 244.572 124.525H217.757C217.531 124.525 217.336 124.413 217.321 124.262L217.088 122.008C217.088 121.85 217.276 121.715 217.524 121.715H243.415C243.492 121.704 243.572 121.713 243.645 121.74C243.719 121.768 243.784 121.813 243.836 121.872Z" fill="#B3D74C"/>
<path opacity="0.5" d="M243.836 121.872L244.985 124.165C245.076 124.345 244.865 124.525 244.572 124.525H217.757C217.531 124.525 217.336 124.413 217.321 124.262L217.088 122.008C217.088 121.85 217.276 121.715 217.524 121.715H243.415C243.492 121.704 243.572 121.713 243.645 121.74C243.719 121.768 243.784 121.813 243.836 121.872Z" fill="black"/>
<path d="M240.356 124.758H241.047C241.19 124.758 241.295 124.683 241.288 124.601L240.957 121.594C240.957 121.504 240.829 121.437 240.694 121.437H239.995C239.86 121.437 239.754 121.504 239.762 121.594L240.085 124.601C240.1 124.698 240.22 124.758 240.356 124.758Z" fill="#B3D74C"/>
<path d="M231.051 102.873C230.969 102.872 230.888 102.844 230.822 102.794C230.756 102.744 230.707 102.674 230.683 102.595C228.233 93.5312 223.168 86.0608 220.71 84.9334C220.519 84.8161 220.29 84.7784 220.071 84.8282C220.026 84.8521 219.976 84.8665 219.925 84.8704C219.874 84.8744 219.822 84.8678 219.774 84.8511C219.725 84.8344 219.681 84.808 219.643 84.7734C219.605 84.7389 219.575 84.6969 219.553 84.6501C219.532 84.6034 219.521 84.5528 219.52 84.5015C219.52 84.4502 219.529 84.3993 219.549 84.3519C219.569 84.3045 219.598 84.2616 219.635 84.2259C219.671 84.1902 219.715 84.1624 219.763 84.1443C219.969 84.0689 220.188 84.0392 220.406 84.0574C220.624 84.0755 220.836 84.1411 221.026 84.2495C223.626 85.4821 228.767 92.8473 231.337 102.114C233.178 102.114 236.019 101.866 236.711 101.806C237.567 100.784 243.866 92.9074 241.513 84.2871C241.5 84.2397 241.496 84.1901 241.502 84.1411C241.507 84.0922 241.523 84.045 241.548 84.0022C241.572 83.9595 241.605 83.9221 241.644 83.8923C241.684 83.8624 241.728 83.8408 241.776 83.8286C241.872 83.8033 241.974 83.8167 242.059 83.8659C242.145 83.9152 242.208 83.9963 242.235 84.0917C244.858 93.6815 237.252 102.332 237.169 102.415C237.14 102.451 237.103 102.481 237.062 102.503C237.021 102.525 236.975 102.538 236.929 102.542C236.891 102.542 233.141 102.873 231.051 102.873Z" fill="#B3D74C"/>
<path d="M243.505 108.179C239.409 100.506 237.733 99.9645 237.004 97.4994C237.556 96.121 238.345 94.8493 239.334 93.7417C238.838 93.5989 237.771 93.3884 237.079 93.2607C237.154 92.9225 237.237 92.5918 237.312 92.2686C236.56 92.1844 235.799 92.2199 235.057 92.3738V91.6223C234.103 91.4146 233.122 91.3512 232.149 91.4344C232.234 91.7901 232.317 92.1509 232.397 92.5166C231.645 92.6594 230.503 92.8924 229.954 93.0502C231.02 94.2577 231.804 95.6878 232.247 97.2364C230.037 101.032 221.454 125.427 235.418 127.299C249.382 129.17 247.593 115.86 243.505 108.179Z" fill="#B3D74C"/>
<path opacity="0.4" d="M243.505 108.179C239.409 100.506 237.733 99.9645 237.004 97.4994C237.556 96.121 238.345 94.8493 239.334 93.7417C238.838 93.5989 237.771 93.3884 237.079 93.2607C237.154 92.9225 237.237 92.5918 237.312 92.2686C236.56 92.1844 235.799 92.2199 235.057 92.3738V91.6223C234.103 91.4146 233.122 91.3512 232.149 91.4344C232.234 91.7901 232.317 92.1509 232.397 92.5166C231.645 92.6594 230.503 92.8924 229.954 93.0502C231.02 94.2577 231.804 95.6878 232.247 97.2364C230.037 101.032 221.454 125.427 235.418 127.299C249.382 129.17 247.593 115.86 243.505 108.179Z" fill="white"/>
<path d="M231.675 96.5074C231.588 96.8944 231.55 97.2908 231.562 97.6873C231.562 97.9654 232.314 98.1533 233.148 98.236C233.983 98.3186 237.485 98.4539 237.372 98.0631C237.259 97.6723 237.545 97.1387 237.56 96.808C237.575 96.4773 236.17 96.4623 234.99 96.5074C233.81 96.5525 231.908 96.0865 231.675 96.5074Z" fill="#B3D74C"/>
<path d="M223.551 124.758H224.243C224.378 124.758 224.483 124.683 224.476 124.601L224.153 121.594C224.153 121.504 224.025 121.437 223.882 121.437H223.213C223.078 121.437 222.973 121.504 222.98 121.594L223.303 124.601C223.288 124.698 223.409 124.758 223.551 124.758Z" fill="#B3D74C"/>
</svg>
