<svg width="346" height="626" viewBox="0 0 346 626" fill="none" xmlns="http://www.w3.org/2000/svg">
<path d="M335.527 293.825C325.727 288.483 321.229 292.941 317.707 288.483C314.184 284.025 327.507 272.444 300.81 260.863C300.81 260.863 299.029 235.92 262.492 235.023C225.955 234.126 235.768 259.979 225.968 266.218C216.167 272.457 213.49 262.656 203.689 268.895C193.889 275.134 198.321 287.56 190.301 289.38C182.282 291.2 171.584 281.36 161.784 287.599C151.984 293.838 151.984 299.18 147.486 299.18C142.989 299.18 134.111 295.619 128.769 299.18C123.427 302.742 117.188 307.2 117.188 307.2H342.663C342.663 307.2 345.327 299.18 335.527 293.825Z" stroke="#263238" stroke-linecap="round" stroke-linejoin="round"/>
<path d="M202.181 290.16C200.903 290.881 199.574 291.506 198.204 292.032" stroke="#263238" stroke-linecap="round" stroke-linejoin="round"/>
<path d="M250.404 248.567C248.193 249.553 246.25 251.054 244.737 252.945C243.225 254.835 242.186 257.059 241.708 259.433C240.07 267.596 236.262 273.029 231.921 273.575C227.579 274.12 211.254 272.483 208.524 278.475C207.798 280.226 207.288 282.059 207.004 283.934" stroke="#263238" stroke-linecap="round" stroke-linejoin="round"/>
<path d="M115.473 357.879C110.338 355.084 107.999 357.411 106.127 355.084C104.255 352.758 111.261 346.675 97.2495 340.592C97.2495 340.592 96.3136 327.516 77.1677 327.048C58.0218 326.58 63.143 340.124 58.0088 343.451C52.8746 346.779 51.5099 341.58 46.3107 344.855C41.1115 348.131 43.5162 354.669 39.3048 355.604C35.0935 356.54 29.4914 351.393 24.3572 354.669C19.2231 357.944 19.1581 360.739 16.8834 360.739C14.6088 360.739 9.87758 358.867 7.07003 360.739C4.26248 362.61 1 364.937 1 364.937H119.19C119.19 364.937 120.594 360.687 115.473 357.879Z" stroke="#263238" stroke-linecap="round" stroke-linejoin="round"/>
<path d="M45.5568 355.968C44.8806 356.337 44.1816 356.663 43.4641 356.943" stroke="#263238" stroke-linecap="round" stroke-linejoin="round"/>
<path d="M70.8377 334.145C69.6783 334.661 68.6591 335.447 67.8655 336.437C67.0718 337.428 66.5266 338.594 66.2755 339.838C65.4176 344.114 63.4289 346.974 61.0763 347.26C58.7237 347.546 50.2491 346.688 48.8193 349.859C48.4423 350.778 48.1719 351.738 48.0134 352.719" stroke="#263238" stroke-linecap="round" stroke-linejoin="round"/>
<path d="M335.527 59.8253C325.727 54.4831 321.229 58.9414 317.707 54.4831C314.184 50.0249 327.507 38.4437 300.81 26.8626C300.81 26.8626 299.029 1.91963 262.492 1.02278C225.955 0.12592 235.768 25.9787 225.968 32.2177C216.167 38.4567 213.49 28.6563 203.689 34.8953C193.889 41.1343 198.321 53.5603 190.301 55.38C182.282 57.1997 171.584 47.3603 161.784 53.5993C151.984 59.8383 151.984 65.1804 147.486 65.1804C142.989 65.1804 134.111 61.619 128.769 65.1804C123.427 68.7418 117.188 73.2001 117.188 73.2001H342.663C342.663 73.2001 345.327 65.1804 335.527 59.8253Z" stroke="#263238" stroke-linecap="round" stroke-linejoin="round"/>
<path d="M202.181 56.1599C200.903 56.8806 199.574 57.5062 198.204 58.0316" stroke="#263238" stroke-linecap="round" stroke-linejoin="round"/>
<path d="M250.404 14.5666C248.193 15.5533 246.25 17.0543 244.737 18.9446C243.225 20.8349 242.186 23.0595 241.708 25.4328C240.07 33.5955 236.262 39.0286 231.921 39.5746C227.579 40.1205 211.254 38.4827 208.524 44.4748C207.798 46.2261 207.288 48.0593 207.004 49.9339" stroke="#263238" stroke-linecap="round" stroke-linejoin="round"/>
<path d="M115.473 123.879C110.338 121.084 107.999 123.411 106.127 121.084C104.255 118.758 111.261 112.675 97.2495 106.592C97.2495 106.592 96.3136 93.5159 77.1677 93.048C58.0218 92.58 63.143 106.124 58.0088 109.451C52.8746 112.779 51.5099 107.58 46.3107 110.855C41.1115 114.131 43.5162 120.669 39.3048 121.604C35.0935 122.54 29.4914 117.393 24.3572 120.669C19.2231 123.944 19.1581 126.739 16.8834 126.739C14.6088 126.739 9.87758 124.867 7.07003 126.739C4.26248 128.61 1 130.937 1 130.937H119.19C119.19 130.937 120.594 126.687 115.473 123.879Z" stroke="#263238" stroke-linecap="round" stroke-linejoin="round"/>
<path d="M45.5568 121.968C44.8806 122.337 44.1816 122.663 43.4641 122.943" stroke="#263238" stroke-linecap="round" stroke-linejoin="round"/>
<path d="M70.8377 100.145C69.6783 100.661 68.6591 101.447 67.8655 102.437C67.0718 103.428 66.5266 104.594 66.2755 105.838C65.4176 110.114 63.4289 112.974 61.0763 113.26C58.7237 113.546 50.2491 112.688 48.8193 115.859C48.4423 116.778 48.1719 117.738 48.0134 118.719" stroke="#263238" stroke-linecap="round" stroke-linejoin="round"/>
<path d="M215.02 508.974L208.677 518.501L156.556 541.156C156.556 541.156 149.303 542.521 149.303 544.783C149.303 547.044 147.938 553.4 149.303 554.31C150.668 555.22 159.701 552.036 159.701 552.036C159.701 552.036 156.985 555.207 159.701 556.117C162.418 557.027 165.134 552.945 165.134 552.945C167.796 551.269 170.368 549.455 172.842 547.512C174.119 545.834 175.184 544.005 176.014 542.066L224.106 529.835L234.075 514.875C234.075 514.875 213.668 512.6 215.02 508.974Z" fill="#B5B5B5" stroke="#263238" stroke-linecap="round" stroke-linejoin="round"/>
<path d="M218.646 487.605L212.745 506.972L228.174 516.161L234.4 501.058L218.646 487.605Z" fill="white" stroke="#263238" stroke-linecap="round" stroke-linejoin="round"/>
<path d="M213.356 500.733L232.073 511.898L228.785 517.799L211.069 508.61C211.191 505.839 211.976 503.138 213.356 500.733Z" fill="white" stroke="#263238" stroke-linecap="round" stroke-linejoin="round"/>
<path d="M176.312 603.104C176.312 603.104 163.185 609.668 159.571 612.619C155.958 615.569 155.308 615.218 156.283 617.545H198.305L197.317 602.441L176.312 603.104Z" fill="white" stroke="#263238" stroke-linecap="round" stroke-linejoin="round"/>
<path d="M198.149 615.283H156.283C155.711 615.894 155.776 616.388 156.283 617.584H198.305L198.149 615.283Z" fill="white" stroke="#263238" stroke-linecap="round" stroke-linejoin="round"/>
<path d="M232.762 525.026C232.762 525.026 216.684 518.462 203.556 517.149C190.428 515.836 163.184 516.486 161.871 522.348C160.559 528.21 181.238 592.537 181.238 592.537C181.238 592.537 177.625 594.838 177.339 596.436C177.053 598.035 176.364 602.935 176.364 602.935L197.369 606.211C197.369 606.211 198.019 599.647 198.019 593.421C198.019 587.195 190.805 548.773 190.805 548.773L233.139 562.239L217.386 595.709C217.386 595.709 212.472 605.561 218.048 610.487C223.624 615.413 232.814 614.387 232.814 614.387L307.656 615.374L306.356 603.221C306.356 603.221 295.529 601.584 293.553 601.584C291.578 601.584 253.832 592.069 253.832 592.069C253.832 592.069 284.039 560.549 287.314 555.298C289.263 552.391 290.59 549.112 291.212 545.667C291.834 542.223 291.737 538.687 290.928 535.281C288.952 527.405 287.639 525.754 287.639 525.754C287.639 525.754 264.607 536.815 252.792 534.215C245.555 532.56 238.737 529.432 232.762 525.026Z" fill="#263238" stroke="#263238" stroke-linecap="round" stroke-linejoin="round"/>
<path d="M179.263 424.253C179.263 424.253 181.564 431.805 181.564 432.793C181.564 433.781 179.913 438.694 181.239 440.332C182.565 441.969 186.438 442.307 186.438 442.307C186.438 442.307 192.339 449.196 194.965 451.822C197.59 454.447 200.541 455.435 203.829 453.797C207.118 452.16 210.068 447.883 210.068 447.883L216.307 454.122L230.748 437.381L225.549 430.817C225.549 430.817 226.848 423.265 221.935 413.426C217.022 403.587 199.943 400.948 188.778 402.924C177.612 404.899 175 411.45 175 412.763C175 414.076 179.263 424.253 179.263 424.253Z" fill="white" stroke="#263238" stroke-linecap="round" stroke-linejoin="round"/>
<path d="M185.177 394.384C185.177 394.384 178.275 389.185 173.687 391.433C169.099 393.682 171.088 395.697 170.399 399.635C169.71 403.574 158.259 403.898 158.259 410.462C158.259 417.026 166.46 419.327 168.098 419.652C169.736 419.977 168.436 427.204 173.297 427.204C178.158 427.204 179.211 424.253 179.211 424.253C179.211 424.253 175.598 413.751 179.536 412.113C183.475 410.475 192.339 407.187 191.026 413.413C189.714 419.639 194.315 421.615 196.94 420.965C199.566 420.315 202.841 420.627 203.439 421.94C204.037 423.252 207.339 425.553 207.339 422.278C207.339 419.002 208.976 416.039 211.927 416.039C214.877 416.039 217.126 420.965 216.853 424.903C216.632 427.275 215.729 429.532 214.254 431.402L225.419 430.739C225.419 430.739 228.369 415.974 225.744 405.471C223.118 394.969 210.757 389.133 203.218 388.145C195.68 387.157 186.152 391.434 185.177 394.384Z" fill="#263238" stroke="#263238" stroke-linecap="round" stroke-linejoin="round"/>
<path d="M187.998 430.115C188.817 431.415 189.012 432.715 188.453 433.04C187.894 433.365 186.75 432.715 185.944 431.467C185.138 430.219 184.917 428.867 185.489 428.543C186.061 428.218 187.179 428.932 187.998 430.115Z" fill="#263238"/>
<path d="M192.261 444.855C193.829 444.543 195.251 443.721 196.304 442.517C197.357 441.314 197.983 439.796 198.084 438.2" stroke="#263238" stroke-linecap="round" stroke-linejoin="round"/>
<path d="M182.265 427.373C182.265 427.373 182.811 424.318 186.425 425.709" stroke="#263238" stroke-linecap="round" stroke-linejoin="round"/>
<path d="M217.009 459.698C217.009 459.698 214.409 481.366 217.334 487.93C220.258 494.494 230.8 520.75 230.8 520.75C230.8 520.75 228.499 536.815 235.063 541.104C241.627 545.394 266.57 546.031 276.097 540.116C285.625 534.202 289.55 529.614 289.55 525.351C289.55 521.088 283.311 502.371 273.472 483.667C266.267 469.968 256.321 457.899 244.252 448.208C237.364 442.632 234.738 440.007 233.425 440.007C232.112 440.007 216.359 453.472 217.009 459.698Z" fill="white" stroke="#263238" stroke-linecap="round" stroke-linejoin="round"/>
<path d="M230.799 435.743L213.07 455.76L216.684 466.6L236.7 440.67L230.799 435.743Z" fill="white" stroke="#263238" stroke-linecap="round" stroke-linejoin="round"/>
<path d="M231.124 508.935C231.124 508.935 195.016 529.614 190.428 531.265C185.84 532.916 171.061 532.903 166.785 532.565C166.26 532.471 165.722 532.494 165.207 532.632C164.693 532.771 164.215 533.02 163.808 533.364C163.401 533.708 163.075 534.137 162.852 534.621C162.63 535.105 162.517 535.632 162.521 536.165L161.872 548.643C161.872 548.643 165.472 549.631 167.071 548.643C168.669 547.655 170.346 544.042 170.346 544.042C170.346 544.042 176.26 544.705 178.223 543.392C179.511 542.516 180.72 541.528 181.836 540.441C187.901 539.938 193.93 539.07 199.89 537.842C206.454 536.191 236.648 526.352 241.25 525.364C245.851 524.376 247.489 521.75 247.814 520.165C248.139 518.579 231.124 508.935 231.124 508.935Z" fill="white" stroke="#263238" stroke-linecap="round" stroke-linejoin="round"/>
<path d="M189.96 531.395C184.943 532.89 170.931 532.89 166.785 532.578C166.26 532.484 165.722 532.507 165.207 532.645C164.693 532.784 164.215 533.033 163.808 533.377C163.401 533.721 163.075 534.15 162.852 534.634C162.63 535.118 162.517 535.645 162.521 536.178L161.872 548.656C161.872 548.656 165.472 549.644 167.071 548.656C168.669 547.668 170.346 544.055 170.346 544.055C170.346 544.055 176.26 544.718 178.223 543.405C179.511 542.529 180.72 541.541 181.836 540.454C181.836 540.454 187.347 539.974 192.924 539.155L189.96 531.395Z" fill="#B3D74C" stroke="#263238" stroke-linecap="round" stroke-linejoin="round"/>
<path d="M233.75 460.036C233.75 460.036 228.174 466.262 228.824 470.864C229.474 475.465 231.124 508.935 231.124 508.935L249.828 516.486L255.027 489.906C255.027 489.906 259.304 483.004 258.641 476.44" fill="white"/>
<path d="M233.75 460.036C233.75 460.036 228.174 466.262 228.824 470.864C229.474 475.465 231.124 508.935 231.124 508.935L249.828 516.486L255.027 489.906C255.027 489.906 259.304 483.004 258.641 476.44" stroke="#263238" stroke-linecap="round" stroke-linejoin="round"/>
<path d="M229.487 510.585L248.516 522.062C248.516 522.062 251.115 522.062 251.479 517.799C251.843 513.536 253.767 512.873 252.129 510.585C250.491 508.298 233.087 501.058 231.449 501.058C229.812 501.058 228.174 504.996 229.487 510.585Z" fill="white" stroke="#263238" stroke-linecap="round" stroke-linejoin="round"/>
<path d="M306.292 603.468C306.292 603.468 316.131 594.942 317.782 595.267C319.432 595.592 332.547 608.07 332.547 608.07C332.547 608.07 344.687 614.634 344.687 615.621C344.687 616.609 342.725 616.921 342.725 616.921L307.63 615.621L306.292 603.468Z" fill="white" stroke="#263238" stroke-linecap="round" stroke-linejoin="round"/>
<path d="M344.635 615.621C344.635 614.634 332.495 608.07 332.495 608.07C332.495 608.07 319.367 595.592 317.73 595.267C317.145 595.15 315.507 596.164 313.661 597.515L329.545 608.719L341.113 616.869L342.673 616.934C342.673 616.934 344.635 616.596 344.635 615.621Z" fill="white" stroke="#263238" stroke-linecap="round" stroke-linejoin="round"/>
<path d="M233.087 562.447L229.812 548.656" stroke="#999999" stroke-linecap="round" stroke-linejoin="round"/>
<path d="M164.822 545.043C164.822 545.043 138.229 553.582 131.028 556.208C123.827 558.834 100.171 559.158 98.533 561.784C96.8952 564.41 85.1191 579.253 82.8185 587.78C80.5179 596.306 83.5724 619.404 85.769 620.847C94.5946 626.683 117.809 624.889 127.635 624.512C145.611 623.849 163.016 630.335 173.128 612.034C176.403 606.12 171.672 585.414 171.022 578.525C170.372 571.636 168.059 560.146 167.734 558.496C167.409 556.845 169.748 546.356 164.822 545.043Z" fill="white" stroke="#263238" stroke-linecap="round" stroke-linejoin="round"/>
<path d="M131.561 578.408C145.624 573.443 157.621 558.912 161.352 556.468C165.082 554.024 167.123 548.669 167.123 548.669C161.232 552.639 154.836 555.804 148.107 558.08" stroke="#263238" stroke-linecap="round" stroke-linejoin="round"/>
<path d="M166.733 551.035C164.074 559.246 159.374 566.648 153.072 572.546" stroke="#263238" stroke-linecap="round" stroke-linejoin="round"/>
<path d="M103.836 562.616C103.836 562.616 107.97 564.683 122.033 564.683" stroke="#263238" stroke-linecap="round" stroke-linejoin="round"/>
<path d="M102.172 563.032C102.172 563.032 105.487 577.511 124.113 583.309" stroke="#263238" stroke-linecap="round" stroke-linejoin="round"/>
<path d="M98.8711 568.01C101.695 572.991 105.492 577.354 110.036 580.839" stroke="#263238" stroke-linecap="round" stroke-linejoin="round"/>
</svg>
