<svg width="622" height="560" viewBox="0 0 622 560" fill="none" xmlns="http://www.w3.org/2000/svg">
<path d="M457.694 59.8253C447.894 54.4831 443.397 58.9414 439.874 54.4831C436.352 50.0249 449.675 38.4437 422.977 26.8626C422.977 26.8626 421.196 1.91963 384.659 1.02278C348.122 0.12592 357.935 25.9787 348.135 32.2177C338.335 38.4567 335.657 28.6563 325.857 34.8953C316.056 41.1343 320.488 53.5603 312.469 55.38C304.449 57.1997 293.752 47.3603 283.951 53.5993C274.151 59.8383 274.151 65.1804 269.654 65.1804C265.156 65.1804 256.279 61.619 250.937 65.1804C245.594 68.7418 239.355 73.2001 239.355 73.2001H464.83C464.83 73.2001 467.495 65.1804 457.694 59.8253Z" stroke="#263238" stroke-linecap="round" stroke-linejoin="round"/>
<path d="M324.349 56.1599C323.071 56.8806 321.741 57.5062 320.371 58.0316" stroke="#263238" stroke-linecap="round" stroke-linejoin="round"/>
<path d="M372.571 14.5666C370.36 15.5533 368.417 17.0543 366.905 18.9446C365.392 20.8349 364.353 23.0595 363.875 25.4328C362.238 33.5955 358.429 39.0286 354.088 39.5746C349.747 40.1205 333.421 38.4827 330.692 44.4748C329.966 46.2261 329.455 48.0593 329.171 49.9339" stroke="#263238" stroke-linecap="round" stroke-linejoin="round"/>
<path d="M237.64 123.879C232.506 121.084 230.166 123.411 228.294 121.084C226.423 118.758 233.429 112.675 219.417 106.592C219.417 106.592 218.481 93.5159 199.335 93.048C180.189 92.58 185.31 106.124 180.176 109.451C175.042 112.779 173.677 107.58 168.478 110.855C163.279 114.131 165.684 120.669 161.472 121.604C157.261 122.54 151.659 117.393 146.525 120.669C141.39 123.944 141.325 126.739 139.051 126.739C136.776 126.739 132.045 124.867 129.237 126.739C126.43 128.61 123.167 130.937 123.167 130.937H241.357C241.357 130.937 242.761 126.687 237.64 123.879Z" stroke="#263238" stroke-linecap="round" stroke-linejoin="round"/>
<path d="M167.724 121.968C167.048 122.337 166.349 122.663 165.631 122.943" stroke="#263238" stroke-linecap="round" stroke-linejoin="round"/>
<path d="M193.005 100.145C191.846 100.661 190.826 101.447 190.033 102.437C189.239 103.428 188.694 104.594 188.443 105.838C187.585 110.114 185.596 112.974 183.244 113.26C180.891 113.546 172.416 112.688 170.987 115.859C170.609 116.778 170.339 117.738 170.181 118.719" stroke="#263238" stroke-linecap="round" stroke-linejoin="round"/>
<path d="M390.482 221.649C390.482 221.649 451.741 227.719 482.767 265.686C482.767 265.686 515.574 221.701 574.493 222.598C588.886 205.231 598.049 184.133 600.917 161.761C603.784 139.388 600.237 116.662 590.689 96.2267C581.141 75.7917 565.985 58.4893 546.985 46.3338C527.985 34.1784 505.923 27.67 483.368 27.5664C460.813 27.4629 438.692 33.7684 419.582 45.749C400.471 57.7295 385.157 74.892 375.421 95.2385C365.686 115.585 361.931 138.278 364.593 160.676C367.254 183.074 376.224 204.255 390.456 221.753L390.482 221.649Z" fill="#B3D74C"/>
<path opacity="0.5" d="M390.482 221.649C390.482 221.649 451.741 227.719 482.767 265.686C482.767 265.686 515.574 221.701 574.493 222.598C588.886 205.231 598.049 184.133 600.917 161.761C603.784 139.388 600.237 116.662 590.689 96.2267C581.141 75.7917 565.985 58.4893 546.985 46.3338C527.985 34.1784 505.923 27.67 483.368 27.5664C460.813 27.4629 438.692 33.7684 419.582 45.749C400.471 57.7295 385.157 74.892 375.421 95.2385C365.686 115.585 361.931 138.278 364.593 160.676C367.254 183.074 376.224 204.255 390.456 221.753L390.482 221.649Z" fill="white"/>
<path d="M480.766 35.9611L478.686 504.276H489.032L480.766 35.9611Z" fill="#263238"/>
<path d="M483.859 254.118C483.859 254.118 504.539 216.892 541.713 205.519C541.713 205.519 502.42 214.825 482.78 246.878L483.859 254.118Z" fill="#263238"/>
<path d="M483.859 148.653C483.859 148.653 504.539 111.44 541.713 100.067C541.713 100.067 502.42 109.373 482.78 141.413L483.859 148.653Z" fill="#263238"/>
<path d="M483.859 201.385C483.859 201.385 504.539 164.159 541.713 152.786C541.713 152.786 502.42 162.093 482.78 194.146L483.859 201.385Z" fill="#263238"/>
<path d="M480.791 175.533C480.791 175.533 460.84 138.32 424.9 126.946C424.9 126.946 462.815 136.253 481.766 168.306L480.791 175.533Z" fill="#263238"/>
<path d="M480.791 227.225C480.791 227.225 460.84 190.012 424.9 178.639C424.9 178.639 462.815 187.946 481.766 219.998L480.791 227.225Z" fill="#263238"/>
<path d="M198.776 270.196C198.776 270.196 249.468 275.227 275.217 306.668C275.217 306.668 302.382 270.274 351.177 270.989C363.101 256.606 370.694 239.131 373.071 220.599C375.449 202.068 372.513 183.242 364.606 166.314C356.699 149.386 344.145 135.053 328.408 124.984C312.67 114.914 294.396 109.522 275.712 109.436C257.029 109.35 238.706 114.573 222.876 124.498C207.046 134.422 194.361 148.639 186.298 165.493C178.236 182.347 175.127 201.145 177.333 219.698C179.54 238.251 186.972 255.795 198.763 270.287L198.776 270.196Z" fill="#B3D74C"/>
<path opacity="0.3" d="M198.776 270.196C198.776 270.196 249.468 275.227 275.217 306.668C275.217 306.668 302.382 270.274 351.177 270.989C363.101 256.606 370.694 239.131 373.071 220.599C375.449 202.068 372.513 183.242 364.606 166.314C356.699 149.386 344.145 135.053 328.408 124.984C312.67 114.914 294.396 109.522 275.712 109.436C257.029 109.35 238.706 114.573 222.876 124.498C207.046 134.422 194.361 148.639 186.298 165.493C178.236 182.347 175.127 201.145 177.333 219.698C179.54 238.251 186.972 255.795 198.763 270.287L198.776 270.196Z" fill="white"/>
<path d="M273.54 116.405L271.837 504.276H280.39L273.54 116.405Z" fill="#263238"/>
<path d="M276.114 297.089C276.114 297.089 293.232 266.258 324.063 256.796C324.063 256.796 291.568 264.503 275.256 291.045L276.114 297.089Z" fill="#263238"/>
<path d="M276.114 209.743C276.114 209.743 293.232 178.912 324.063 169.45C324.063 169.45 291.568 177.157 275.256 203.712L276.114 209.743Z" fill="#263238"/>
<path d="M276.114 253.416C276.114 253.416 293.232 222.585 324.063 213.122C324.063 213.122 291.568 220.83 275.256 247.385L276.114 253.416Z" fill="#263238"/>
<path d="M273.579 232.008C273.579 232.008 257.046 201.177 227.307 191.715C227.307 191.715 258.696 199.423 274.398 225.977L273.579 232.008Z" fill="#263238"/>
<path d="M273.579 274.824C273.579 274.824 257.046 243.993 227.307 234.53C227.307 234.53 258.696 242.238 274.398 268.792L273.579 274.824Z" fill="#263238"/>
<path d="M318.318 503.834C318.136 499.765 318.669 492.045 323.049 480.437C329.912 462.24 341.935 498.635 341.935 498.635C341.935 498.635 341.935 494.306 354.816 480.437C367.697 466.569 378.849 490.836 378.849 490.836C378.849 490.836 372.844 432.787 387.441 437.115C402.037 441.444 400.309 490.836 400.309 490.836C400.309 490.836 410.616 454.442 424.355 454.442C438.094 454.442 441.525 480.437 441.525 480.437C441.525 480.437 444.956 434.516 458.695 433.645C472.434 432.774 487.876 471.781 487.876 471.781C487.876 471.781 483.586 419.789 497.325 417.19C511.064 414.59 516.211 436.245 516.211 436.245C516.211 436.245 528.221 364.327 551.409 372.997C574.598 381.666 554.841 461.383 554.841 461.383C554.841 461.383 578.016 405.92 596.902 418.918C614.072 430.733 592.223 492.669 588.115 503.834H318.318Z" fill="#B3D74C"/>
<path d="M595.433 503.717C595.433 503.717 605.494 472.639 600.333 467.44C595.173 462.24 572.908 484.779 572.908 484.779C572.908 484.779 589.22 429.317 563.458 422.389C537.696 415.461 533.42 476.109 533.42 476.109C533.42 476.109 514.534 448.385 510.232 458.783C507.64 465.121 506.188 471.866 505.943 478.709C505.943 478.709 496.506 403.321 475.034 406.791C453.561 410.262 473.318 484.779 473.318 484.779C473.318 484.779 461.308 458.783 447.569 461.383C433.83 463.982 428.631 480.437 428.631 480.437C428.631 480.437 422.626 465.711 418.324 465.711C414.021 465.711 408.887 491.707 408.887 491.707C408.887 491.707 403.688 451.842 394.291 453.584C384.893 455.326 365.097 489.107 365.097 489.107C365.097 489.107 368.542 470.039 358.234 469.181C347.927 468.323 341.922 498.635 341.922 498.635C341.922 498.635 328.183 470.039 319.605 475.238C311.026 480.437 315.12 504.588 315.12 504.588" stroke="#263238" stroke-linecap="round" stroke-linejoin="round"/>
<path d="M549.083 503.288L556.556 466.582" stroke="#263238" stroke-linecap="round" stroke-linejoin="round"/>
<path d="M495.609 503.834L491.307 479.58" stroke="#263238" stroke-linecap="round" stroke-linejoin="round"/>
<path d="M387.038 503.717L392.588 483.908" stroke="#263238" stroke-linecap="round" stroke-linejoin="round"/>
<path d="M453.535 504.705L444.099 487.378" stroke="#263238" stroke-linecap="round" stroke-linejoin="round"/>
<path d="M550.552 489.107L543.676 475.238" stroke="#263238" stroke-linecap="round" stroke-linejoin="round"/>
<path d="M495.609 496.035L501.614 483.908" stroke="#263238" stroke-linecap="round" stroke-linejoin="round"/>
<path d="M449.246 495.177L453.535 487.378" stroke="#263238" stroke-linecap="round" stroke-linejoin="round"/>
<path d="M388.766 496.36L385.725 485.637" stroke="#263238" stroke-linecap="round" stroke-linejoin="round"/>
<path d="M279.155 504.029C279.298 500.87 278.895 494.93 275.685 485.832C270.654 471.703 261.829 499.96 261.829 499.96C261.829 499.96 261.829 496.594 252.392 485.832C242.956 475.069 234.767 493.903 234.767 493.903C234.767 493.903 239.174 448.84 228.463 452.206C217.753 455.572 219.027 493.903 219.027 493.903C219.027 493.903 211.566 465.698 201.428 465.698C191.289 465.698 188.833 485.871 188.833 485.871C188.833 485.871 186.324 450.217 176.251 449.554C166.177 448.892 154.843 479.138 154.843 479.138C154.843 479.138 157.989 438.844 147.915 436.764C137.842 434.685 134.059 451.569 134.059 451.569C134.059 451.569 125.247 395.743 108.246 402.463C91.2444 409.183 105.724 471.079 105.724 471.079C105.724 471.079 88.7228 428.03 74.88 438.116C62.2851 447.293 78.3115 495.307 81.379 504.029H279.155Z" fill="#B3D74C"/>
<path d="M75.959 503.938C75.959 503.938 68.5892 479.814 72.3586 475.784C76.128 471.755 92.5053 489.237 92.5053 489.237C92.5053 489.237 80.5473 446.188 99.4332 440.807C118.319 435.426 121.53 482.504 121.53 482.504C121.53 482.504 135.385 460.98 138.531 469.051C140.435 473.995 141.499 479.224 141.676 484.519C141.676 484.519 148.604 426.028 164.345 428.693C180.085 431.357 165.645 489.237 165.645 489.237C165.645 489.237 174.457 469.051 184.53 471.04C194.604 473.029 198.386 485.832 198.386 485.832C198.386 485.832 202.793 474.393 205.938 474.393C209.084 474.393 212.866 494.579 212.866 494.579C212.866 494.579 216.648 463.631 223.576 464.983C230.504 466.335 244.984 492.551 244.984 492.551C244.984 492.551 242.462 477.76 250.014 477.084C257.566 476.408 261.972 499.96 261.972 499.96C261.972 499.96 272.045 477.76 278.349 481.763C284.653 485.767 281.547 504.588 281.547 504.588" stroke="#263238" stroke-linecap="round" stroke-linejoin="round"/>
<path d="M109.948 503.6L104.463 475.108" stroke="#263238" stroke-linecap="round" stroke-linejoin="round"/>
<path d="M149.176 504.029L152.322 485.195" stroke="#263238" stroke-linecap="round" stroke-linejoin="round"/>
<path d="M228.801 503.938L224.72 488.561" stroke="#263238" stroke-linecap="round" stroke-linejoin="round"/>
<path d="M180.02 504.705L186.948 491.252" stroke="#263238" stroke-linecap="round" stroke-linejoin="round"/>
<path d="M108.883 492.591L113.913 481.828" stroke="#263238" stroke-linecap="round" stroke-linejoin="round"/>
<path d="M149.176 497.972L144.77 488.561" stroke="#263238" stroke-linecap="round" stroke-linejoin="round"/>
<path d="M183.166 497.309L180.02 491.252" stroke="#263238" stroke-linecap="round" stroke-linejoin="round"/>
<path d="M227.527 498.219L229.763 489.9" stroke="#263238" stroke-linecap="round" stroke-linejoin="round"/>
<path d="M1 504.276H621" stroke="#263238" stroke-linecap="round" stroke-linejoin="round"/>
<path d="M474.488 396.159L468.145 405.686L416.023 428.342C416.023 428.342 408.77 429.707 408.77 431.968C408.77 434.23 407.406 440.586 408.77 441.496C410.135 442.405 419.169 439.221 419.169 439.221C419.169 439.221 416.452 442.393 419.169 443.302C421.885 444.212 424.602 440.131 424.602 440.131C427.263 438.454 429.836 436.641 432.31 434.698C433.587 433.02 434.652 431.19 435.481 429.252L483.573 417.021L493.543 402.06C493.543 402.06 473.136 399.785 474.488 396.159Z" fill="#B5B5B5" stroke="#263238" stroke-linecap="round" stroke-linejoin="round"/>
<path d="M478.114 374.791L472.213 394.157L487.641 403.347L493.867 388.243L478.114 374.791Z" fill="white" stroke="#263238" stroke-linecap="round" stroke-linejoin="round"/>
<path d="M472.824 387.918L491.541 399.084L488.252 404.985L470.536 395.795C470.659 393.025 471.443 390.324 472.824 387.918Z" fill="white" stroke="#263238" stroke-linecap="round" stroke-linejoin="round"/>
<path d="M435.78 490.29C435.78 490.29 422.652 496.854 419.039 499.804C415.425 502.755 414.775 502.404 415.75 504.73H457.772L456.785 489.627L435.78 490.29Z" fill="white" stroke="#263238" stroke-linecap="round" stroke-linejoin="round"/>
<path d="M457.616 502.469H415.75C415.178 503.08 415.243 503.574 415.75 504.77H457.772L457.616 502.469Z" fill="white" stroke="#263238" stroke-linecap="round" stroke-linejoin="round"/>
<path d="M492.23 412.211C492.23 412.211 476.151 405.647 463.023 404.335C449.895 403.022 422.652 403.672 421.339 409.534C420.026 415.396 440.706 479.723 440.706 479.723C440.706 479.723 437.092 482.023 436.807 483.622C436.521 485.221 435.832 490.121 435.832 490.121L456.836 493.396C456.836 493.396 457.486 486.832 457.486 480.606C457.486 474.38 450.272 435.959 450.272 435.959L492.607 449.424L476.853 482.894C476.853 482.894 471.94 492.746 477.516 497.673C483.092 502.599 492.282 501.572 492.282 501.572L567.123 502.56L565.824 490.407C565.824 490.407 554.996 488.769 553.021 488.769C551.045 488.769 513.299 479.255 513.299 479.255C513.299 479.255 543.506 447.735 546.782 442.484C548.731 439.576 550.058 436.297 550.68 432.853C551.302 429.408 551.205 425.872 550.395 422.467C548.419 414.59 547.107 412.939 547.107 412.939C547.107 412.939 524.074 424.001 512.259 421.401C505.022 419.746 498.204 416.618 492.23 412.211Z" fill="#263238" stroke="#263238" stroke-linecap="round" stroke-linejoin="round"/>
<path d="M438.731 311.439C438.731 311.439 441.031 318.991 441.031 319.978C441.031 320.966 439.381 325.879 440.706 327.517C442.032 329.155 445.905 329.493 445.905 329.493C445.905 329.493 451.807 336.382 454.432 339.007C457.058 341.633 460.008 342.621 463.297 340.983C466.585 339.345 469.536 335.069 469.536 335.069L475.775 341.308L490.215 324.567L485.016 318.003C485.016 318.003 486.316 310.451 481.403 300.611C476.49 290.772 459.41 288.133 448.245 290.109C437.08 292.085 434.467 298.636 434.467 299.949C434.467 301.261 438.731 311.439 438.731 311.439Z" fill="white" stroke="#263238" stroke-linecap="round" stroke-linejoin="round"/>
<path d="M444.645 281.57C444.645 281.57 437.743 276.37 433.155 278.619C428.566 280.868 430.555 282.882 429.866 286.821C429.177 290.759 417.726 291.084 417.726 297.648C417.726 304.212 425.928 306.512 427.565 306.837C429.203 307.162 427.903 314.389 432.765 314.389C437.626 314.389 438.679 311.439 438.679 311.439C438.679 311.439 435.065 300.936 439.004 299.299C442.942 297.661 451.807 294.372 450.494 300.598C449.181 306.824 453.782 308.8 456.408 308.15C459.033 307.5 462.309 307.812 462.907 309.125C463.505 310.438 466.806 312.738 466.806 309.463C466.806 306.188 468.444 303.224 471.394 303.224C474.345 303.224 476.594 308.15 476.321 312.089C476.099 314.46 475.196 316.717 473.721 318.588L484.886 317.925C484.886 317.925 487.837 303.159 485.211 292.657C482.586 282.154 470.225 276.318 462.686 275.331C455.147 274.343 445.62 278.619 444.645 281.57Z" fill="#263238" stroke="#263238" stroke-linecap="round" stroke-linejoin="round"/>
<path d="M447.465 317.301C448.284 318.601 448.479 319.9 447.92 320.225C447.361 320.55 446.217 319.9 445.412 318.653C444.606 317.405 444.385 316.053 444.957 315.728C445.529 315.403 446.646 316.118 447.465 317.301Z" fill="#263238"/>
<path d="M451.728 332.04C453.297 331.728 454.718 330.907 455.771 329.703C456.824 328.499 457.45 326.982 457.551 325.385" stroke="#263238" stroke-linecap="round" stroke-linejoin="round"/>
<path d="M441.733 314.558C441.733 314.558 442.279 311.504 445.892 312.894" stroke="#263238" stroke-linecap="round" stroke-linejoin="round"/>
<path d="M476.476 346.884C476.476 346.884 473.877 368.551 476.801 375.115C479.726 381.679 490.267 407.935 490.267 407.935C490.267 407.935 487.966 424 494.53 428.29C501.094 432.579 526.037 433.216 535.565 427.302C545.092 421.388 549.017 416.8 549.017 412.536C549.017 408.273 542.778 389.556 532.939 370.852C525.734 357.154 515.788 345.084 503.72 335.394C496.831 329.818 494.205 327.192 492.893 327.192C491.58 327.192 475.826 340.658 476.476 346.884Z" fill="white" stroke="#263238" stroke-linecap="round" stroke-linejoin="round"/>
<path d="M490.267 322.929L472.538 342.946L476.151 353.786L496.168 327.855L490.267 322.929Z" fill="white" stroke="#263238" stroke-linecap="round" stroke-linejoin="round"/>
<path d="M490.592 396.12C490.592 396.12 454.484 416.8 449.895 418.45C445.307 420.101 430.529 420.088 426.252 419.75C425.728 419.657 425.189 419.68 424.675 419.818C424.16 419.956 423.682 420.206 423.275 420.55C422.868 420.893 422.542 421.323 422.32 421.807C422.097 422.291 421.985 422.818 421.989 423.351L421.339 435.829C421.339 435.829 424.94 436.816 426.538 435.829C428.137 434.841 429.814 431.227 429.814 431.227C429.814 431.227 435.728 431.89 437.69 430.577C438.979 429.701 440.188 428.714 441.304 427.627C447.369 427.123 453.398 426.255 459.358 425.027C465.922 423.377 496.116 413.537 500.717 412.549C505.319 411.562 506.956 408.936 507.281 407.35C507.606 405.764 490.592 396.12 490.592 396.12Z" fill="white" stroke="#263238" stroke-linecap="round" stroke-linejoin="round"/>
<path d="M449.428 418.58C444.41 420.075 430.399 420.075 426.252 419.763C425.728 419.67 425.189 419.693 424.675 419.831C424.16 419.969 423.682 420.219 423.275 420.563C422.868 420.906 422.542 421.335 422.32 421.82C422.097 422.304 421.985 422.831 421.989 423.364L421.339 435.842C421.339 435.842 424.94 436.829 426.538 435.842C428.137 434.854 429.814 431.24 429.814 431.24C429.814 431.24 435.728 431.903 437.69 430.59C438.979 429.714 440.188 428.727 441.304 427.64C441.304 427.64 446.815 427.159 452.391 426.34L449.428 418.58Z" fill="#B3D74C" stroke="#263238" stroke-linecap="round" stroke-linejoin="round"/>
<path d="M493.217 347.222C493.217 347.222 487.641 353.448 488.291 358.049C488.941 362.65 490.592 396.12 490.592 396.12L509.296 403.672L514.495 377.091C514.495 377.091 518.771 370.189 518.108 363.625" fill="white"/>
<path d="M493.217 347.222C493.217 347.222 487.641 353.448 488.291 358.049C488.941 362.65 490.592 396.12 490.592 396.12L509.296 403.672L514.495 377.091C514.495 377.091 518.771 370.189 518.108 363.625" stroke="#263238" stroke-linecap="round" stroke-linejoin="round"/>
<path d="M488.954 397.771L507.983 409.248C507.983 409.248 510.583 409.248 510.947 404.985C511.311 400.721 513.234 400.058 511.597 397.771C509.959 395.483 492.555 388.243 490.917 388.243C489.279 388.243 487.641 392.182 488.954 397.771Z" fill="white" stroke="#263238" stroke-linecap="round" stroke-linejoin="round"/>
<path d="M565.759 490.654C565.759 490.654 575.598 482.127 577.249 482.452C578.9 482.777 592.015 495.255 592.015 495.255C592.015 495.255 604.155 501.819 604.155 502.807C604.155 503.795 602.192 504.107 602.192 504.107L567.098 502.807L565.759 490.654Z" fill="white" stroke="#263238" stroke-linecap="round" stroke-linejoin="round"/>
<path d="M604.103 502.807C604.103 501.819 591.963 495.255 591.963 495.255C591.963 495.255 578.835 482.777 577.197 482.452C576.612 482.335 574.975 483.349 573.129 484.701L589.012 495.905L600.58 504.055L602.14 504.12C602.14 504.12 604.103 503.782 604.103 502.807Z" fill="white" stroke="#263238" stroke-linecap="round" stroke-linejoin="round"/>
<path d="M492.555 449.632L489.279 435.842" stroke="#999999" stroke-linecap="round" stroke-linejoin="round"/>
<path d="M378.355 394.989C374.456 392.78 368.724 389.79 368.724 389.79C368.724 389.79 361.003 370.293 354.946 361.195C348.889 352.096 345.301 350.991 338.685 350.445C332.069 349.899 312.248 355.125 311.39 356.502C311.39 356.502 292.933 365.042 288.254 371.112C283.574 377.182 285.212 424.273 285.212 424.273C285.212 424.273 265.403 437.687 260.178 452.596C256.851 462.045 260.724 477.656 278.635 482.348C284.611 483.947 290.883 484.085 296.923 482.751C301.576 486.676 306.729 489.967 312.248 492.538C330.705 501.351 342.819 503.002 354.114 503.561C365.409 504.12 376.977 500.532 379.187 498.361C381.397 496.191 385.803 487.612 374.508 475.225C364.772 464.528 335.397 452.622 327.468 449.541C328.257 444.915 328.691 440.235 328.768 435.543C328.768 435.543 345.847 416.046 346.965 411.575C348.083 407.103 350.864 388.984 350.864 388.984C350.864 388.984 360.236 406.076 362.992 408.546C365.747 411.016 381.721 409.105 383.372 409.105C385.023 409.105 385.855 401.943 385.855 401.943C383.76 399.223 381.225 396.872 378.355 394.989Z" fill="white" stroke="#263238" stroke-linecap="round" stroke-linejoin="round"/>
<path d="M374.508 475.16C364.772 464.463 335.397 452.557 327.468 449.476C327.715 448.034 327.923 446.63 328.079 445.304C320.667 446.942 312.971 446.786 305.632 444.849C284.692 439.338 280.286 428.043 280.286 428.043H280.13C273.878 433.112 263.701 442.51 260.178 452.557C256.851 462.006 260.724 477.617 278.635 482.309C284.611 483.908 290.883 484.046 296.923 482.712C301.576 486.637 306.729 489.929 312.248 492.5C330.705 501.312 342.819 502.963 354.114 503.522C365.409 504.081 376.977 500.493 379.187 498.323C381.397 496.152 385.803 487.547 374.508 475.16Z" fill="#696969" stroke="#263238" stroke-linecap="round" stroke-linejoin="round"/>
<path d="M271.187 454.494C271.187 454.494 281.105 442.367 294.064 447.332C339.335 464.684 350.813 483.973 353.854 491.681C356.896 499.388 355.778 503.535 353.308 505.185C350.838 506.836 324.934 500.779 312.534 496.373C300.134 491.967 283.6 494.163 269.55 482.322C255.499 470.481 257.709 458.926 262.115 448.983" fill="#696969"/>
<path d="M271.187 454.494C271.187 454.494 281.105 442.367 294.064 447.332C339.335 464.684 350.813 483.973 353.854 491.681C356.896 499.388 355.778 503.535 353.308 505.185C350.838 506.836 324.934 500.779 312.534 496.373C300.134 491.967 283.6 494.163 269.55 482.322C255.499 470.481 257.709 458.926 262.115 448.983" stroke="#263238" stroke-linecap="round" stroke-linejoin="round"/>
<path d="M385.803 401.904C383.719 399.211 381.202 396.883 378.355 395.015C374.456 392.806 368.724 389.816 368.724 389.816C368.724 389.816 366.501 384.201 363.524 377.585C360.184 380.367 354.712 385.709 352.606 392.195C355.466 397.264 360.951 406.752 363.005 408.546C365.747 411.029 381.734 409.105 383.385 409.105C385.036 409.105 385.803 401.904 385.803 401.904Z" fill="white" stroke="#263238" stroke-linecap="round" stroke-linejoin="round"/>
<path d="M350.813 388.919L350.54 374.05" stroke="#263238" stroke-linecap="round" stroke-linejoin="round"/>
<path d="M394.745 426.327C391.65 427.436 388.679 428.865 385.881 430.59C383.281 432.553 382.93 434.204 382.93 437.154C382.93 440.105 377.016 444.043 379.98 444.043C382.943 444.043 385.179 443.055 387.857 438.142C390.534 433.229 393.758 431.773 393.758 431.773C393.962 434.15 394.397 436.5 395.057 438.792C395.975 440.749 396.096 442.986 395.395 445.031C394.732 447.631 397.995 447.007 398.996 439.832C399.525 435.253 398.849 430.616 397.033 426.379L394.745 426.327Z" fill="white" stroke="#263238" stroke-linecap="round" stroke-linejoin="round"/>
<path d="M394.096 418.424C394.096 418.424 395.071 423.961 394.746 425.222C394.421 426.483 389.819 430.005 388.182 433.021C387.527 434.248 387.132 435.597 387.02 436.983C386.908 438.369 387.082 439.764 387.532 441.08C388.182 443.094 390.131 449.632 391.132 447.878C392.133 446.123 392.432 444.095 392.432 440.326C392.432 436.556 391.782 433.268 393.732 431.76L395.708 430.252C396.66 432.451 397.43 434.725 398.008 437.05C399.308 441.834 397.02 445.863 397.67 446.617C398.32 447.371 400.959 446.864 401.284 444.849C401.609 442.834 402.921 440.573 402.921 436.543C402.901 434.086 402.165 431.687 400.803 429.642C400.189 427.945 399.694 426.208 399.321 424.442C398.736 421.401 396.721 415.656 394.096 418.424Z" fill="white" stroke="#263238" stroke-linecap="round" stroke-linejoin="round"/>
<path d="M404.26 409.586C405.686 411.996 406.988 414.477 408.159 417.021C408.978 419.23 409.537 421.713 408.159 422.22C406.781 422.727 405.677 418.918 404.845 417.268C404.013 415.617 401.231 408.481 404.26 409.586Z" fill="#B3D74C" stroke="#263238" stroke-linecap="round" stroke-linejoin="round"/>
<path d="M404.26 409.586C402.609 406.011 393.238 400.487 390.755 399.122C389.027 398.148 383.502 398.005 380.357 397.992C379.603 397.875 378.836 397.875 378.082 397.992C378.082 397.992 373.676 401.293 373.949 404.881C374.051 405.904 374.489 406.864 375.194 407.612C375.9 408.359 376.833 408.852 377.848 409.014H379.148C378.937 410.351 379.17 411.721 379.811 412.913C382.008 416.306 383.347 420.183 383.71 424.208C383.71 427.796 387.844 426.418 388.39 423.663C388.936 420.907 387.571 415.955 387.571 414.85C387.571 413.745 389.767 410.717 389.767 410.717C389.767 410.717 395.837 417.047 396.656 418.424C397.475 419.802 397.761 426.964 399.971 427.523C402.18 428.082 402.167 423.624 402.167 423.624C402.624 423.661 403.083 423.604 403.517 423.455C403.95 423.306 404.348 423.069 404.685 422.759C405.022 422.449 405.291 422.072 405.475 421.653C405.659 421.233 405.755 420.78 405.755 420.322C406.211 416.674 405.695 412.971 404.26 409.586Z" fill="#B3D74C" stroke="#263238" stroke-linecap="round" stroke-linejoin="round"/>
<path d="M398.203 410.418C398.203 410.418 402.323 412.887 402.323 415.37C402.323 417.852 402.05 423.637 402.05 423.637" stroke="#263238" stroke-linecap="round" stroke-linejoin="round"/>
<path d="M354.673 498.089C354.673 501.988 356.87 502.495 348.33 507.733C339.79 512.971 326.844 509.384 314.172 506.628C301.499 503.873 286.343 501.663 280.559 501.663C274.775 501.663 260.958 503.808 255.759 503.808C250.56 503.808 241.994 503.262 243.099 500.506C244.204 497.751 258.242 493.331 259.346 492.239C260.451 491.148 260.178 488.925 262.934 484.792C263.557 483.658 264.566 482.786 265.777 482.333C266.989 481.88 268.323 481.876 269.537 482.322C274.403 486.78 280.449 489.745 286.954 490.862C297.352 492.512 316.42 493.331 323.868 493.331C331.316 493.331 340.674 496.646 341.493 496.646" fill="#696969"/>
<path d="M354.673 498.089C354.673 501.988 356.87 502.495 348.33 507.733C339.79 512.971 326.844 509.384 314.172 506.628C301.499 503.873 286.343 501.663 280.559 501.663C274.775 501.663 260.958 503.808 255.759 503.808C250.56 503.808 241.994 503.262 243.099 500.506C244.204 497.751 258.242 493.331 259.346 492.239C260.451 491.148 260.178 488.925 262.934 484.792C263.557 483.658 264.566 482.786 265.777 482.333C266.989 481.88 268.323 481.876 269.537 482.322C274.403 486.78 280.449 489.745 286.954 490.862C297.352 492.512 316.42 493.331 323.868 493.331C331.316 493.331 340.674 496.646 341.493 496.646" stroke="#263238" stroke-linecap="round" stroke-linejoin="round"/>
<path d="M286.954 490.862C280.468 489.735 274.441 486.771 269.589 482.322C268.375 481.876 267.041 481.88 265.829 482.333C264.618 482.786 263.609 483.658 262.986 484.792C260.23 488.925 260.503 491.135 259.398 492.239C258.294 493.344 244.243 497.751 243.151 500.506C242.059 503.262 250.56 503.808 255.759 503.808C260.958 503.808 274.775 501.598 280.559 501.598C283.564 501.682 286.562 501.929 289.541 502.339C289.541 502.092 289.437 501.845 289.372 501.598C288.566 498.167 290.879 493.682 292.166 491.551C290.255 491.343 288.475 491.109 286.954 490.862Z" fill="white" stroke="#263238" stroke-linecap="round" stroke-linejoin="round"/>
<path d="M269.537 482.322C268.323 481.876 266.989 481.88 265.777 482.333C264.566 482.786 263.557 483.658 262.934 484.792C260.178 488.925 260.451 491.135 259.346 492.239C258.241 493.344 244.191 497.751 243.099 500.506C242.696 501.481 243.528 502.17 244.984 502.664C248.22 499.193 258.501 496.308 261.374 494.215C264.246 492.122 262.102 491.408 265.13 487.274C265.885 486.309 266.824 485.504 267.893 484.906C268.962 484.308 270.139 483.929 271.356 483.791C270.161 482.933 269.537 482.322 269.537 482.322Z" stroke="#263238" stroke-linecap="round" stroke-linejoin="round"/>
<path d="M294.883 365.51C294.883 365.51 283.587 369.916 281.391 379.002C279.194 388.087 283.314 444.576 283.314 445.954C283.314 447.332 290.749 448.71 302.33 449.853C313.912 450.997 335.384 451.231 335.384 451.231C335.384 451.231 344.756 455.351 346.679 455.351C348.603 455.351 352.736 452.882 352.736 452.882C352.736 452.882 352.19 455.351 354.387 454.806C356.584 454.26 364.031 448.19 364.031 447.098C364.031 446.006 359.079 440.755 356.051 440.209C353.022 439.663 339.517 444.888 338.14 444.888C336.762 444.888 312.794 439.689 308.387 437.726C304.884 436.305 301.293 435.107 297.638 434.139L299.575 386.489" fill="white"/>
<path d="M294.883 365.51C294.883 365.51 283.587 369.916 281.391 379.002C279.194 388.087 283.314 444.576 283.314 445.954C283.314 447.332 290.749 448.71 302.33 449.853C313.912 450.997 335.384 451.231 335.384 451.231C335.384 451.231 344.756 455.351 346.679 455.351C348.603 455.351 352.736 452.882 352.736 452.882C352.736 452.882 352.19 455.351 354.387 454.806C356.584 454.26 364.031 448.19 364.031 447.098C364.031 446.006 359.079 440.755 356.051 440.209C353.022 439.663 339.517 444.888 338.14 444.888C336.762 444.888 312.794 439.689 308.387 437.726C304.884 436.305 301.293 435.107 297.638 434.139L299.575 386.489" stroke="#263238" stroke-linecap="round" stroke-linejoin="round"/>
<path d="M356.051 440.17C353.009 439.611 339.517 444.849 338.14 444.849C336.762 444.849 312.794 439.65 308.387 437.687C304.883 436.266 301.293 435.068 297.638 434.1L298.691 407.987L281.157 407.311C281.898 425.365 283.314 445.148 283.314 445.954C283.314 447.332 290.749 448.71 302.33 449.853C313.911 450.997 335.384 451.231 335.384 451.231C335.384 451.231 344.756 455.352 346.679 455.352C348.603 455.352 352.736 452.882 352.736 452.882C352.736 452.882 352.19 455.352 354.387 454.806C356.584 454.26 364.031 448.19 364.031 447.098C364.031 446.006 359.079 440.716 356.051 440.17Z" fill="white" stroke="#263238" stroke-linecap="round" stroke-linejoin="round"/>
<path d="M364.032 447.059C364.032 445.954 359.079 440.716 356.051 440.17C353.022 439.624 339.518 444.849 338.14 444.849C337.711 444.849 335.085 444.342 331.537 443.549C330.237 444.849 329.002 447.085 329.418 451.036L335.384 451.153C335.384 451.153 344.756 455.273 346.679 455.273C348.603 455.273 352.736 452.804 352.736 452.804C352.736 452.804 352.19 455.273 354.387 454.728C356.584 454.182 364.032 448.151 364.032 447.059Z" fill="#B3D74C" stroke="#263238" stroke-linecap="round" stroke-linejoin="round"/>
<path d="M303.981 311.504C303.981 311.504 293.505 303.25 289.372 306.006C285.238 308.761 267.886 330.793 266.235 336.85C264.585 342.907 273.67 344.297 270.369 349.25C267.067 354.202 260.724 356.138 263.207 362.247C265.689 368.356 275.607 368.863 277.803 370.241C280 371.619 283.587 376.857 291.581 374.647C299.575 372.438 297.911 362.247 303.981 360.87C310.051 359.492 309.492 351.238 306.737 344.622C303.981 338.006 302.33 328.921 305.632 324.788C308.933 320.654 303.981 311.504 303.981 311.504Z" fill="#263238" stroke="#263238" stroke-linecap="round" stroke-linejoin="round"/>
<path d="M310.09 305.837C310.09 305.837 301.641 306.317 297.651 316.872C293.661 327.426 297.651 343.154 298.821 345.74C299.991 348.327 306.1 350.939 309.856 348.782C313.613 346.624 318.773 338.461 322.516 336.343C326.259 334.224 333.785 325.32 333.785 325.32L339.179 332.118C339.179 332.118 342.702 331.65 344.106 324.853C345.509 318.055 340.362 310.776 331.914 306.551C323.465 302.327 314.314 302.561 310.09 305.837Z" fill="#263238" stroke="#263238" stroke-linecap="round" stroke-linejoin="round"/>
<path d="M308.933 353.383C308.933 353.383 309.206 361.65 311.143 365.237C313.08 368.824 318.032 384.734 324.362 385.345C330.692 385.956 330.419 363.027 330.419 363.027C330.419 363.027 322.984 363.3 318.578 358.621C314.171 353.942 309.492 351.212 308.933 353.383Z" stroke="#263238" stroke-linecap="round" stroke-linejoin="round"/>
<path d="M334.721 318.51C334.721 318.51 324.869 330.013 317.122 334.939C309.375 339.865 305.866 340.567 305.866 340.567C305.866 340.567 308.907 340.099 306.802 342.218C304.696 344.336 304.202 344.817 303.045 342.92C301.888 341.022 297.183 339.163 296.234 343.855C295.831 345.814 296.131 347.852 297.082 349.611C298.033 351.371 299.574 352.738 301.434 353.474C303.436 354.317 305.659 354.482 307.764 353.942C307.764 353.942 308.465 361.923 317.85 366.615C327.234 371.307 335.93 364.743 338.504 359.817C341.077 354.891 340.154 332.599 339.673 328.843C339.192 325.086 334.721 318.51 334.721 318.51Z" fill="white" stroke="#263238" stroke-linecap="round" stroke-linejoin="round"/>
<path d="M332.356 340.71C332.356 340.71 331.797 345.116 332.629 345.389C333.46 345.662 336.528 346.767 335.384 348.431C334.24 350.094 332.629 351.186 330.705 350.354" stroke="#263238" stroke-linecap="round" stroke-linejoin="round"/>
<path d="M319.956 354.215C319.956 354.215 322.165 357.789 330.705 355.866" stroke="#263238" stroke-linecap="round" stroke-linejoin="round"/>
<path d="M324.921 342.504C324.921 343.803 324.297 344.843 323.543 344.843C322.789 344.843 322.165 343.79 322.165 342.504C322.165 341.217 322.776 340.164 323.543 340.164C324.31 340.164 324.921 341.204 324.921 342.504Z" fill="#263238"/>
<path d="M336.762 341.126C336.762 342.426 336.151 343.466 335.384 343.466C334.617 343.466 334.006 342.413 334.006 341.126C334.006 339.839 334.617 338.786 335.384 338.786C336.151 338.786 336.762 339.826 336.762 341.126Z" fill="#263238"/>
<path d="M319.449 338.214C320.2 337.291 321.179 336.578 322.288 336.145C323.397 335.712 324.6 335.574 325.779 335.745" stroke="#263238" stroke-linecap="round" stroke-linejoin="round"/>
<path d="M332.628 335.472C332.628 335.472 334.279 331.897 337.828 334.38" stroke="#263238" stroke-linecap="round" stroke-linejoin="round"/>
<path d="M424.29 432.228C424.29 432.228 397.696 440.768 390.495 443.393C383.294 446.019 359.638 446.344 358 448.97C356.363 451.595 344.587 466.439 342.286 474.965C339.985 483.492 343.04 506.589 345.237 508.032C354.062 513.868 377.276 512.074 387.103 511.697C405.079 511.035 422.483 517.52 432.595 499.219C435.871 493.305 431.14 472.6 430.49 465.711C429.84 458.822 427.526 447.332 427.201 445.681C426.876 444.03 429.216 433.541 424.29 432.228Z" fill="white" stroke="#263238" stroke-linecap="round" stroke-linejoin="round"/>
<path d="M391.028 465.594C405.092 460.629 417.089 446.097 420.819 443.653C424.55 441.21 426.59 435.855 426.59 435.855C420.699 439.824 414.304 442.989 407.574 445.265" stroke="#263238" stroke-linecap="round" stroke-linejoin="round"/>
<path d="M426.2 438.22C423.541 446.432 418.841 453.833 412.54 459.732" stroke="#263238" stroke-linecap="round" stroke-linejoin="round"/>
<path d="M363.303 449.801C363.303 449.801 367.437 451.868 381.501 451.868" stroke="#263238" stroke-linecap="round" stroke-linejoin="round"/>
<path d="M361.64 450.217C361.64 450.217 364.954 464.697 383.58 470.494" stroke="#263238" stroke-linecap="round" stroke-linejoin="round"/>
<path d="M358.338 455.195C361.163 460.177 364.96 464.54 369.504 468.024" stroke="#263238" stroke-linecap="round" stroke-linejoin="round"/>
<path d="M97.1065 386.008C97.1065 386.008 104.45 406.947 104.45 415.396C104.45 423.844 110.325 470.13 111.053 475.277C111.541 478.474 112.537 481.572 114.004 484.454C119.021 489.091 124.72 492.931 130.901 495.84C141.546 501.039 141.182 499.518 139.35 501.715C137.517 503.912 120.607 504.314 112.899 503.561C105.191 502.807 97.4705 505.393 97.1065 502.092C96.7426 498.79 96.7296 485.559 96.7296 479.683C96.7296 473.808 81.3011 444.797 79.4684 435.595C77.6357 426.392 78.3635 412.094 78.3635 412.094L69.187 389.998L97.1065 386.008Z" fill="white" stroke="#263238" stroke-linecap="round" stroke-linejoin="round"/>
<path d="M111.482 488.132V493.331L96.8206 490.511C96.8206 495.476 96.9505 500.324 97.1585 502.209C97.5224 505.51 105.23 502.937 112.951 503.678C120.672 504.419 137.556 504.042 139.402 501.832C141.247 499.622 141.598 501.104 130.953 495.957C124.775 493.042 119.077 489.203 114.056 484.571C114.056 484.571 111.482 484.818 111.482 488.132Z" fill="#263238" stroke="#263238" stroke-linecap="round" stroke-linejoin="round"/>
<path d="M66.9774 388.217C66.9774 388.217 68.0432 411.237 64.3778 420.543C46.0117 467.556 45.2838 485.195 45.2838 485.195C45.2838 485.195 63.6759 499.141 67.7182 500.688C71.7606 502.235 73.9572 502.885 71.3836 504.717C68.8101 506.55 45.6738 506.186 41.6314 506.186C37.5891 506.186 27.6717 503.249 26.5799 501.416C25.488 499.583 29.1794 484.883 29.1794 484.883C29.1794 484.883 31.0251 448.151 31.0251 439.702C31.0251 431.253 40.2017 414.733 40.2017 411.782C40.2017 408.832 38.369 386.813 38.369 386.813C38.369 386.813 60.3744 392.26 66.9774 388.217Z" fill="white" stroke="#263238" stroke-linecap="round" stroke-linejoin="round"/>
<path d="M71.3836 504.652C73.9832 502.82 71.7605 502.053 67.7182 500.623C63.6758 499.193 45.3098 485.195 45.3098 485.195C45.3098 485.195 43.4771 485.922 43.4771 488.86C43.5598 490.406 43.1748 491.942 42.3723 493.266C42.3723 493.266 36.4972 492.174 29.5174 490.667C28.9325 490.55 28.3995 490.433 27.8796 490.303C26.9308 494.683 25.9299 500.246 26.5798 501.325C27.6717 503.158 37.5891 506.095 41.6314 506.095C45.6737 506.095 68.823 506.498 71.3836 504.652Z" fill="#263238" stroke="#263238" stroke-linecap="round" stroke-linejoin="round"/>
<path d="M97.4704 277.644L111.053 297.479L167.256 289.407V300.053C167.256 300.053 111.482 315.481 109.221 313.648C106.959 311.816 88.2809 302.99 88.2809 302.99L97.4704 277.644Z" fill="#B5B5B5" stroke="#263238" stroke-linecap="round" stroke-linejoin="round"/>
<path d="M47.1425 251.57C47.1425 251.57 43.1002 275.084 43.1002 284.624V318.419C43.1002 318.419 31.4021 337.162 29.5174 353.682C27.6327 370.202 27.3077 388.581 27.3077 388.581C27.3077 388.581 44.9459 396.302 59.2696 395.197C67.7926 394.547 76.2611 393.314 84.6155 391.506L104.814 386.736L89.7497 318.419C89.7497 318.419 97.1065 298.922 98.1983 297.856C99.2901 296.79 103.397 283.558 101.877 273.602C100.356 263.645 94.8968 243.122 83.5107 237.611C72.1245 232.099 52.2897 238.715 47.1425 251.57Z" fill="#5E5E5E" stroke="#263238" stroke-linecap="round" stroke-linejoin="round"/>
<path d="M63.8839 318.717C63.0875 324.709 60.5678 330.34 56.631 334.926C50.1321 342.426 44.777 343.868 44.777 343.868C44.777 343.868 41.6315 374.4 42.8403 386.307" stroke="#263238" stroke-linecap="round" stroke-linejoin="round"/>
<path d="M67.2893 319.731C66.6369 325.363 64.8222 330.798 61.9602 335.693C57.3589 343.193 47.6625 345.857 47.6625 345.857" stroke="#263238" stroke-linecap="round" stroke-linejoin="round"/>
<path d="M90.1266 248.997C88.2029 242.433 82.6268 238.104 79.8972 236.324C71.4096 234.231 60.2314 237.195 53.0565 243.499C52.9266 244.278 52.8356 244.98 52.6536 245.695C52.2897 247.164 46.7786 279.113 46.7786 279.113C46.7786 279.113 48.0784 279.373 50.106 279.737C48.0784 290.07 50.353 307.305 50.353 307.305C50.353 307.305 61.2062 310.802 69.6029 310.451C77.9995 310.1 87.7999 305.252 87.7999 305.252C87.7999 302.301 90.2565 287.496 91.4134 280.686H91.9593C91.9593 280.686 92.6872 257.809 90.1266 248.997Z" fill="white" stroke="#263238" stroke-linecap="round" stroke-linejoin="round"/>
<path d="M74.854 277.215C74.854 277.215 61.8561 290.213 55.2532 292.254L74.854 277.215Z" fill="white"/>
<path d="M74.854 277.215C74.854 277.215 61.8561 290.213 55.2532 292.254" stroke="#263238" stroke-linecap="round" stroke-linejoin="round"/>
<path d="M74.854 283.857C74.854 283.857 67.4972 290.512 61.5571 295.412L74.854 283.857Z" fill="white"/>
<path d="M74.854 283.857C74.854 283.857 67.4972 290.512 61.5571 295.412" stroke="#263238" stroke-linecap="round" stroke-linejoin="round"/>
<path d="M103.164 379.249C96.6634 382.718 89.4097 384.534 82.0419 384.539C82.0419 384.539 71.0197 389.322 53.7585 388.581C44.5497 388.081 35.5833 385.447 27.5677 380.886C27.3727 385.566 27.3077 388.581 27.3077 388.581C27.3077 388.581 44.9459 396.302 59.2696 395.197C67.7926 394.547 76.2611 393.314 84.6155 391.506L104.814 386.735L103.164 379.249Z" fill="white" stroke="#263238" stroke-linecap="round" stroke-linejoin="round"/>
<path d="M82.4059 392.26L83.1468 352.213" stroke="#263238" stroke-linecap="round" stroke-linejoin="round"/>
<path d="M118.774 200.515V210.055C118.774 210.055 123.544 213.733 120.607 216.307C119.426 217.497 118.061 218.489 116.564 219.245C116.564 219.245 114.732 227.693 110.689 231.736C106.647 235.778 104.45 235.037 98.5753 230.995C92.7003 226.952 89.0219 224.392 89.0219 224.392C89.0219 224.392 92.6873 206.39 95.2608 200.515C97.8344 194.64 105.919 193.899 109.961 194.627C114.004 195.354 118.774 200.515 118.774 200.515Z" fill="white" stroke="#263238" stroke-linecap="round" stroke-linejoin="round"/>
<path d="M114.758 209.34C114.758 210.445 114.264 211.342 113.666 211.342C113.068 211.342 112.574 210.445 112.574 209.34C112.574 208.235 113.055 207.325 113.666 207.325C114.277 207.325 114.758 208.235 114.758 209.34Z" fill="#263238"/>
<path d="M111.287 204.596C111.287 204.596 113.302 201.32 116.031 204.05" stroke="#263238" stroke-linecap="round" stroke-linejoin="round"/>
<path d="M108.558 219.933C109.765 221.162 111.399 221.878 113.12 221.935" stroke="#263238" stroke-linecap="round" stroke-linejoin="round"/>
<path d="M102.384 197.421C102.384 197.421 94.6629 215.93 95.0528 224.808C95.4427 233.685 105.451 259.148 101.227 267.636C97.0025 276.123 88.0859 282.323 81.587 272.263C75.088 262.203 72.7094 259.148 68.4721 265.309C64.2348 271.47 59.2176 282.674 49.5731 282.674C39.9287 282.674 28.2956 269.949 34.0796 256.445C39.8637 242.94 52.9916 237.156 61.0893 224.041C67.0348 214.721 71.22 204.39 73.4373 193.561L103.137 194.717L102.384 197.421Z" fill="#263238" stroke="#263238" stroke-linecap="round" stroke-linejoin="round"/>
<path d="M72.6575 199.345H118.956C118.956 199.345 118.956 179.666 115.057 176.585C111.157 173.505 80.7292 174.272 77.2587 176.585C73.7883 178.899 71.1887 197.031 72.6575 199.345Z" fill="#B3D74C" stroke="#263238" stroke-linecap="round" stroke-linejoin="round"/>
<path d="M104.164 199.137C104.164 199.137 114.966 203.374 124.61 203.374C134.255 203.374 139.272 199.137 139.272 199.137H104.164Z" fill="#B3D74C" stroke="#263238" stroke-linecap="round" stroke-linejoin="round"/>
<path d="M180.111 287.522C180.111 287.522 184.153 286.795 184.153 289.732C184.153 292.67 179.383 292.332 175.341 290.837C171.299 289.342 176.81 288.302 180.111 287.522Z" fill="#B5B5B5" stroke="#263238" stroke-linecap="round" stroke-linejoin="round"/>
<path d="M180.852 291.24C180.852 291.24 184.894 290.499 184.894 293.45C184.894 296.4 180.111 296.049 176.082 294.541C172.052 293.034 177.551 291.981 180.852 291.24Z" fill="#B5B5B5" stroke="#263238" stroke-linecap="round" stroke-linejoin="round"/>
<path d="M181.593 294.918C181.593 294.918 185.622 294.177 185.622 297.115C185.622 300.052 180.852 299.715 176.81 298.22C172.767 296.725 178.278 295.646 181.593 294.918Z" fill="#B5B5B5" stroke="#263238" stroke-linecap="round" stroke-linejoin="round"/>
<path d="M180.865 298.675C180.865 298.675 184.907 297.934 184.907 300.871C184.907 303.809 180.124 303.471 176.095 301.976C172.065 300.481 177.564 299.403 180.865 298.675Z" fill="#B5B5B5" stroke="#263238" stroke-linecap="round" stroke-linejoin="round"/>
<path d="M163.214 291.24C163.214 291.24 140.441 341.191 140.441 344.531C140.441 347.872 140.441 356.645 142.651 361.793C144.861 366.94 158.08 376.48 163.955 377.585C169.83 378.69 194.812 372.815 197.749 372.074C200.687 371.333 208.407 350.77 208.031 346.728C207.654 342.686 198.113 327.231 196.644 324.697C195.176 322.162 183.062 305.59 181.593 302.6C180.124 299.611 175.705 291.955 175.705 291.955L163.214 291.24Z" fill="white" stroke="#263238" stroke-linecap="round" stroke-linejoin="round"/>
<path d="M167.256 300.052L164.319 321.733" stroke="#263238" stroke-linecap="round" stroke-linejoin="round"/>
<path d="M172.403 297.479V326.139" stroke="#263238" stroke-linecap="round" stroke-linejoin="round"/>
<path d="M176.082 294.541L186.363 326.867" stroke="#263238" stroke-linecap="round" stroke-linejoin="round"/>
<path d="M103.683 294.177C103.683 294.177 85.6944 248.685 80.9111 246.423C76.1279 244.161 61.8432 244.629 63.312 261.527C64.7807 278.424 93.0642 313.687 96.7296 314.051C100.395 314.415 158.08 295.321 158.08 295.321C158.08 295.321 177.577 297.921 179.019 295.685C180.462 293.449 180.852 285.404 180.852 285.404C180.852 285.404 183.452 279.893 180.852 278.06C178.252 276.227 166.554 277.319 164.696 277.319C162.837 277.319 154.037 286.132 154.037 286.132L103.683 294.177Z" fill="white" stroke="#263238" stroke-linecap="round" stroke-linejoin="round"/>
<path d="M179.071 295.646C180.54 293.45 180.904 285.365 180.904 285.365C180.904 285.365 183.503 279.854 180.904 278.021C178.304 276.188 166.606 277.28 164.748 277.28C162.889 277.28 154.089 286.093 154.089 286.093L144.536 287.626L146.16 299.208C153.218 296.907 158.132 295.308 158.132 295.308C158.132 295.308 177.55 297.921 179.071 295.646Z" fill="#B3D74C" stroke="#263238" stroke-linecap="round" stroke-linejoin="round"/>
<path d="M185.622 272.874L206.562 283.896L202.519 291.24L185.622 272.874Z" fill="white" stroke="#263238" stroke-linecap="round" stroke-linejoin="round"/>
<path d="M168.361 276.552L171.299 268.831C171.299 268.831 173.508 267.727 181.593 269.936C189.678 272.146 205.457 294.541 205.457 294.541C205.457 294.541 194.071 302.626 192.238 302.99C190.405 303.354 183.789 283.493 183.062 281.686C182.479 280.378 181.737 279.147 180.852 278.021L168.361 276.552Z" fill="white" stroke="#263238" stroke-linecap="round" stroke-linejoin="round"/>
<path d="M180.852 278.021L174.353 273.797" stroke="#263238" stroke-linecap="round" stroke-linejoin="round"/>
<path d="M224.187 359.167H131.538V504.354H224.187V359.167Z" fill="#B3D74C" stroke="#263238" stroke-linecap="round" stroke-linejoin="round"/>
<path d="M223.966 408.403H131.759C131.104 408.403 130.476 408.143 130.013 407.68C129.55 407.217 129.289 406.588 129.289 405.933C129.289 405.278 129.55 404.65 130.013 404.187C130.476 403.724 131.104 403.464 131.759 403.464H223.966C224.621 403.464 225.249 403.724 225.712 404.187C226.176 404.65 226.436 405.278 226.436 405.933C226.436 406.588 226.176 407.217 225.712 407.68C225.249 408.143 224.621 408.403 223.966 408.403Z" fill="#B3D74C" stroke="#263238" stroke-linecap="round" stroke-linejoin="round"/>
<path d="M223.966 361.351H131.759C131.104 361.351 130.476 361.09 130.013 360.627C129.55 360.164 129.289 359.536 129.289 358.881C129.289 358.226 129.55 357.598 130.013 357.135C130.476 356.672 131.104 356.411 131.759 356.411H223.966C224.621 356.411 225.249 356.672 225.712 357.135C226.175 357.598 226.436 358.226 226.436 358.881C226.436 359.536 226.175 360.164 225.712 360.627C225.249 361.09 224.621 361.351 223.966 361.351Z" fill="#B3D74C" stroke="#263238" stroke-linecap="round" stroke-linejoin="round"/>
<path d="M223.966 457.587H131.759C131.104 457.587 130.476 457.327 130.013 456.864C129.55 456.401 129.289 455.773 129.289 455.118C129.289 454.463 129.55 453.834 130.013 453.371C130.476 452.908 131.104 452.648 131.759 452.648H223.966C224.621 452.648 225.249 452.908 225.712 453.371C226.176 453.834 226.436 454.463 226.436 455.118C226.436 455.773 226.176 456.401 225.712 456.864C225.249 457.327 224.621 457.587 223.966 457.587Z" fill="#B3D74C" stroke="#263238" stroke-linecap="round" stroke-linejoin="round"/>
</svg>
